<svg xmlns="http://www.w3.org/2000/svg" viewBox="0 0 387.35 267.09"><defs><style>.cls-1{isolation:isolate;}.cls-2,.cls-22{fill:#d1d3d4;}.cls-2,.cls-21,.cls-24,.cls-38,.cls-40,.cls-53{mix-blend-mode:multiply;}.cls-3{fill:#f7941d;}.cls-4{fill:#fbb040;}.cls-5{fill:#f5841f;}.cls-6{fill:#cb611a;}.cls-7{fill:#197b9f;}.cls-8{fill:#1e8bb3;}.cls-9{fill:#157192;}.cls-10{fill:#0a607e;}.cls-11{fill:#80a237;}.cls-12{fill:#9ba930;}.cls-13{fill:#5b8e35;}.cls-14{fill:#3f6a24;}.cls-15{fill:#e8e2c3;}.cls-16{fill:#ffefdf;}.cls-17{fill:#cbc6a0;}.cls-18{fill:#a5a17d;}.cls-19{fill:#672239;}.cls-20{fill:#b24868;}.cls-21{fill:#e4e5e6;}.cls-23{fill:#ce486b;}.cls-25{fill:#bcbec0;}.cls-26{fill:#e6e7e8;}.cls-27{fill:#086168;}.cls-28{fill:#4695a9;}.cls-29{fill:#289faa;}.cls-30{fill:#56b9d6;}.cls-31,.cls-32{fill:#7ad0e2;}.cls-31,.cls-40{opacity:0.5;}.cls-33{fill:#ec524f;}.cls-34{fill:#00b9c5;}.cls-35,.cls-36,.cls-41{fill:#fff;}.cls-36{opacity:0.2;}.cls-37{fill:none;}.cls-38,.cls-39{fill:#f5834e;}.cls-41{mix-blend-mode:soft-light;}.cls-42{fill:#00b9f1;}.cls-43{fill:#945ea7;}.cls-44{fill:#b9d76b;}.cls-45{fill:#72c271;}.cls-46{fill:#009cc1;}.cls-47{fill:#007b97;}.cls-48{fill:#00a1bd;}.cls-49{fill:#939598;}.cls-50{fill:#a7a9ac;}.cls-51{fill:#93ced4;}.cls-52{fill:#69bbc3;}.cls-53{fill:#aecad8;}.cls-54{fill:#a22934;}.cls-55{fill:#bf333f;}.cls-56{fill:#52949b;}</style></defs><g class="cls-1"><g id="Layer_2" data-name="Layer 2"><g id="Capa_1" data-name="Capa 1"><path class="cls-2" d="M378.84,249.12c0,4.39-39.35,7.95-87.89,7.95s-87.88-3.56-87.88-7.95,39.35-7.94,87.88-7.94S378.84,244.73,378.84,249.12Z"/><path class="cls-2" d="M267.45,261.12c0,3.3-42.24,6-94.36,6s-94.35-2.67-94.35-6,42.25-6,94.35-6S267.45,257.82,267.45,261.12Z"/><path class="cls-2" d="M129.14,250.24c0,3.3-6.74,5.38-32.4,5.38S0,213.92,0,210.62s59.68-3.54,85.34-3.54S129.14,246.94,129.14,250.24Z"/><path class="cls-3" d="M203.07,244.62l-110,3.67L9,213.19A5.52,5.52,0,0,1,8.56,212c-.34-1.39.08-1.44.43-1.52A28.38,28.38,0,0,1,7.67,203c-.29-.2-1-1-.93-1.37.2-1.1.7-1.83,1.69-1.86,20.22-.67,80.6-2,113.15,4.64,27.53,5.61,60.85,17.67,79.2,26.12C211.16,235.31,211.87,244.33,203.07,244.62Z"/><path class="cls-4" d="M74.77,203.88c11.86.79,23.83,1.07,35.63,2.57,11.35,1.45,23.5,6.32,34.85,6.19A33.85,33.85,0,0,0,151,212c-9.93-3-20-5.7-29.42-7.62-18.56-3.78-46.16-5-70.21-5.18C58.35,202.56,69.83,203.54,74.77,203.88Z"/><path class="cls-5" d="M202.75,231.56c-10.24,1.66-21.1.85-31.23.49-20-.7-40.39,2-60.19-.2-20.4-2.24-40-8.63-59.21-15.66-9.18-3.37-18.13-7.65-27.45-10.62-5.22-1.66-10.43-3.14-15.18-5.84l-1.06,0c-1,0-1.49.76-1.69,1.86-.07.37.64,1.17.93,1.37A28.38,28.38,0,0,0,9,210.5c-.35.08-.77.13-.43,1.52A5.52,5.52,0,0,0,9,213.19l84.11,35.1,110-3.67C211.28,244.34,211.21,236.49,202.75,231.56Z"/><path class="cls-6" d="M95.61,246.09a3.35,3.35,0,0,1-1.25-.24L9,210.5A24.77,24.77,0,0,1,7.67,203l88.55,36.49,105.15-3.26a3.29,3.29,0,0,1,.21,6.58L95.72,246.09Z"/><path class="cls-7" d="M209.83,231.5l-110,3.67-84.1-35.11a5.57,5.57,0,0,1-.4-1.16c-.33-1.39.09-1.44.43-1.52a28.45,28.45,0,0,1-1.31-7.51c-.3-.19-1-1-.94-1.36.2-1.1.71-1.83,1.7-1.86,20.21-.67,80.59-2,113.14,4.64,27.53,5.61,60.85,17.67,79.21,26.12C217.93,222.19,218.64,231.2,209.83,231.5Z"/><path class="cls-8" d="M81.53,190.75c11.86.8,23.84,1.08,35.64,2.58,11.34,1.44,23.49,6.31,34.85,6.19a35.13,35.13,0,0,0,5.75-.61c-9.93-3-20-5.7-29.43-7.62-18.56-3.78-46.15-5-70.21-5.18C65.11,189.44,76.59,190.42,81.53,190.75Z"/><path class="cls-9" d="M209.51,218.44c-10.23,1.66-21.1.84-31.23.49-19.94-.7-40.38,2-60.19-.2-20.4-2.24-40-8.63-59.21-15.66-9.18-3.37-18.12-7.66-27.44-10.62-5.23-1.66-10.43-3.15-15.19-5.84l-1.05,0c-1,0-1.5.76-1.7,1.86-.06.37.64,1.17.94,1.36a28.45,28.45,0,0,0,1.31,7.51c-.34.08-.76.13-.43,1.52a5.57,5.57,0,0,0,.4,1.16l84.1,35.11,110-3.67C218,231.22,218,223.37,209.51,218.44Z"/><path class="cls-10" d="M102.38,233a3.22,3.22,0,0,1-1.26-.25L15.75,197.38a24.53,24.53,0,0,1-1.31-7.51L103,226.37l105.15-3.27a3.33,3.33,0,0,1,3.39,3.19,3.29,3.29,0,0,1-3.19,3.39L102.48,233Z"/><path class="cls-11" d="M200.24,215.52l-110,3.67-84.1-35.1a5.84,5.84,0,0,1-.4-1.17c-.33-1.39.09-1.44.43-1.51a28.52,28.52,0,0,1-1.31-7.51c-.3-.2-1-1-.93-1.37.19-1.1.7-1.83,1.69-1.86,20.21-.67,80.59-2,113.14,4.64,27.53,5.61,60.85,17.67,79.21,26.12C208.33,206.21,209,215.22,200.24,215.52Z"/><path class="cls-12" d="M71.94,174.78c11.86.8,23.83,1.07,35.63,2.57,11.34,1.45,23.49,6.32,34.85,6.19a33.85,33.85,0,0,0,5.75-.61c-9.93-3-20-5.7-29.43-7.62-18.56-3.78-46.15-5-70.21-5.18C55.52,173.47,67,174.44,71.94,174.78Z"/><path class="cls-13" d="M199.92,202.46c-10.24,1.67-21.11.85-31.24.49-19.94-.69-40.38,2-60.19-.2-20.4-2.24-40-8.62-59.2-15.66-9.19-3.36-18.13-7.65-27.45-10.61-5.23-1.67-10.43-3.16-15.18-5.84l-1.06,0c-1,0-1.5.76-1.69,1.86-.07.37.63,1.17.93,1.37a28.52,28.52,0,0,0,1.31,7.51c-.34.07-.76.12-.43,1.51a5.84,5.84,0,0,0,.4,1.17l84.1,35.1,110-3.67C208.44,215.25,208.37,207.39,199.92,202.46Z"/><path class="cls-14" d="M92.78,217a3.41,3.41,0,0,1-1.26-.25L6.15,181.41a24.89,24.89,0,0,1-1.31-7.51l88.55,36.5,105.15-3.27a3.29,3.29,0,1,1,.2,6.58L92.88,217Z"/><path class="cls-15" d="M209.83,197.72l-110,3.67-84.1-35.11a5.57,5.57,0,0,1-.4-1.16c-.33-1.4.09-1.44.43-1.52a28.45,28.45,0,0,1-1.31-7.51c-.3-.19-1-1-.94-1.36.2-1.1.71-1.83,1.7-1.87,20.21-.66,80.59-2,113.14,4.65,27.53,5.61,60.85,17.67,79.21,26.12C217.93,188.41,218.64,197.42,209.83,197.72Z"/><path class="cls-16" d="M81.53,157c11.86.8,23.84,1.08,35.64,2.58,11.34,1.44,23.49,6.31,34.85,6.19a35.13,35.13,0,0,0,5.75-.61c-9.93-3-20-5.7-29.43-7.62-18.56-3.79-46.15-5-70.21-5.18C65.11,155.66,76.59,156.64,81.53,157Z"/><path class="cls-17" d="M209.51,184.66c-10.23,1.66-21.1.84-31.23.49-19.94-.7-40.38,2-60.19-.2-20.4-2.24-40-8.63-59.21-15.66-9.18-3.37-18.12-7.65-27.44-10.62C26.21,157,21,155.52,16.25,152.83l-1.05,0c-1,0-1.5.77-1.7,1.87-.06.37.64,1.17.94,1.36a28.45,28.45,0,0,0,1.31,7.51c-.34.08-.76.12-.43,1.52a5.57,5.57,0,0,0,.4,1.16l84.1,35.11,110-3.67C218,197.44,218,189.59,209.51,184.66Z"/><path class="cls-18" d="M102.38,199.19a3.22,3.22,0,0,1-1.26-.25L15.75,163.6a24.53,24.53,0,0,1-1.31-7.51L103,192.59l105.15-3.27a3.33,3.33,0,0,1,3.39,3.19,3.29,3.29,0,0,1-3.19,3.39l-105.86,3.29Z"/><rect class="cls-19" x="82.83" y="16.99" width="45.87" height="29.35"/><path class="cls-20" d="M135.64,20.8s-17.88-3.4-31.36-3.4-32.84,3.4-32.84,3.4V3.4S80.11,0,104.2,0s31.44,3.4,31.44,3.4Z"/><path class="cls-20" d="M145,15.69,103.54,39.76,62.12,15.69s-10.94,3.63-20,6.73S31.5,31.29,34.62,54.65s15.06,97,15.94,102.88,4.6,8.55,9.86,8.55h96.9c5.26,0,8-2.13,8.76-8.55s10.18-89.16,11.78-107.82-.34-24.27-8.68-27.08S145,15.69,145,15.69Z"/><path class="cls-21" d="M166,96.24c-7.86,22.65-19.74,52.55-47.49,55C92,153.59,68.53,141.34,54,119.4A200.85,200.85,0,0,1,40.87,96.32C45.19,124,50,153.85,50.56,157.53c.87,5.92,4.6,8.55,9.86,8.55h96.9c5.26,0,8-2.13,8.76-8.55.71-6.23,9.63-84.36,11.62-106A317,317,0,0,1,166,96.24Z"/><path class="cls-21" d="M151.06,147c-15.79,15.47-34.74,18.2-56.14,14.2-20.78-3.89-34.85-14.38-48.31-28.46,2.07,13,3.65,22.82,4,24.83.87,5.92,4.6,8.55,9.86,8.55h96.9c5.26,0,8-2.13,8.76-8.55.32-2.83,2.33-20.43,4.62-40.84C165.85,127.93,159.66,138.53,151.06,147Z"/><path class="cls-22" d="M110.44,56.53A2.55,2.55,0,1,1,107.9,54,2.55,2.55,0,0,1,110.44,56.53Z"/><path class="cls-22" d="M110.44,71.66a2.55,2.55,0,1,1-2.54-2.55A2.54,2.54,0,0,1,110.44,71.66Z"/><path class="cls-22" d="M110.44,86.78a2.55,2.55,0,1,1-2.54-2.55A2.55,2.55,0,0,1,110.44,86.78Z"/><path class="cls-22" d="M110.44,101.91a2.55,2.55,0,1,1-2.54-2.55A2.55,2.55,0,0,1,110.44,101.91Z"/><path class="cls-22" d="M110.44,117a2.55,2.55,0,1,1-2.54-2.55A2.54,2.54,0,0,1,110.44,117Z"/><path class="cls-22" d="M110.44,132.16a2.55,2.55,0,1,1-2.54-2.55A2.55,2.55,0,0,1,110.44,132.16Z"/><path class="cls-22" d="M110.44,147.29a2.55,2.55,0,1,1-2.54-2.55A2.54,2.54,0,0,1,110.44,147.29Z"/><polygon class="cls-23" points="103.54 39.76 71.44 3.4 62.12 15.69 81.71 50.15 103.54 39.76"/><polygon class="cls-23" points="103.54 39.76 135.64 3.4 144.97 15.69 125.37 50.15 103.54 39.76"/><g class="cls-24"><path class="cls-25" d="M111.54,41.34s.07,7.71.18,19.26c0,5.78.07,12.52.1,19.74s0,14.93,0,22.63,0,15.41,0,22.63-.07,14-.1,19.75c-.11,11.55-.18,19.26-.18,19.26s-.07-7.71-.18-19.26c0-5.78-.06-12.52-.1-19.75s0-14.92,0-22.63,0-15.4,0-22.63.07-14,.1-19.74C111.47,49.05,111.54,41.34,111.54,41.34Z"/></g><g class="cls-24"><path class="cls-25" d="M103.54,41.34s0,1.93.12,5.3.18,8.18.25,14,.17,12.52.2,19.74,0,14.93.08,22.63-.06,15.41-.08,22.63-.15,14-.2,19.75-.19,10.59-.24,14-.13,5.3-.13,5.3-.05-1.93-.13-5.3-.18-8.19-.24-14-.18-12.52-.2-19.75-.06-14.92-.09-22.63.06-15.4.09-22.63.14-14,.2-19.74.19-10.59.24-14S103.54,41.34,103.54,41.34Z"/></g><rect class="cls-19" x="128.69" y="90.88" width="31.07" height="7.08"/><polygon class="cls-26" points="146.94 81.52 135.93 90.88 152.53 90.88 146.94 81.52"/><rect class="cls-27" x="122.03" y="24.84" width="45.87" height="29.35"/><path class="cls-28" d="M174.84,28.65s-17.88-3.4-31.36-3.4-32.84,3.4-32.84,3.4V11.25s8.67-3.4,32.76-3.4,31.44,3.4,31.44,3.4Z"/><path class="cls-29" d="M184.17,23.54,142.74,47.6,101.32,23.54s-10.94,3.63-20,6.73S70.7,39.14,73.82,62.5s15.06,97,15.94,102.87,4.6,8.55,9.86,8.55h96.9c5.26,0,8-2.12,8.77-8.55s10.17-89.16,11.77-107.82-.34-24.26-8.68-27.08S184.17,23.54,184.17,23.54Z"/><path class="cls-21" d="M205.16,104.09c-7.86,22.65-19.74,52.54-47.49,55-26.44,2.34-49.94-9.91-64.48-31.85a199.17,199.17,0,0,1-13.12-23.08c4.32,27.68,9.14,57.53,9.69,61.21.87,5.92,4.6,8.55,9.86,8.55h96.9c5.26,0,8-2.12,8.77-8.55.71-6.23,9.62-84.35,11.61-106A315.59,315.59,0,0,1,205.16,104.09Z"/><path class="cls-21" d="M190.26,154.81c-15.78,15.47-34.74,18.2-56.14,14.2-20.78-3.89-34.85-14.39-48.3-28.47,2.07,13,3.64,22.83,3.94,24.83.87,5.92,4.6,8.55,9.86,8.55h96.9c5.26,0,8-2.12,8.77-8.55.32-2.82,2.33-20.42,4.61-40.83C205.05,135.77,198.86,146.37,190.26,154.81Z"/><path class="cls-22" d="M149.65,64.38a2.55,2.55,0,1,1-2.55-2.55A2.55,2.55,0,0,1,149.65,64.38Z"/><path class="cls-22" d="M149.65,79.5A2.55,2.55,0,1,1,147.1,77,2.55,2.55,0,0,1,149.65,79.5Z"/><path class="cls-22" d="M149.65,94.63a2.55,2.55,0,1,1-2.55-2.55A2.55,2.55,0,0,1,149.65,94.63Z"/><path class="cls-22" d="M149.65,109.76a2.55,2.55,0,1,1-2.55-2.55A2.55,2.55,0,0,1,149.65,109.76Z"/><path class="cls-22" d="M149.65,124.88a2.55,2.55,0,1,1-2.55-2.55A2.55,2.55,0,0,1,149.65,124.88Z"/><path class="cls-22" d="M149.65,140a2.55,2.55,0,1,1-2.55-2.55A2.55,2.55,0,0,1,149.65,140Z"/><path class="cls-22" d="M149.65,155.13a2.55,2.55,0,1,1-2.55-2.54A2.55,2.55,0,0,1,149.65,155.13Z"/><polygon class="cls-30" points="142.74 47.6 110.64 11.25 101.32 23.54 120.91 58 142.74 47.6"/><polygon class="cls-30" points="142.74 47.6 174.84 11.25 184.17 23.54 164.57 58 142.74 47.6"/><g class="cls-24"><path class="cls-25" d="M150.74,49.19s.08,7.7.19,19.26c0,5.78.06,12.52.09,19.74s0,14.93,0,22.63,0,15.41,0,22.63-.07,14-.1,19.74c-.11,11.56-.19,19.26-.19,19.26s-.07-7.7-.18-19.26c0-5.78-.06-12.52-.1-19.74s0-14.93,0-22.63,0-15.41,0-22.63.07-14,.1-19.74C150.67,56.89,150.74,49.19,150.74,49.19Z"/></g><g class="cls-24"><path class="cls-25" d="M142.74,49.19s0,1.92.13,5.29.18,8.19.24,14,.18,12.52.2,19.74.06,14.93.09,22.63-.06,15.41-.09,22.63-.15,14-.2,19.74-.19,10.6-.24,14-.13,5.29-.13,5.29-.05-1.92-.13-5.29-.18-8.19-.24-14-.18-12.52-.2-19.74-.06-14.93-.09-22.63.06-15.41.09-22.63.15-14,.2-19.74.19-10.59.24-14S142.74,49.19,142.74,49.19Z"/></g><rect class="cls-27" x="167.89" y="98.73" width="31.08" height="7.08"/><polygon class="cls-26" points="186.15 89.37 175.13 98.73 191.74 98.73 186.15 89.37"/><path class="cls-31" d="M259,184.47s1,7.28-6.75,7.28H214.63s-6,.05-5.84-6.86V150.06s-.25-8.76,4.07-13.16c11.09-11.29,16.15-27,16.19-42.55h20c.45,9.35,1.06,18.72,4.1,27.64,2.79,8.16,6.42,16.09,5.82,24.93Z"/><path class="cls-32" d="M259,157.43H208.79v27.46c-.12,6.91,5.84,6.86,5.84,6.86H252.2c7.72,0,6.75-7.28,6.75-7.28Z"/><rect class="cls-33" x="225.48" y="84.65" width="26.62" height="9.7"/><path class="cls-34" d="M249,73.45V84H230.13V75.2s1.23-9.1-6.61-10.72l-23.32-2V48h43.73l17.7,8.4V67.17Z"/><rect class="cls-32" x="200.6" y="48.01" width="7.43" height="14.45"/><path class="cls-35" d="M213.94,63.65c3.91,9-2,17.65-1.12,16.92,0,0,12.49-1.84,10.7-16.09Z"/><rect class="cls-35" x="248.63" y="133.08" width="2.66" height="52.85"/><path class="cls-36" d="M241.09,94.35h-12c0,15.59-5.1,31.26-16.19,42.55-4.32,4.4-4.07,13.16-4.07,13.16v34.83c-.12,6.91,5.84,6.86,5.84,6.86h26.46Z"/><path class="cls-36" d="M222.91,122.45a53.61,53.61,0,0,1-10,14.45c-4.32,4.4-4.07,13.16-4.07,13.16v34.83c-.12,6.91,5.84,6.86,5.84,6.86h8.28Z"/><path class="cls-37" d="M259,184.47s1,7.28-6.75,7.28H214.63s-6,.05-5.84-6.86V150.06s-.25-8.76,4.07-13.16c11.09-11.29,16.15-27,16.19-42.55h20c.45,9.35,1.06,18.72,4.1,27.64,2.79,8.16,5.89,14.14,5.82,24.93Z"/><path class="cls-34" d="M302.9,76.72V62.94a2.42,2.42,0,0,0-2.42-2.42H288.57a2.43,2.43,0,0,0-2.42,2.42V76.72Z"/><path class="cls-33" d="M307.59,88.38V80.55a3.82,3.82,0,0,0-3.83-3.83H285.29a3.82,3.82,0,0,0-3.83,3.83v7.83Z"/><path class="cls-38" d="M284.53,85.88a.5.5,0,0,1-.49.5h0a.5.5,0,0,1-.49-.5V79.21a.49.49,0,0,1,.49-.49h0a.49.49,0,0,1,.49.49Z"/><path class="cls-38" d="M286.44,85.88a.5.5,0,0,1-.5.5h0a.49.49,0,0,1-.48-.5V79.21a.48.48,0,0,1,.48-.49h0a.49.49,0,0,1,.5.49Z"/><path class="cls-38" d="M288.34,85.88a.49.49,0,0,1-.49.5h0a.5.5,0,0,1-.49-.5V79.21a.49.49,0,0,1,.49-.49h0a.48.48,0,0,1,.49.49Z"/><path class="cls-38" d="M290.25,85.88a.5.5,0,0,1-.49.5h0a.5.5,0,0,1-.49-.5V79.21a.49.49,0,0,1,.49-.49h0a.49.49,0,0,1,.49.49Z"/><path class="cls-38" d="M292.16,85.88a.5.5,0,0,1-.49.5h0a.51.51,0,0,1-.5-.5V79.21a.5.5,0,0,1,.5-.49h0a.49.49,0,0,1,.49.49Z"/><path class="cls-38" d="M294.07,85.88a.5.5,0,0,1-.5.5h0a.5.5,0,0,1-.49-.5V79.21a.49.49,0,0,1,.49-.49h0a.49.49,0,0,1,.5.49Z"/><path class="cls-38" d="M296,85.88a.5.5,0,0,1-.49.5h0a.5.5,0,0,1-.49-.5V79.21a.49.49,0,0,1,.49-.49h0a.49.49,0,0,1,.49.49Z"/><path class="cls-38" d="M297.88,85.88a.5.5,0,0,1-.49.5h0a.51.51,0,0,1-.5-.5V79.21a.5.5,0,0,1,.5-.49h0a.49.49,0,0,1,.49.49Z"/><path class="cls-38" d="M299.79,85.88a.5.5,0,0,1-.5.5h0a.5.5,0,0,1-.49-.5V79.21a.49.49,0,0,1,.49-.49h0a.49.49,0,0,1,.5.49Z"/><path class="cls-38" d="M301.69,85.88a.5.5,0,0,1-.49.5h0a.5.5,0,0,1-.49-.5V79.21a.49.49,0,0,1,.49-.49h0a.49.49,0,0,1,.49.49Z"/><path class="cls-38" d="M303.6,85.88a.5.5,0,0,1-.49.5h0a.5.5,0,0,1-.49-.5V79.21a.49.49,0,0,1,.49-.49h0a.49.49,0,0,1,.49.49Z"/><path class="cls-38" d="M305.51,85.88a.51.51,0,0,1-.5.5h0a.5.5,0,0,1-.49-.5V79.21a.49.49,0,0,1,.49-.49h0a.5.5,0,0,1,.5.49Z"/><path class="cls-39" d="M330.23,179.86c-.55-14.21,0-61,0-61s-1-24.64-22.64-30.47H281.46S269.65,93.81,269.74,114v68s-.58,13.61,11.72,13.06h39.2S330.77,194.07,330.23,179.86Zm-9.57-27.37H306.61s-3.41.65-3.5-5.61V103.06s-.05-7.41,4.48-7.07a23.24,23.24,0,0,1,16.1,21.22v29.67S325,152.51,320.66,152.49Z"/><g class="cls-40"><path class="cls-39" d="M328.27,188.6H289.06c-12.3.54-11.72-13.06-11.72-13.06v-68c0-9.09,2.35-15.17,5-19.12h-.86S269.65,93.81,269.74,114v68s-.58,13.61,11.72,13.06h39.2a10.76,10.76,0,0,0,8.18-6.54A5.2,5.2,0,0,1,328.27,188.6Z"/></g><path class="cls-37" d="M330.23,179.86c-.55-14.21,0-61,0-61s-1-24.64-22.64-30.47H281.46S269.65,93.81,269.74,114v68s-.58,13.61,11.72,13.06h39.2S330.77,194.07,330.23,179.86Zm-9.57-27.37H306.61s-3.41.65-3.5-5.61V103.06s-.05-7.41,4.48-7.07a23.24,23.24,0,0,1,16.1,21.22v29.67S325,152.51,320.66,152.49Z"/><path class="cls-41" d="M286.92,116.94c-7,2.45-5.66,10.46-5.66,10.46v44c0,6.94,5.66,8.57,5.66,8.57h29.7a7.15,7.15,0,0,0,6.94-5.71V156.94s-13.88.41-20.45,0-5.72-6.53-5.72-6.53V116.94Z"/><path class="cls-35" d="M328.46,149.6H326V117.05c-2.71-15.25-10.63-19-10.71-19l1-2.24c.38.17,9.22,4.31,12.14,20.91l0,.21Z"/><path class="cls-35" d="M299.09,95.82c-4.35.38-4.65.68-5,5-.38-4.34-.68-4.64-5-5,4.34-.37,4.64-.68,5-5C294.44,95.14,294.74,95.45,299.09,95.82Z"/><path class="cls-35" d="M287.14,116.94c-5.17.45-5.53.81-6,6-.45-5.17-.81-5.53-6-6,5.17-.44,5.53-.81,6-6C281.61,116.13,282,116.5,287.14,116.94Z"/><path class="cls-42" d="M268.36,141.61c-1.81-4.72,1-6.08,3.71-8.92,2.36-2.43,1.54-7.51-.39-10-4.74-6.16-12.67-12.35-12.67-12.35H246.46s-7.93,6.19-12.67,12.35c-1.93,2.51-2.75,7.59-.39,10,2.75,2.84,5.52,4.2,3.71,8.92,0,0-18.48,23.68-16.11,71.51,0,0-1.89,11.84,8.06,12.79h47.35c9.95-.95,8.06-12.79,8.06-12.79C286.83,165.29,268.36,141.61,268.36,141.61Z"/><g class="cls-24"><path class="cls-25" d="M284.66,213.59c-7.86,5.39-18.67,6.57-28,6.47-7-.08-16.26,1.44-21.93-3.77-5.21-4.79-6.55-12.72-6.48-19.37a99.32,99.32,0,0,1,3.35-24.68,127.49,127.49,0,0,1,10.5-27.33c2.15-4,5.56-8.33,2.65-12.85-2.16-3.34-5.66-4.66-4.45-9.31,1.48-5.69,6.14-9.89,11.42-12.43h-5.29s-7.93,6.19-12.67,12.35c-1.93,2.51-2.75,7.59-.39,10,2.75,2.84,5.52,4.2,3.71,8.92,0,0-18.48,23.68-16.11,71.51,0,0-1.89,11.84,8.06,12.79h47.35c4.65,0,4.81-1.81,6.71-4.09C284.8,219.82,284.65,216.05,284.66,213.59Z"/></g><path class="cls-37" d="M268.36,141.61c-1.81-4.72,1-6.08,3.71-8.92,2.36-2.43,1.54-7.51-.39-10-4.74-6.16-12.67-12.35-12.67-12.35H246.46s-7.93,6.19-12.67,12.35c-1.93,2.51-2.75,7.59-.39,10,2.75,2.84,5.52,4.2,3.71,8.92,0,0-18.48,23.68-16.11,71.51,0,0-1.89,11.84,8.06,12.79h47.35c9.95-.95,8.06-12.79,8.06-12.79C286.83,165.29,268.36,141.61,268.36,141.61Z"/><path class="cls-41" d="M271.74,195.3c0,13.64-8.51,17.94-19,17.94s-19-4.3-19-17.94,8.51-35,19-35S271.74,181.67,271.74,195.3Z"/><rect class="cls-43" x="246.34" y="104.55" width="12.67" height="5.76"/><path class="cls-33" d="M257.18,98.48,254.78,95h-4.09l-2.4,3.51a5.9,5.9,0,0,0-1.35,3.18v2.89h11.59v-2.89A5.9,5.9,0,0,0,257.18,98.48Z"/><path class="cls-35" d="M279.67,209.15l-2.45-.05c.53-26.6-6.54-43.41-6.61-43.58l2.25-1C273.16,165.25,280.21,182,279.67,209.15Z"/><path class="cls-35" d="M260.71,129.64c-6.95.59-7.44,1.08-8,8-.6-6.94-1.09-7.43-8-8,6.94-.6,7.43-1.09,8-8C253.27,128.55,253.76,129,260.71,129.64Z"/><path class="cls-35" d="M274.34,152.56c-4.34.37-4.65.67-5,5-.37-4.35-.68-4.65-5-5,4.34-.38,4.65-.68,5-5C269.69,151.88,270,152.18,274.34,152.56Z"/><rect class="cls-44" x="326.91" y="108.33" width="24.22" height="9.8"/><rect class="cls-45" x="328.75" y="104.39" width="20.14" height="3.94"/><path class="cls-34" d="M346.18,104.66V90.89a2.41,2.41,0,0,0-2.41-2.42h-9.5a2.41,2.41,0,0,0-2.41,2.42v13.77Z"/><path class="cls-34" d="M349,118.13H329S299.09,147,308.34,211.2c0,0,1.09,5.17,6,5.44h49.38c4.9-.27,6-5.44,6-5.44C379,147,349,118.13,349,118.13Zm7.53,50.56a8.81,8.81,0,0,1-11-5.78l-5.59-17.86a8.81,8.81,0,1,1,16.81-5.26l5.59,17.86A8.82,8.82,0,0,1,356.55,168.69Z"/><g class="cls-24"><path class="cls-22" d="M353.86,209.57H318.68c-4.9-.27-6-5.45-6-5.45-6.63-46.05,11.34-73.91,22-86H329S299.09,147,308.34,211.2c0,0,1.09,5.17,6,5.44h49.38c4.9-.27,6-5.44,6-5.44.08-.55.15-1.09.22-1.63Z"/></g><path class="cls-41" d="M325.07,142.07a136.42,136.42,0,0,0-7.36,51.28s.18,11.74,9.38,11.74h29s6.67-.56,7.24-10c0,0,1.37-13.37-2.17-23.24-1.44,1.24-5.11,2.07-5.11,2.07s-10.41,3.72-14.13-7.63c0,0-7.18-24.07-7.25-24.27C332.29,135.19,327.59,136.68,325.07,142.07Z"/><path class="cls-37" d="M349,118.13H329S299.09,147,308.34,211.2c0,0,1.09,5.17,6,5.44h49.38c4.9-.27,6-5.44,6-5.44C379,147,349,118.13,349,118.13Zm7.53,50.56a8.81,8.81,0,0,1-11-5.78l-5.59-17.86a8.81,8.81,0,1,1,16.81-5.26l5.59,17.86A8.82,8.82,0,0,1,356.55,168.69Z"/><path class="cls-35" d="M367,205.25l-2.43-.32c2.76-21.26-.93-36.07-1-36.22l2.38-.61C366.14,168.72,369.83,183.48,367,205.25Z"/><path class="cls-35" d="M345.56,127.79c-4.34.38-4.64.68-5,5-.38-4.34-.68-4.64-5-5,4.35-.37,4.65-.68,5-5C340.92,127.11,341.22,127.42,345.56,127.79Z"/><path class="cls-35" d="M327.6,147.37c-4.34.38-4.65.68-5,5-.38-4.34-.68-4.64-5-5,4.34-.37,4.64-.68,5-5C323,146.69,323.26,147,327.6,147.37Z"/><path class="cls-46" d="M307.92,149.88H201.55l10.5,83.52s.66,16.2,19,17h118.2c18.38-.85,19-17,19-17l10.51-83.52Zm-74.3,84.48a4.8,4.8,0,1,1-9.59,0V208.15a4.8,4.8,0,0,1,9.59,0Zm0-42.19a4.8,4.8,0,1,1-9.59,0V166a4.8,4.8,0,0,1,9.59,0Zm20.46,42.19a4.8,4.8,0,1,1-9.59,0V208.15a4.8,4.8,0,0,1,9.59,0Zm0-42.19a4.8,4.8,0,1,1-9.59,0V166a4.8,4.8,0,0,1,9.59,0Zm20.45,42.19a4.8,4.8,0,1,1-9.59,0V208.15a4.8,4.8,0,0,1,9.59,0Zm0-42.19a4.8,4.8,0,1,1-9.59,0V166a4.8,4.8,0,0,1,9.59,0ZM295,234.36a4.8,4.8,0,1,1-9.59,0V208.15a4.8,4.8,0,0,1,9.59,0Zm0-42.19a4.8,4.8,0,1,1-9.59,0V166a4.8,4.8,0,0,1,9.59,0Zm20.45,42.19a4.8,4.8,0,1,1-9.59,0V208.15a4.8,4.8,0,0,1,9.59,0Zm0-42.19a4.8,4.8,0,1,1-9.59,0V166a4.8,4.8,0,0,1,9.59,0Zm20.46,42.19a4.8,4.8,0,1,1-9.59,0V208.15a4.8,4.8,0,0,1,9.59,0Zm0-42.19a4.8,4.8,0,1,1-9.59,0V166a4.8,4.8,0,0,1,9.59,0Zm20.45,42.19a4.8,4.8,0,1,1-9.59,0V208.15a4.8,4.8,0,0,1,9.59,0Zm0-42.19a4.8,4.8,0,1,1-9.59,0V166a4.8,4.8,0,0,1,9.59,0Z"/><path class="cls-47" d="M385.76,147.6a2.29,2.29,0,0,1-2.28,2.28H196.9a2.29,2.29,0,0,1-2.28-2.28h0a2.28,2.28,0,0,1,2.28-2.28H383.48a2.28,2.28,0,0,1,2.28,2.28Z"/><path class="cls-48" d="M387.35,139.23a6.09,6.09,0,0,1-6.09,6.09H199.12a6.09,6.09,0,0,1-6.09-6.09h0a6.09,6.09,0,0,1,6.09-6.09H381.26a6.09,6.09,0,0,1,6.09,6.09Z"/><path class="cls-2" d="M356.21,245.89H238c-18.38-.85-19-17-19-17l-9.93-79h-7.5l10.5,83.52s.66,16.2,19,17h118.2c7-.33,11.46-2.9,14.26-5.95A24.32,24.32,0,0,1,356.21,245.89Z"/><path class="cls-37" d="M307.92,149.88H201.55l10.5,83.52s.66,16.2,19,17h118.2c18.38-.85,19-17,19-17l10.51-83.52Zm-74.3,84.48a4.8,4.8,0,1,1-9.59,0V208.15a4.8,4.8,0,0,1,9.59,0Zm0-42.19a4.8,4.8,0,1,1-9.59,0V166a4.8,4.8,0,0,1,9.59,0Zm20.46,42.19a4.8,4.8,0,1,1-9.59,0V208.15a4.8,4.8,0,0,1,9.59,0Zm0-42.19a4.8,4.8,0,1,1-9.59,0V166a4.8,4.8,0,0,1,9.59,0Zm20.45,42.19a4.8,4.8,0,1,1-9.59,0V208.15a4.8,4.8,0,0,1,9.59,0Zm0-42.19a4.8,4.8,0,1,1-9.59,0V166a4.8,4.8,0,0,1,9.59,0ZM295,234.36a4.8,4.8,0,1,1-9.59,0V208.15a4.8,4.8,0,0,1,9.59,0Zm0-42.19a4.8,4.8,0,1,1-9.59,0V166a4.8,4.8,0,0,1,9.59,0Zm20.45,42.19a4.8,4.8,0,1,1-9.59,0V208.15a4.8,4.8,0,0,1,9.59,0Zm0-42.19a4.8,4.8,0,1,1-9.59,0V166a4.8,4.8,0,0,1,9.59,0Zm20.46,42.19a4.8,4.8,0,1,1-9.59,0V208.15a4.8,4.8,0,0,1,9.59,0Zm0-42.19a4.8,4.8,0,1,1-9.59,0V166a4.8,4.8,0,0,1,9.59,0Zm20.45,42.19a4.8,4.8,0,1,1-9.59,0V208.15a4.8,4.8,0,0,1,9.59,0Zm0-42.19a4.8,4.8,0,1,1-9.59,0V166a4.8,4.8,0,0,1,9.59,0Z"/><path class="cls-37" d="M385.76,147.6a2.29,2.29,0,0,1-2.28,2.28H196.9a2.29,2.29,0,0,1-2.28-2.28h0a2.28,2.28,0,0,1,2.28-2.28H383.48a2.28,2.28,0,0,1,2.28,2.28Z"/><path class="cls-37" d="M387.35,139.23a6.09,6.09,0,0,1-6.09,6.09H199.12a6.09,6.09,0,0,1-6.09-6.09h0a6.09,6.09,0,0,1,6.09-6.09H381.26a6.09,6.09,0,0,1,6.09,6.09Z"/><rect class="cls-35" x="328.23" y="195.9" width="75.05" height="3.52" transform="translate(128.84 539.31) rotate(-83.65)"/><path class="cls-49" d="M250,194.05h-7.9v-4.86H250a3.27,3.27,0,0,1,.88,2.64C250.77,193.66,250,194.05,250,194.05Z"/><rect class="cls-25" x="102.18" y="254.93" width="110.9" height="5.83"/><path class="cls-50" d="M216.42,261.12c0,.91-1.09,1.64-2.44,1.64H101.59c-1.35,0-2.45-.73-2.45-1.64h0c0-.9,1.1-1.64,2.45-1.64H214c1.35,0,2.44.74,2.44,1.64Z"/><path class="cls-51" d="M244.58,195a13.52,13.52,0,0,1-.72-4.91c.12-2.32-.19-4.74-2.74-5.66s-49.71-10.37-81,3.16c-29.26,12.65-40.31,24.28-46.62,32.15s-12.91,25.57-14.33,30.07-1.33,6.22,3,6.22H212.35c10.35,0,10.38-4.21,26.23-8.22,12.24-3.1,19.2-2.33,19.11-4.37A98.58,98.58,0,0,0,244.58,195Zm-15.69,9.14c-1.57,4.57-6.59,7-11.31,6a92,92,0,0,0-39.78,0c-4.71,1-9.73-1.4-11.31-6s1.75-9.83,7.55-11.11a109.73,109.73,0,0,1,47.31,0C227.15,194.33,230.47,199.6,228.89,204.16Z"/><path class="cls-29" d="M189.41,248.56c-14.86,2-84,4-90.15.92,0,.11-.09.25-.12.35-1.42,4.51-1.33,6.22,3,6.22H212.35c10.35,0,10.38-4.21,26.23-8.22,12.24-3.1,19.2-2.33,19.11-4.37,0-.81-.05-2.22-.14-4.1C235.12,239.36,211.26,245.62,189.41,248.56Z"/><path class="cls-29" d="M115.42,243.35c4.7-2.51,9.4-5.77,12.76-10,5.15-6.48,8.61-14,14.1-20.25,10.87-12.4,24.44-21.51,40.92-24.27,13.36-2.23,33.44-3.8,45,5,4.71,3.6,8.84,9.83,11,15.26,1.38,3.39,2.35,7.29,4.53,10.29a12.53,12.53,0,0,0,11.86,4.55,95.38,95.38,0,0,0-11-28.91,13.52,13.52,0,0,1-.72-4.91c.12-2.32-.19-4.74-2.74-5.66s-49.71-10.37-81,3.16c-29.26,12.65-40.31,24.28-46.62,32.15-5,6.24-10.2,18.68-12.83,25.8C105.69,245.71,110.9,245.77,115.42,243.35Z"/><path class="cls-52" d="M134.12,206.6c1.62,1.42-2,4.68-6.34,5.28-3.25.44-4.17-1.12-4.17-1.95s1.86-1.07,4.17-1.07S132.88,205.52,134.12,206.6Z"/><path class="cls-51" d="M133.38,206.83a7.19,7.19,0,0,1-5.06,3.41c-3.55.54-3.28-.74-3.28-.74v-7.65h8.34Z"/><path class="cls-53" d="M131.63,201.85a9.62,9.62,0,0,1-.92,4.93,6.29,6.29,0,0,1-5.35,3.3c.39.25,1.21.42,3,.16a7.19,7.19,0,0,0,5.06-3.41v-5Z"/><path class="cls-52" d="M133.38,201.85c0,.83-1.86,1.51-4.17,1.51s-4.17-.68-4.17-1.51,1.87-1.51,4.17-1.51S133.38,201,133.38,201.85Z"/><path class="cls-54" d="M152.47,195.55s-4.08,5.18-9.15,6-5.18-2.76-5.18-2.76V194L152,189.65Z"/><path class="cls-55" d="M152,189.65c0,1.19-4.14,4.56-8.38,6.13-3.08,1.14-5.51-.58-5.51-1.77s2.49-2.24,6.45-4.36C147.49,188.1,152,188.47,152,189.65Z"/><path class="cls-52" d="M210.71,210.22c0,2.26-6.07,4.1-13.57,4.1s-13.56-1.84-13.56-4.1v-3.83s7.48-.28,13.56-.28,13.57.28,13.57.28Z"/><path class="cls-51" d="M210.71,206.39c0,2.26-6.07,4.1-13.57,4.1s-13.56-1.84-13.56-4.1,6.07-4.11,13.56-4.11S210.71,204.12,210.71,206.39Z"/><polygon class="cls-56" points="197.54 200.48 185.58 204.49 185.58 205.81 186.32 206.39 197.54 205.81 198.28 201.05 197.54 200.48"/><polygon class="cls-52" points="198.28 201.05 186.32 205.07 186.32 206.39 198.28 206.39 198.28 201.05"/></g></g></g></svg>