<svg xmlns="http://www.w3.org/2000/svg" width="303.458" height="258.342" viewBox="0 0 303.458 258.342"><path d="M1577.766,1012.9l-.044-.087A.09.09,0,0,0,1577.766,1012.9Z" transform="translate(-1447.858 -985.173)" fill="#680444"/><path d="M1577.874,1013.007a.154.154,0,0,1-.066-.023C1577.869,1013.108,1577.874,1013.1,1577.874,1013.007Z" transform="translate(-1447.901 -985.256)" fill="#680444"/><path d="M1689.662,1142.72l-.22.22Z" transform="translate(-1503.353 -1049.7)" fill="#680444"/><path d="M1622.082,1096.77a1.963,1.963,0,0,0-.775-.551,15.135,15.135,0,0,0-2.2-3.859c-1.212-1.652-2.427-3.308-3.639-5.07a25.056,25.056,0,0,0-1.542-1.986c0-.11-.33-.44-.44-.661-.441-.551-1-1.211-1.436-1.873-1.212-1.656-2.313-3.418-3.3-5.074a51.186,51.186,0,0,1-2.537-4.96,1.175,1.175,0,0,1-.22-.661,2.216,2.216,0,0,1-.44-.881c-.331-1.1-.661-2.1-1-3.088a51.713,51.713,0,0,1-1.322-5.621v-.331a7.274,7.274,0,0,1-.111-1.546c-.11-1.1-.11-2.2-.22-3.3-.44-14.885.551-29.991-2.647-44.652-3.415-14.886-12.458-28.665-26.238-35.722-12.348-6.282-27.233-7.388-40.572-3.749a49.641,49.641,0,0,0-13.89,6.4,27.034,27.034,0,0,0-4.96,3.859c-3.088,1.322-5.515,3.859-7.718,6.392a48.9,48.9,0,0,0-6.506,10.035,82.111,82.111,0,0,0-7.277,22.6,129.753,129.753,0,0,0-1.542,29.216c.44,10.035,1.652,20.066,1.877,30.211,0,1.1,0,2.314-.114,3.525a5.394,5.394,0,0,1-.11,1.326c.11-.551-.22,1.212-.22,1.432-.22,1.1-.551,2.207-.881,3.308-.11.331-.22.771-.33,1.1.11-.44-.551,1.1-.661,1.322-.551,1-1.1,1.986-1.656,2.868-.106.11-.106.11-.22.22,0,0-.107.11-.22.22a20.407,20.407,0,0,1-1.432,1.546c-.881.992-1.982,1.762-2.868,2.644a7.487,7.487,0,0,0-2.644,5.295,4.075,4.075,0,0,0,2.093,3.525,7.225,7.225,0,0,0,6.726-.11,34.81,34.81,0,0,0,6.062-1.1c1.105-.33,2.207-.661,3.308-1.1a24.24,24.24,0,0,0-6.282,3.748,20.545,20.545,0,0,0-4.85,5.4,15.293,15.293,0,0,0-.885,1.432,38.967,38.967,0,0,0-4.19-3.3c-6.723-4.854-14.661-7.608-22.6-9.484-2.537-.551-5.074-.991-7.607-1.432a12.9,12.9,0,0,1-1.986-.44,10.911,10.911,0,0,1-1.873-.22h-.11c-.22,0-.441-.11-.661-.11-.11-.991-.22-1.986-.33-2.978-.11-.551-.22-.991-.331-1.542,0-.11-.114-1-.114-1.326-.107-.992-.22-1.873-.327-2.864-.114-.885-.224-1.656-.334-2.537v-.22c0-.11-.11-.551-.11-.771v-.441a65.622,65.622,0,0,0,24.035-22.6,55.151,55.151,0,0,0,7.828-20.617c1.436-8.819.661-17.309-1.1-25.908A97.024,97.024,0,0,0,1469.054,996a109.86,109.86,0,0,0-6.612-10.916,36.1,36.1,0,0,0-5.511-8.269,62.129,62.129,0,0,0-8.048-8.93,35.856,35.856,0,0,0-11.247-6.836,46.646,46.646,0,0,0-10.141-2.314,63.423,63.423,0,0,0-23.7.551c-8.158,1.873-14.885,6.943-20.4,13.009-.771.771-1.546,1.542-2.317,2.427a40.538,40.538,0,0,0-4.3,4.41,74.743,74.743,0,0,0-16.648,32.079,73.111,73.111,0,0,0,4.079,48.18,68.235,68.235,0,0,0,13.56,19.515,76.909,76.909,0,0,0,8.933,7.938q2.479,1.983,5.291,3.969a1.519,1.519,0,0,0,.441.331v.11a33.183,33.183,0,0,0-.11,5.732c.11,2.757.11,5.4,0,8.158a35.462,35.462,0,0,0-4.74.771,62.757,62.757,0,0,0-10.916,3.308,92.5,92.5,0,0,0-21.938,12.678,95.327,95.327,0,0,0-29,37.264,75.567,75.567,0,0,0-5.183,18.964c-.883,6.616-1.874,14.55,1.324,20.727a4.3,4.3,0,0,0,4.85,1.873,32.4,32.4,0,0,0,7.607,3.748c6.063,2.317,12.569,3.419,18.852,4.85a288.442,288.442,0,0,0,30.76,4.964c9.921.991,20.066,1.322,30.1,1.652,18.3.661,36.493.33,54.573-2.978a179.76,179.76,0,0,0,24.916-6.392c4.193-1.436,8.273-3.088,12.237-4.85a67.652,67.652,0,0,0,10.806-5.735,14.26,14.26,0,0,0,3.088.881c2.423.664,4.96,1.215,7.388,1.656a137.955,137.955,0,0,0,15.1,1.873,111.984,111.984,0,0,0,52.81-9.921c7.388-3.308,15.106-7.5,20.4-13.67a11.343,11.343,0,0,0,1.766-2.207,4.721,4.721,0,0,0,1.762-2.648c.11-.661.22-1.322.331-2.093a4.679,4.679,0,0,0,.22-1.211,4.542,4.542,0,0,1,.11-1.215,40.181,40.181,0,0,0-.11-7.277,131.767,131.767,0,0,0-1.762-14.771,71.278,71.278,0,0,0-8.158-22.6,49.012,49.012,0,0,0-7.5-9.591c-.881-.771-1.766-1.652-2.647-2.313v-.22c-.22-1.436-.22-1.766-.11-.995a2.412,2.412,0,0,0-.111-.881v-2.317c0-.881.111-1.652.111-2.533a81.964,81.964,0,0,0,8.819.771,65.2,65.2,0,0,0,9.264-.441,7.865,7.865,0,0,0,4.189-1.652c.11-.11.11-.224.22-.224l.11-.106a4.7,4.7,0,0,0,1.1-1.877A3.689,3.689,0,0,0,1622.082,1096.77Zm-30.654-30.1a51.781,51.781,0,0,0,3.088,9.921,8.21,8.21,0,0,1-1.322-.771,32.611,32.611,0,0,0-4.41-2.093,73.821,73.821,0,0,0,2.533-7.938A2.424,2.424,0,0,1,1591.428,1066.675Zm-1.761-16.648a2.828,2.828,0,0,0,.22-2.317c-1.1-2.974-4.079-3.749-6.727-4.96a2.387,2.387,0,0,0-.551-.33c1.542.661,2.978,1.322,4.519,1.982,1,.44,1.986.774,2.978,1.215h.22c.11,2.2.11,4.3.11,6.5C1590.22,1051.461,1589.888,1050.686,1589.667,1050.027Zm-45.863,85.887c-.665-1.546-1.436-3.088-2.1-4.52a23.172,23.172,0,0,0-2.867-5.735c1.656-1.322,3.308-2.533,4.964-3.749,1.1-.661,2.093-1.322,3.194-1.982.664-.441,1.436-.771,2.207-1.326.551.774.991,1.546,1.542,2.317,1.766,2.207,3.528,4.41,5.295,6.506.33.441.661.771.991,1.212q-.661,1.322-1.322,2.647a24.773,24.773,0,0,1-1.986,3.745,11.5,11.5,0,0,0-2.754,0c-1.105.11-2.207.11-3.419.22A14.618,14.618,0,0,0,1543.8,1135.914Zm-18.193,6.829q0-.165-.33-.33a1.569,1.569,0,0,0-.661-.22,4.6,4.6,0,0,0-1.1-.44.984.984,0,0,0-1.436.33c0,.11-.11.331-.11.441a47.993,47.993,0,0,1-4.96-7.938,16.558,16.558,0,0,1-1.212-2.423c1.322.441,2.757.771,4.19,1.211.44.111.991.22,1.542.331.22,2.757,4.079,4.189,6.286,2.1,2.314-2.207,4.63-4.41,6.943-6.507a42.706,42.706,0,0,0,1.326,4.41,49.011,49.011,0,0,0,2.974,7.938c-.991,2.207-1.762,4.519-2.533,6.726-.551,1.542-1.1,2.974-1.766,4.41-.22.661-.441,1.322-.661,1.873-.11.22-.11.33-.22.44a7.115,7.115,0,0,1-.991-.881,88.721,88.721,0,0,1-9.921-10.471c.881.33,1.983.771,2.644,0A.622.622,0,0,0,1525.611,1142.744Zm-21.716-52.365a38.013,38.013,0,0,0,.551-4.964c3.088,2.1,6.176,4.3,9.26,6.286,1.767,1.1,3.419,2.2,5.185,3.088,1.652.992,3.749,2.423,5.732,2.313a1.057,1.057,0,0,0,.661-1.762,6.287,6.287,0,0,0-.881-.771,2.294,2.294,0,0,1,.661.441,7.719,7.719,0,0,0,3.638,1.322v1.762a24.617,24.617,0,0,0,.22,3.969c-.881.11-1.762.33-2.644.444-.114,0-1,.11-1,.11a.826.826,0,0,0-.551.11c-.881-.44-1.652-.885-2.533-1.326a63.073,63.073,0,0,1-6.616-3.748C1511.61,1095.23,1507.861,1092.694,1503.9,1090.379Zm-1.324,5.511-.22.22c.22-.551.33-1.1.551-1.652a13.5,13.5,0,0,0,.551-1.986c.991.661,1.982,1.322,3.088,1.986A5.228,5.228,0,0,0,1502.571,1095.89Zm1.434-24.7a.108.108,0,0,1-.11-.11c-.11-.991-.22-2.1-.33-3.088a27.139,27.139,0,0,0-.22-2.978c.551.22,1.1.555,1.652.774.11.11.22.11.33.22a45.824,45.824,0,0,0,2.317,7.5C1506.431,1072.734,1505.214,1071.964,1504.006,1071.194Zm5.4,6.729c.11.111.334.22.44.331a50.77,50.77,0,0,0,6.837,9.811,34.914,34.914,0,0,0,5.621,5.07,14.7,14.7,0,0,0,1.656,1.1c-1.212-.661-2.537-1.1-3.639-1.652-1.877-.991-3.529-1.982-5.291-3.088-3.529-2.2-6.947-4.63-10.475-6.943a66.313,66.313,0,0,0-.44-8.158C1505.989,1075.492,1507.644,1076.705,1509.406,1077.923Zm1.656,26.789a18.475,18.475,0,0,0,.22-6.5,1.566,1.566,0,0,0-.22-.665c1.1.771,2.2,1.436,3.3,2.207,1.877,1.211,3.859,2.423,5.845,3.528a81.825,81.825,0,0,0-9.04,1.873C1511.172,1104.49,1511.283,1103.61,1511.062,1104.712Zm1.54,11.464a104.36,104.36,0,0,1,13.009-2.757c-.22.991-.44,2.1-.661,2.978-.22,1.1-.441,2.314-.661,3.419a6.541,6.541,0,0,0-2.868-.771,31.285,31.285,0,0,1-3.418-.775c-2.423-.551-4.74-1.1-7.163-1.542h-.33A14.229,14.229,0,0,0,1512.6,1116.176Zm4.741,4.409c1.986.44,4.74,1.322,6.727.551-.331,1.432-.551,2.757-.771,4.189-1.215-.33-2.427-.551-3.639-.881-2.757-.771-5.515-1.656-8.158-2.427-.33-.991-.551-1.873-.881-2.864C1512.934,1119.593,1515.138,1120.036,1517.342,1120.585Zm1.766,5.843c.991.33,2.423.775,3.748,1.1-.334,1.432-.661,2.754-.995,4.079-.661-.111-1.322-.331-1.873-.445a36.156,36.156,0,0,0-5.181-.991c-.991-1.982-1.766-3.969-2.537-5.952C1514.479,1125,1516.794,1125.768,1519.109,1126.428Zm38.143-24.806c0,.33.11.664.11.885a18.087,18.087,0,0,0-2.647-.885c-1.873-.771-3.859-1.432-5.841-2.2a66.031,66.031,0,0,1-9.15-4.85v-.555a46.225,46.225,0,0,0,7.718,1.986,31.864,31.864,0,0,0,9.7.22A18.057,18.057,0,0,0,1557.251,1101.622Zm-17.413-3.971v-.22a65,65,0,0,0,7.607,4.52,55.617,55.617,0,0,0,5.4,2.317,11.737,11.737,0,0,0,4.41.991,4.833,4.833,0,0,0-.771.661s-.44.33-.551.444a18.4,18.4,0,0,1-2.427,1.542,6.081,6.081,0,0,0-2.427-1.1,16.538,16.538,0,0,1-3.859-1.436,56.421,56.421,0,0,1-6.723-3.638c0-.11-.11-.331-.11-.441a6.2,6.2,0,0,1-.44-1.322v-.661A8.323,8.323,0,0,1,1539.838,1097.651Zm.659,6.618a65.735,65.735,0,0,0,6.062,3.418,33.177,33.177,0,0,0,3.308,1.432c-.22.11-.551.11-.881.22h-.22a4.13,4.13,0,0,0-1.1.11,14.806,14.806,0,0,1-2.207-.11,12.225,12.225,0,0,1-3.418-.771,14.945,14.945,0,0,1-3.2-1.652v-.11A6.794,6.794,0,0,0,1540.5,1104.269Zm-.443,10.694c-2.1,1.432-4.189,3.084-6.176,4.74-1.1.991-2.2,1.873-3.3,2.864.107-1.212.33-2.423.441-3.639.11-1.652.44-3.3.551-5.07a8.322,8.322,0,0,1,.11-1.652,4.766,4.766,0,0,1,.551-.11,27.314,27.314,0,0,0,2.647-1.1,21.991,21.991,0,0,0,3.084,2.644A8.5,8.5,0,0,0,1540.055,1114.963Zm15.656,1.545-.661-.661a19.539,19.539,0,0,0,5.841-2.978c.11.22.22.551.33.771q1.652,3.476,3.308,6.947a48.848,48.848,0,0,1,1.983,6.062c-.441-.331-.771-.661-1.212-.991-.11-.11-.22-.331-.44-.551a6.1,6.1,0,0,0-.881-.661c-.775-.771-1.656-1.542-2.537-2.427C1559.571,1120.147,1557.694,1118.27,1555.711,1116.508Zm5.732,19.512a11.087,11.087,0,0,0,1.212-1.877,37.691,37.691,0,0,0,6.066,4.3,4.451,4.451,0,0,0,5.621-1.322h.111a.788.788,0,0,0,.551-.991c0-.11-.11-.22-.11-.33a30.28,30.28,0,0,0-.551-11.357,1.56,1.56,0,0,0,.661.22c1.215.551,2.757,1.542,4.189,1.211a.823.823,0,0,0,.441-.991c-.22-1.322-2.093-1.877-3.195-2.317-.664-.331-1.436-.551-2.1-.881a2.036,2.036,0,0,1-.771-.22,24.908,24.908,0,0,0-.881-2.643c-.331-.775-.661-1.436-1-2.207,1,.44,2.1.771,3.088,1.1,1.326.44,2.757.771,4.079,1.211.991.334,2.207.885,3.2.224a.573.573,0,0,0,.331-.775c-.441-1.982-3.969-2.313-5.511-2.754a19.524,19.524,0,0,1-6.066-1.986c.881.11,1.656.22,2.427.33a74,74,0,0,1,9.811,2.1,3.208,3.208,0,0,0-.22.991,52.126,52.126,0,0,1-1.542,5.952,83.007,83.007,0,0,1-4.85,11.136,66.492,66.492,0,0,1-12.9,16.868c-.661-1.652-1.322-3.194-1.873-4.41-.771-1.652-1.652-3.308-2.427-4.96-.33-.661-.661-1.322-1.1-2.1A16.668,16.668,0,0,0,1561.443,1136.02Zm5.954-36.27a11.247,11.247,0,0,0,2.977-1.212c2.317,1.432,4.63,2.864,7.057,4.189a8.345,8.345,0,0,0-1.656-.11c-1.982-.224-4.079-.33-6.172-.444a8.92,8.92,0,0,0-1.766-.11c-.106-.661-.22-1.322-.327-1.982C1567.508,1099.971,1567.4,1099.86,1567.4,1099.75Zm12.018.77c-2.2-1.1-4.41-2.427-6.613-3.528.22-.22.44-.331.661-.551a22.75,22.75,0,0,0,3.529-2.978,62.359,62.359,0,0,0,8.048,4.3,31.92,31.92,0,0,0,4.52,1.876c-.11,1.873-.331,3.639-.441,5.4a.108.108,0,0,1-.11-.11c0-.11-.11-.11-.22-.22-1.105-1.212-2.978-1.432-4.414-1.983A25.526,25.526,0,0,1,1579.415,1100.52Zm-3.528-27.785a5.188,5.188,0,0,0-.334.775c0,.106-.331.771-.331.881l-1.322,2.644a36.661,36.661,0,0,1-2.978,4.964,3.472,3.472,0,0,1-.551.661,9.84,9.84,0,0,1-.991,1.1,11.675,11.675,0,0,1-2.1,1.983,4.675,4.675,0,0,1-.771.555,6.078,6.078,0,0,1-.991.771,31.425,31.425,0,0,0-4.079,2.533c-.11.111-.33.22-.44.331a4.668,4.668,0,0,0-1.873,1.105,26.039,26.039,0,0,1-9.7.881,62.275,62.275,0,0,1-11.026-1.986,4.986,4.986,0,0,0-2.754-1.762,17.153,17.153,0,0,1-1.876-.551,12.1,12.1,0,0,0-2.093-1.876c-.881-.661-1.876-1.1-2.757-1.762-.441-.22-.771-.551-1.212-.771.551.33-.551-.551-.661-.551-.771-.661-1.436-1.436-2.1-2.1l-1.983-2.313a7.841,7.841,0,0,1-.885-1.105l-.331-.441a48.881,48.881,0,0,1-3.194-5.07c-.44-.881-.885-1.762-1.326-2.757a6.451,6.451,0,0,0-.441-.881q-.165-.5-.33-.992a57.314,57.314,0,0,1-1.982-5.621c-.555-1.877-.885-3.859-1.436-5.735-.11-.661-.331-1.322-.441-1.873,1.877-.11,3.749-.44,5.181-.661a39.19,39.19,0,0,0,11.026-4.079,60.451,60.451,0,0,0,18.634-14.665,48.176,48.176,0,0,0,6.282-9.37c.44-.881.881-1.877,1.326-2.978.106.22.22.551.326.771a58.812,58.812,0,0,0,7.5,12.348,56.426,56.426,0,0,0,9.925,9.925,43.222,43.222,0,0,0,5.511,3.635c1.212.665,2.538,1.326,3.749,1.877.331.22.661.33.991.551a17.047,17.047,0,0,0-.881,2.537c-.771,2.313-1.542,4.52-2.1,6.833A99.884,99.884,0,0,1,1575.887,1072.734Zm-65.706-26.346a11.872,11.872,0,0,0-3.419-2.317c-1.326-.881-2.537-1.762-3.859-2.643a.666.666,0,0,0-.881,0v-3.639c.11-2.537.22-4.96.441-7.387.11-.991.22-2.1.33-3.088,0-.111.11-.441.11-.661.11-.441.11-.881.22-1.432a95.07,95.07,0,0,1,2.313-11.136c.775-2.537,1.545-5.07,2.427-7.5a18.054,18.054,0,0,1,1.322-3.085,39.694,39.694,0,0,1,1.766-3.749,37.629,37.629,0,0,1,2.2-3.528,5.125,5.125,0,0,0,1.436-.881c.441-.555,2.2-1.877,3.3-2.867a1.894,1.894,0,0,0,.551-.441c.114,0,.444-.331.555-.441a6.136,6.136,0,0,0,.881-.551,10.018,10.018,0,0,0,1.1-.885h.11a26.336,26.336,0,0,1,3.638-2.423,18.229,18.229,0,0,1,1.986-1.1c.331-.11.661-.331.991-.441.22-.11.771-.331.991-.441a46.649,46.649,0,0,1,8.71-2.533c.661-.11,1.326-.224,1.986-.33.11,0,.33,0,.33-.114a4.517,4.517,0,0,0,1.212-.11c1.652-.11,3.308-.22,5.07-.22,1.546,0,3.088,0,4.63.11.775,0,1.546.11,2.317.11a3.047,3.047,0,0,0,.991.11.963.963,0,0,0,.551.114,65.434,65.434,0,0,1,9.153,2.313,8.656,8.656,0,0,0,1.542.551c-.22,0,1.211.551,1.542.771a29.923,29.923,0,0,1,4.079,2.317,10,10,0,0,1,1.766,1.211.341.341,0,0,1,.22.11c.33.22.661.551.991.771a52.278,52.278,0,0,1,4.3,4.189c.661.664,1.211,1.326,1.877,2.1a2.051,2.051,0,0,1,.33.44,4.67,4.67,0,0,1,.551.771,35.08,35.08,0,0,1,2.978,4.74c.326.664.771,1.436,1.1,2.207a10.14,10.14,0,0,0,.551,1.1v.11c.661,1.766,1.322,3.528,1.762,5.181a39.951,39.951,0,0,1,1.212,4.964,19.735,19.735,0,0,1,.444,2.533,5.675,5.675,0,0,1,.22,1.216c.11.22.11.881.22,1.1.441,3.419.661,6.837.771,10.252.22,3.419.22,6.947.22,10.475-.441-.22-.992-.331-1.432-.551-2.1-.771-4.189-1.546-6.286-2.427a54.426,54.426,0,0,1-11.8-6.723.8.8,0,0,0-.661-.224,19.13,19.13,0,0,1-1.432-1.652,62.436,62.436,0,0,1-7.278-10.361c-.991-1.766-1.986-3.639-2.867-5.515-.441-.881-.881-1.873-1.432-2.754s-1.322-1.546-1.766-2.427a1.139,1.139,0,0,0-1.982,0,4.7,4.7,0,0,0-2.537,1.873c-1.322,1.986-1.652,4.745-2.313,7.057a36.282,36.282,0,0,1-5.4,9.7,57.512,57.512,0,0,1-16.2,13.784,53.29,53.29,0,0,1-9.594,4.3c-1.652.44-3.418.881-5.07,1.211-1.652.22-3.969.33-5.07,1.656a2.921,2.921,0,0,0-.661,1.1,2.555,2.555,0,0,1-.775.771,5.289,5.289,0,0,0-.881,1.766,12.5,12.5,0,0,0-.661,3.525,42.635,42.635,0,0,0,.44,6.4,6.747,6.747,0,0,0-1.542-.771c-.551-6.286-.992-12.458-1.1-18.744,2.2,1.436,5.181,4.41,8.045,3.859A.465.465,0,0,0,1510.181,1046.388Zm-55.571,69.566c3.418,1.1,6.947,2.093,10.255,3.308v.11a30.813,30.813,0,0,0-1.766,3.3c-1.1-.441-2.313-.771-3.418-1.212a38.86,38.86,0,0,1-6.943-3.088l-.11-.11c-.22-.991-.441-2.093-.665-3.084C1452.849,1115.406,1453.729,1115.738,1454.61,1115.955Zm-.438,7.72c-.22-.885-.551-1.656-.771-2.537a39.474,39.474,0,0,0,4.85,2.317c1.212.551,2.538.991,3.749,1.432a3.432,3.432,0,0,1-.551,1.1,7.147,7.147,0,0,1-.881,1.546c-.335-.11-.665-.33-1-.444A55.569,55.569,0,0,1,1454.172,1123.675Zm5.178,5.843c-.661.991-1.322,1.986-1.982,2.867-.551-1.656-1.1-3.308-1.766-4.85A24.876,24.876,0,0,0,1459.351,1129.518Zm-10.251,8.269c-.11,0-.22-.11-.33-.11-2.978-.881-6.066-1.762-8.489-3.859a1.015,1.015,0,0,0-1.436,1.432,21.555,21.555,0,0,0,7.607,3.859c1.432.555,2.978,1,4.41,1.436l.11.11c-2.313,2.754-4.63,5.732-6.723,8.489-1.436,1.762-2.757,3.529-4.193,5.291-.551-1.652-1.322-3.308-1.982-4.96-.771-1.986-1.652-3.969-2.537-5.952q-.5-1.163-.992-2.317v-.11c.22-.33.331-.661.551-.991.881-1.766,1.656-3.638,2.427-5.515a15.808,15.808,0,0,0,.771-3.969C1441.822,1132.935,1445.572,1135.25,1449.1,1137.786Zm-51.3-23.482a13.159,13.159,0,0,0,3.121-1.542,2.573,2.573,0,0,0,.771-.771,40.084,40.084,0,0,0,5.845,2.757,41.858,41.858,0,0,0,4.96,1.432c-.33.33-.771.661-1.1.991-2.537,2.207-4.964,4.41-7.387,6.616-2.978,2.644-5.956,5.291-9.15,7.607q.331-4.467.991-8.933a65.351,65.351,0,0,1,1.652-8.049Zm38.958-11.248a17.031,17.031,0,0,0-5.295-1.436c-1.873-.441-3.859-.992-5.731-1.542a37.6,37.6,0,0,1-4.52-1.766,57.127,57.127,0,0,0,14.885-2.644c.661-.22,1.322-.44,2.093-.661v1.322c.11,2.207.33,4.41.441,6.616a4.12,4.12,0,0,1,.11,1.1,24.507,24.507,0,0,1-7.718,3.969c-.771.22-1.432.33-2.2.551-.331,0-.771.111-1.1.111-.114.11-.114.11-.22.11h-.664a53.847,53.847,0,0,1-5.952.33,51.206,51.206,0,0,1-11.026-1.322,42.016,42.016,0,0,1-4.961-1.432,5.6,5.6,0,0,1-1.211-.444,27.334,27.334,0,0,0-.11-5.181c2.864,1.322,5.621,2.647,8.489,3.748,2.2.881,4.41,1.652,6.612,2.427,2.1.661,4.3,1.542,6.507,1.322a.586.586,0,0,0,.33-1.1,20.23,20.23,0,0,0-5.621-2.1c-2.317-.661-4.524-1.542-6.727-2.313-3.2-1.1-6.507-2.427-9.7-3.859a5.393,5.393,0,0,0-.11-1.326c0-.771-.11-1.432-.11-1.982a34.083,34.083,0,0,0,5.952,1.873,53.391,53.391,0,0,0,8.269,1,61.7,61.7,0,0,0,7.167,3.525,58.4,58.4,0,0,0,6.282,1.877c1.766.33,3.859.881,5.735.33A.577.577,0,0,0,1436.754,1103.056Zm-21.278,19.733c1.982-1.982,3.965-3.745,5.841-5.732h.881c2.427,3.969,6.506,7.167,10.475,9.811-.33.555-.551,1.105-.774,1.546-.661,1.322-1.322,2.648-1.873,3.969a33.549,33.549,0,0,1-2.207,3.969,1.739,1.739,0,0,1-.441.771,40.8,40.8,0,0,0-6.282.771c-1.436.22-2.978.551-4.41.771-.22,0-.551.11-.771.11l-.331-.33a11.685,11.685,0,0,1-1.656-1.873c-.771-1.105-1.432-2.207-2.093-3.308a45.918,45.918,0,0,0-2.537-4.41C1411.395,1126.871,1413.378,1124.777,1415.476,1122.789Zm14.66-6.281a30.371,30.371,0,0,0,9.26-3.088,27.62,27.62,0,0,0,3.088-1.762.108.108,0,0,0,.111.111c.11.22.22.551.33.771a41.431,41.431,0,0,1,1.877,7.5,49.513,49.513,0,0,0,1.873,6.613c-2.093-1.322-4.19-2.533-6.392-3.859q-3.806-2.313-7.608-4.63C1431.792,1117.61,1431.017,1117.057,1430.136,1116.508Zm-57.881-111.02c.551-1.542.991-2.867,1.546-4.079a26.094,26.094,0,0,0,6.723,4.079c1.762.661,5.735,2.427,7.277.661a.532.532,0,0,0,0-.771,3.011,3.011,0,0,0-2.1-.881c-1.211-.331-2.423-.661-3.638-1.106a19.213,19.213,0,0,1-6.613-3.859,1.19,1.19,0,0,0-.771-.33c.22-.44.33-.771.551-1.211.881-1.873,1.762-3.638,2.753-5.4.114.11.22.22.335.22,1.322.661,2.643,1.322,3.965,1.873,1.215.551,3.308,1.766,4.634.771a.694.694,0,0,0,.22-.991c-.555-1.1-2.317-1.432-3.308-1.762a21.1,21.1,0,0,1-4.189-2.1c-.22-.11-.33-.22-.44-.22,0-.111.11-.22.22-.331a81.1,81.1,0,0,1,4.74-7.718c.22-.33.44-.661.771-1.1.881-.881,1.766-1.762,2.757-2.647a49.941,49.941,0,0,1,9.04-6.833,20.774,20.774,0,0,1,4.52-2.1,20.2,20.2,0,0,1,2.757-.661c.44-.11.771-.22,1.211-.33.22,0,.771-.111.991-.111a52.133,52.133,0,0,1,10.145-.11c1.873.11,3.749.331,5.621.551a1.873,1.873,0,0,1,.771.11c.22,0,.771.11.885.11a25.632,25.632,0,0,1,3.085.551,35.515,35.515,0,0,1,4.96,1.216c.775.22,1.546.44,2.207.661a5.462,5.462,0,0,1,.771.33,5.361,5.361,0,0,1,.771.331,28.374,28.374,0,0,1,4.3,2.757c-.114-.224.661.44.771.551a10.071,10.071,0,0,0,1.1.992,22.932,22.932,0,0,1,2.313,2.313,46.245,46.245,0,0,1,3.859,4.3c.22.33.44.551.661.881a15.29,15.29,0,0,0,1.215,1.542c.22.331.551.661.771.992a30.834,30.834,0,0,0,5.071,5.4,5.351,5.351,0,0,1,.33.771c.444.881.885,1.873,1.326,2.867.22.441.441.992.661,1.432a15.276,15.276,0,0,1,.661,1.432,141.405,141.405,0,0,1,6.062,17.863c-1.212-.22-2.423-.331-3.525-.555-2.427-.441-4.74-.991-7.167-1.652a73.8,73.8,0,0,1-13.45-5.181c-1.105-.661-2.1,1.1-1,1.652a71.415,71.415,0,0,0,13.233,5.956c2.313.771,4.63,1.432,7.053,1.982,1.656.33,3.859,1.1,5.625.991.331,1.215.661,2.537.881,3.748.11.775.331,1.546.441,2.317a3.959,3.959,0,0,0-1.212.22.843.843,0,0,0-.22-.551,42.147,42.147,0,0,0-8.159-2.1c-2.978-.77-5.956-1.541-8.823-2.423q-8.6-2.65-16.868-5.956c-.661-.33-1.211.881-.551,1.215,5.515,2.423,11.136,4.74,16.868,6.613a80.654,80.654,0,0,0,8.823,2.537,28.543,28.543,0,0,0,6.833,1.1,3.889,3.889,0,0,1-1.1.22,37.226,37.226,0,0,1-6.066-.22c-1.542-.11-3.084-.22-4.74-.44,0,0-.661-.11-.771-.11a3.048,3.048,0,0,0-.991-.11,20.358,20.358,0,0,0-2.538-.441,95.448,95.448,0,0,1-9.7-2.207c-1.656-.44-3.2-.991-4.85-1.542-.771-.33-1.546-.551-2.427-.881-.33-.11-.771-.331-1.1-.444a.414.414,0,0,0-.331-.107.381.381,0,0,0-.22-.114,69.224,69.224,0,0,1-8.489-4.52,39.487,39.487,0,0,1-3.859-2.643l-.661-.44a6.524,6.524,0,0,1-.885-.886c-.661-.551-1.322-1.1-1.873-1.652-4.3-3.969-7.057-8.6-10.145-13.56a3.946,3.946,0,0,0-2.313-2.978c-1.436-.881-3.639-.551-4.079,1.212a3.425,3.425,0,0,0-.551,1.1,98.731,98.731,0,0,1-6.066,12.348c-1.1,2.093-2.2,4.079-3.418,6.062a.662.662,0,0,0-.11-.441c-1.432-1.986-4.63-2.537-6.833-3.418a20.7,20.7,0,0,1-6.947-4.41C1372.256,1005.6,1372.256,1005.6,1372.256,1005.488Zm-2.979,11.132a77.346,77.346,0,0,1,2.1-8.379,23.251,23.251,0,0,0,6.062,3.749c1.436.661,2.868,1.211,4.41,1.873a7.754,7.754,0,0,0,3.859.661c.11,0,.11,0,.22-.11-1.211,1.877-2.423,3.749-3.745,5.511a12.8,12.8,0,0,1-1.546,1.877,11.551,11.551,0,0,0-2.313-.661,28.011,28.011,0,0,1-4.634-1.326,35.3,35.3,0,0,1-4.63-2.093C1369.166,1017.4,1369.166,1017.063,1369.276,1016.62Zm-1.1,10.584c.111-1.873.22-3.638.331-5.511.11-.441.11-.881.22-1.322v-.111a23.443,23.443,0,0,0,3.749,1.762,20.791,20.791,0,0,0,4.63,1.542l1.322.33c-1.762,1.546-3.745,2.868-5.732,4.3a42.18,42.18,0,0,0-4.41,3.3C1368.174,1030.072,1368.174,1028.638,1368.174,1027.2Zm15.108,41.786c-.775-.771-1.436-1.542-2.1-2.313-.22-.33-.551-.661-.771-.991a9.014,9.014,0,0,1-.661-.885,57.553,57.553,0,0,1-3.528-5.511c-.991-1.762-1.877-3.529-2.757-5.291-.11-.33-.22-.551-.33-.881a6.513,6.513,0,0,0-.441-.885c-.33-1.1-.771-2.093-1.1-3.195a78.308,78.308,0,0,1-2.757-11.136c2.1-1.211,3.969-2.537,6.066-3.859,4.41-2.647,8.6-5.291,11.907-9.37a89.113,89.113,0,0,0,8.489-12.789c1.322-2.427,2.533-4.744,3.745-7.167a48.145,48.145,0,0,0,7.607,10.472,53.889,53.889,0,0,0,17.423,12.348,83.127,83.127,0,0,0,21.057,6.506c3.749.661,7.608,1.212,11.463,1.542a57.734,57.734,0,0,0,6.176.11,17.2,17.2,0,0,0,5.07-.991v.33a42.375,42.375,0,0,1,0,5.291c0,.885-.11,1.766-.11,2.647a4.766,4.766,0,0,0-.11.551c0,.22-.11.991-.11,1.215a55.787,55.787,0,0,1-2.864,10.141,1.984,1.984,0,0,1-.22.551,1.524,1.524,0,0,0-.224.661c-.44.77-.771,1.546-1.1,2.207-.881,1.652-1.762,3.2-2.754,4.74-.444.551-.774,1.1-1.215,1.762-.22.331-.44.661-.661,1-.111,0-.22.11-.22.331-.991,1.211-2.1,2.423-3.2,3.528a30.091,30.091,0,0,1-3.308,3.194c-.551.551-1.211,1.105-1.873,1.656l-.661.661c-.22.11-.33.22-.44.22a58.173,58.173,0,0,1-8.269,5.181l-1.986.991a5.346,5.346,0,0,0-1.1.555.831.831,0,0,0-.44.11,33.221,33.221,0,0,1-4.63,1.652c-1.545.551-3.088.881-4.63,1.322-1,.22-1.986.33-2.978.551-.11,0-.771.11-.995.11a3.6,3.6,0,0,1-1.1.114,34.489,34.489,0,0,1-5.842.11,6.772,6.772,0,0,0-1.542-.11c-.114,0-.775-.114-1-.114a17.106,17.106,0,0,0-2.313-.441,100.027,100.027,0,0,1-11.247-3.084c-1.432-.441-2.757-1-4.079-1.436-.661-.441-1.211-.881-1.762-1.322-.114-.11-.22-.11-.334-.22,0,0-.106-.11-.22-.22a15.741,15.741,0,0,1-1.652-1.212A89.268,89.268,0,0,1,1383.282,1068.99Zm8.379,73.754c.771.33,1.652.661,2.423,1a30.661,30.661,0,0,1,3.859,1.873c1.1.551,2.317,1.762,3.748,1.873a.545.545,0,0,0,.661-.661c-.661-2.423-4.52-3.749-6.613-4.63a13.544,13.544,0,0,1-1.877-.771c.775-.441,1.656-.991,2.427-1.542a15.954,15.954,0,0,1,2.427.881c2.533.991,4.96,2.313,7.714,2.533a.646.646,0,0,0,.444-1.1c-1.656-1.982-4.079-2.754-6.4-3.748-.551-.22-.991-.331-1.542-.551,1.982-1.542,3.859-3.088,5.621-4.74.441,1.212.881,2.207,1.211,3.088.991,2.423,2.317,5.622,4.3,7.384a35.763,35.763,0,0,0-3.419,8.159c-.771,2.317-1.542,4.744-2.2,7.167-.44,1.326-.881,2.648-1.211,3.969-2.317-2.978-4.52-5.952-6.727-8.93-2.757-3.748-5.291-7.607-7.828-11.577A4.6,4.6,0,0,0,1391.662,1142.744Zm-3.312-25.465a.831.831,0,0,0,.44-.11c-.22,1.1-.44,2.207-.551,3.308a15.676,15.676,0,0,1-2.427-.771,11.472,11.472,0,0,1-2.093-.775Q1386.038,1118.105,1388.35,1117.278Zm-10.584,4.187c.885-.33,1.656-.771,2.537-1.1.22-.11.33-.22.551-.22,1.326.551,2.648,1.211,3.969,1.762.881.44,1.986.881,2.978,1.326-.11,1.322-.33,2.644-.44,3.969a24.424,24.424,0,0,0-3.749-1.215c-2.207-.771-4.96-1.762-6.176-3.969,0-.11-.11-.11-.22-.22A2.41,2.41,0,0,0,1377.766,1121.466Zm-2.421,1.324c0,.114.11.22.22.444,1.211,2.314,3.639,3.415,5.952,4.41a30.717,30.717,0,0,0,5.625,1.873c-.11,1.322-.22,2.537-.22,3.859a53.125,53.125,0,0,1-5.735-2.647c-.881-1.211-1.762-2.533-2.757-3.745-1.1-1.326-2.2-2.648-3.3-4.079A.334.334,0,0,1,1375.346,1122.789ZM1386.7,1135.8c0,.881-.114,1.652-.114,2.423-.22,0-.326.111-.551.22a26.465,26.465,0,0,0-1.432-2.314,19.587,19.587,0,0,1-1.211-1.986C1384.5,1134.7,1385.592,1135.25,1386.7,1135.8Zm-49.723,59.31a8.276,8.276,0,0,1-1.764-.551,5.942,5.942,0,0,0-1.322-.44c-.883-.441-1.877-.881-2.757-1.436q.165-1.487.33-2.974a6.672,6.672,0,0,0,1.1.771,68.607,68.607,0,0,0,10.914,5.732c.661.33,1.324.551,1.874.881A76.182,76.182,0,0,1,1336.977,1195.114Zm80.372-.438c-.44,2.757-.991,6.5-.44,9.591-5.732-.11-11.467-.33-17.309-.551-8.269-.22-16.427-.771-24.7-1.762-.44,0-.775-.111-1.215-.111,0,0-1.873-.33-.881-.11-.661-.11-1.432-.22-2.093-.33,0,0-.885-.11-1.105-.11-1.873-.22-3.639-.555-5.4-.775a8.375,8.375,0,0,0-1.982-.661c-1.656-.551-3.418-1.1-5.183-1.652-3.969-1.212-7.828-2.648-11.687-4.079-3.748-1.546-7.385-3.308-10.914-5.185-.994-.551-1.874-1.1-2.867-1.652.11-1.322.22-2.648.33-3.969.11-1.1.22-2.314.332-3.419v-.22a1.2,1.2,0,0,1,.11-.551c.11-.551.11-1.1.22-1.652a70.307,70.307,0,0,1,1.764-7.277c.551-1.877,1.322-3.749,1.984-5.621l.11-.11v-.11a6.882,6.882,0,0,0,.551-1.326c.44-.991.993-1.873,1.434-2.867a112.11,112.11,0,0,1,5.841-9.921q.83-1.156,1.654-2.313c.222-.33.552-.775.773-1.105.11-.11.22-.33.44-.551,1.212-1.432,2.425-2.978,3.749-4.41a83.661,83.661,0,0,1,8.378-8.158,16.881,16.881,0,0,1,2.094-1.873c.33-.331.775-.551,1.105-.885a.108.108,0,0,0,.11-.11.341.341,0,0,0,.22-.11c1.542-1.211,3.194-2.314,4.96-3.525.881-.555,1.873-1.215,2.868-1.766a28.476,28.476,0,0,0,2.093,4.079c1.766,3.088,3.529,6.176,5.181,9.26,3.639,6.506,7.608,12.9,11.8,19.184a166.829,166.829,0,0,0,12.9,17.529,77.437,77.437,0,0,0,7.278,7.5c2.537,2.317,5.291,5.181,8.269,6.836C1417.9,1191.475,1417.57,1193.02,1417.348,1194.676Zm2.647-14.554c-1.105-.881-2.1-1.762-3.088-2.644-2.427-2.317-4.85-4.63-7.167-7.057a8.293,8.293,0,0,0,.111-1.652.836.836,0,0,0,.11-.444q.165-.827.33-1.652c.44-1.982.991-3.969,1.546-6.062.551-2.317,1.1-4.63,1.762-6.947a24.371,24.371,0,0,0,1.212-8.929,21.076,21.076,0,0,0,5.625.661c2.864-.111,5.952-.551,8.929-.111a33.029,33.029,0,0,0,1.1,5.732,100.943,100.943,0,0,1,3.088,11.357c.111.11.111.11.111.22-1.322,1.652-2.757,3.418-4.079,5.07-2.317,3.088-4.74,6.066-7.057,9.153A37.91,37.91,0,0,1,1420,1180.121Zm78.494,11.354a5.227,5.227,0,0,1-.991.33,10.739,10.739,0,0,1-1.105.551c-1.322-.881-3.419-.661-4.96-.771a57.473,57.473,0,0,1-6.066-.881c-4.186-.661-8.265-1.652-12.344-2.427-1.326-.22-1.877,1.546-.555,1.877,4.079.881,8.158,1.982,12.238,2.864a54.79,54.79,0,0,0,6.176,1,2.733,2.733,0,0,1,.881.11c-1.762.551-3.528,1.1-5.181,1.652a180.284,180.284,0,0,1-28.445,6.507,8.541,8.541,0,0,1-.991.11c-.555.11-1,.11-1.436.22l-3.639.331c-2.533.33-5.07.44-7.6.661q-7.446.661-14.885.661c-1.1,0-2.317.11-3.418.11a10.84,10.84,0,0,0-.22-1.873c.11.881-.11-.661-.11-.661v-1.436c-.11-1.873.11-3.749.11-5.621.11-2.427.33-5.621-.441-8.159a53.473,53.473,0,0,0,3.419-4.41c2.2-3.088,4.189-5.511,6.613-8.6,5.4-6.727,10.7-13.559,15.987-20.4,4.189-5.515,8.6-10.806,12.678-16.647a42.111,42.111,0,0,0,5.074-9.26,16.109,16.109,0,0,0,1.1-5.735,55.686,55.686,0,0,1,4.96,2.757c.771.441,1.652.991,2.427,1.542a3.361,3.361,0,0,0,.771.551c-.441-.22.551.44.661.555a38.167,38.167,0,0,1,4.85,4.63c1.436,1.542,2.757,3.084,4.079,4.74a4.778,4.778,0,0,1,.661.771s.555.771.661.771c.664.991,1.436,1.986,2.1,3.088a72.778,72.778,0,0,1,6.616,11.356,13.482,13.482,0,0,1,1.322,2.864,2.205,2.205,0,0,1,.44.885,6.955,6.955,0,0,0,.441.991c.771,2.093,1.542,4.19,2.207,6.392.661,1.986,1.1,3.969,1.652,6.066.22.991.33,1.982.551,2.978,0,.11.11,1.1.22,1.1a12.124,12.124,0,0,0,.22,1.982c.22,2.757.22,5.515.444,8.269a16.54,16.54,0,0,1-2.648-.44c-2.757-.551-5.511-1.1-8.269-1.542.771-1.876.441-4.079-1.766-5.07-2.864-1.436-6.282-1.326-9.37-1.215-3.2.11-6.282.551-9.37.775-3.308.22-6.616.106-9.924.551-1.762.22-3.639.441-5.4.771-.771.22-1.542.551-2.317.771-.771.44-1.873,1.1-2.313,1.432-2.647,1.877-.991,6.4,2.313,5.405.114.11.114.11.224.11a8.782,8.782,0,0,0,1.652-.331c.44-.11,1.1-.11,1.982-.224s2.978-.22,4.3-.22c2.978-.11,6.066,0,9.044,0,2.864-.11,5.621-.33,8.378-.551,1.652,0,3.195-.11,4.74,0,.22,0,1.432.11,1.432.11l1.322.33a4.4,4.4,0,0,0,2.427-.11c.441.11.771.11,1.212.22,2.978.665,5.956,1.326,8.933,1.877.991.22,2.313.551,3.638.771,0,.22,0,.33.107.44C1503.452,1189.054,1501.026,1190.373,1498.49,1191.475Zm46.084-10.579c-.11,2.313-.22,4.74-.22,7.054v1.326c-1.436,0-2.978-.11-4.41-.22-1.105-.114-2.207-.22-3.2-.334a10.853,10.853,0,0,1-1.873-.22,2.885,2.885,0,0,0-.569-.077c-.267-.043-.565-.068-.867-.143-4.74-.661-9.48-1.982-14.22-2.754a4.149,4.149,0,0,0-1.1-.11,60.512,60.512,0,0,0-.665-11.026,77.56,77.56,0,0,0-2.864-14.224,95.069,95.069,0,0,0-11.687-24.582,98.589,98.589,0,0,0-7.167-9.594,21.634,21.634,0,0,0,1.939-2.469,3.67,3.67,0,0,1,.6-.615,8.212,8.212,0,0,1,.881-1.215,20.807,20.807,0,0,1,2.313-2.093l-.043.029c.123-.083.733-.494.818-.579a6.515,6.515,0,0,0,.881-.444l.991-.331a27.83,27.83,0,0,0,.661,5.295,58.744,58.744,0,0,0,4.19,12.128,61.1,61.1,0,0,0,14.224,20.947c3.088,3.084,6.282,5.952,9.37,8.929,3.2,3.088,6.947,7.167,11.8,6.5,0,.775.11,1.436.11,2.207C1544.685,1176.483,1544.574,1178.687,1544.574,1180.9Zm-43.165-61.263Zm44.71,45.163h-.11a6.124,6.124,0,0,0-.881-.661c-1.1-.444-1.322-.555-.771-.334a12.543,12.543,0,0,1-1.215-.661c-.106-.111-1.211-.881-1.1-.661-.991-.771-1.873-1.542-2.864-2.423a11.309,11.309,0,0,0,2.533-3.749,36.877,36.877,0,0,0,1.876-4.854,43.62,43.62,0,0,0,2.2-8.489,2.282,2.282,0,0,0,.6-.063c.112.013.829-.047.829-.047a8.4,8.4,0,0,1,1.656-.11h3.308c.11.22.11.44.22.661a39.935,39.935,0,0,0,1.873,5.074c.661,1.652,1.436,3.3,1.986,5.07q.331,1.322.661,2.647c-1.432.991-2.868,1.873-4.3,2.754A19.582,19.582,0,0,0,1546.119,1164.8Zm55.239-30.76a3.652,3.652,0,0,1,.33.661c.11.33.22.551.33.885l.991,2.643a84.121,84.121,0,0,1,2.648,10.366,17.071,17.071,0,0,1,.44,2.313c.111.441.111.881.22,1.436v.22a.661.661,0,0,1,.11.44c.33,2.423.44,4.85.661,7.163.22,2.757.22,5.515.661,8.273.11.551.22,1.1.331,1.542-.22.11-.331.331-.551.441l-2.314,1.652c-1.436-.111-2.757,0-3.969,0-2.207-.111-4.41-.441-6.616-.661a3.61,3.61,0,0,0,.661-3.195,3.87,3.87,0,0,0-3.639-2.867c-1.652.11-3.969.991-5.181,1.1-1.762.22-3.529.33-5.292.551-2.317.22-4.629.771-6.947,1.215-2.093.331-4.63.992-6.062,2.423a2.14,2.14,0,0,0,.33,3.308c1.762,1.1,4.63,1.1,6.613,1.1,2.317-.111,4.74-.331,6.837-.441,1.877-.11,3.639-.11,5.4-.22a28.469,28.469,0,0,0,4.079-.661,16.618,16.618,0,0,1,2.207.22c2.533.331,4.96.661,7.5.881-2.1,1.322-4.3,2.537-6.506,3.639a16.58,16.58,0,0,1-2.423,1.211c-1.546-.11-3.088-.22-4.744-.33a82.486,82.486,0,0,0-13.78-.661.771.771,0,1,0,0,1.542c4.41.33,8.819,1,13.229,1.436a1.2,1.2,0,0,0,.551.11c-.881.331-1.873.771-2.864,1.1a94.537,94.537,0,0,1-11.247,3.308c-2.1.551-4.3.991-6.506,1.432-1.1.22-2.2.331-3.308.551-.441.11-.881.11-1.322.22.11,0-1.432.22-1.652.22-2.647.331-5.291.555-8.048.665a1.9,1.9,0,0,0,.11-.775c.111-2.313.22-4.63.22-7.053.11-2.207.11-4.52,0-6.727a25.815,25.815,0,0,1,0-5.07c0-.11.11-.22.11-.33,0,.11,0,0,.22-.22a.108.108,0,0,1,.11-.11l.22-.22a3.391,3.391,0,0,1,.881-.885l.665-.551a49.883,49.883,0,0,1,4.406-2.864,62.541,62.541,0,0,0,10.034-7.718,66.327,66.327,0,0,0,14.775-20.507,47.953,47.953,0,0,0,4.079-12.348,39.044,39.044,0,0,0,.551-5.295c.11.11.22.224.33.224.441.33.881.551,1.322.881.11,0,.33.22.551.33.551.551,1.212,1.1,1.766,1.652a36.465,36.465,0,0,1,3.418,3.638,2.386,2.386,0,0,1,.441.661c.33.33.551.771.881,1.1.44.775.991,1.546,1.432,2.427A36.141,36.141,0,0,1,1601.357,1134.037Zm2.31-39.466c-.771-.11-1.432-.22-2.093-.334h-.331a5.225,5.225,0,0,1-.554-.106c-1.652-.224-3.194-.444-4.851-.775a4.97,4.97,0,0,0-5.952,3.419c-1.322-.551-2.648-1.1-3.859-1.652-2.427-1.215-4.63-2.427-6.837-3.749a49.6,49.6,0,0,0,3.969-5.515c.331-.551.665-1.1.991-1.762a13.656,13.656,0,0,0,1.546.551,48.945,48.945,0,0,1,6.282,3.308c1.877,1.1,3.749,2.317,5.625,3.528,1.432.881,2.978,2.313,4.74,2.2.661,0,.881-.551.661-1.1-.771-1.652-2.867-2.647-4.3-3.638-2.2-1.322-4.3-2.644-6.5-3.859a39.772,39.772,0,0,0-6.837-3.308,54.575,54.575,0,0,0,2.533-5.841,33.74,33.74,0,0,1,4.854,2.647c.991.551,2.313,1.542,3.635,2.2a65.508,65.508,0,0,0,6.726,10.475c.881,1.211,1.766,2.313,2.757,3.528A15.781,15.781,0,0,0,1603.667,1094.571Z" transform="translate(-1319.679 -957.888)" fill="#680444"/><path d="M1685.305,1107.224c-1.1-.11-1.542,1.432-.441,1.652a11.985,11.985,0,0,1,3.088,1.211c.441.22,1.982,1.436,2.313.331C1690.927,1108.437,1686.518,1107.446,1685.305,1107.224Z" transform="translate(-1500.762 -1032.066)" fill="#680444"/><path d="M1688.993,1086.707c-1.546-.771-2.868,1.546-1.326,2.207.664.33,1.436.771,2.1,1.1.881.441,1.432.881,2.427.551a.732.732,0,0,0,.441-.551C1692.632,1088.136,1690.312,1087.366,1688.993,1086.707Z" transform="translate(-1502.13 -1021.8)" fill="#680444"/><path d="M1698.225,1078.877c.33-.771-.661-1.542-1.211-1.762a4.726,4.726,0,0,0-1.766-.552,1.323,1.323,0,0,0-1.211,1.322,1.223,1.223,0,0,0,1.211,1.212h.444c.22.114.327.224.551.224a2.631,2.631,0,0,0,.991.33C1697.787,1079.652,1698.009,1079.319,1698.225,1078.877Z" transform="translate(-1505.635 -1016.838)" fill="#680444"/><path d="M1696.484,1063.989a1.7,1.7,0,0,0,1.766-.22,1.343,1.343,0,0,0,.11-1.436,562.756,562.756,0,0,1-.441-.441l-.11-.11h-.11l-.441-.441a1.5,1.5,0,0,0-1.876,0,1.271,1.271,0,0,0,0,1.877A2.534,2.534,0,0,0,1696.484,1063.989Z" transform="translate(-1506.098 -1009.112)" fill="#680444"/><path d="M1825.624,1096.337a49.06,49.06,0,0,0,7.167,3.638,33.019,33.019,0,0,0,4.189,1.652,5.658,5.658,0,0,0,3.529.661.774.774,0,0,0,.44-1.1c-1.1-1.766-4.52-2.427-6.4-3.2a40.988,40.988,0,0,1-7.718-3.638A1.164,1.164,0,0,0,1825.624,1096.337Z" transform="translate(-1570.739 -1025.587)" fill="#680444"/><path d="M1830.015,1078.6c-.991-.661-1.986.991-.991,1.656,1.982,1.211,6.282,4.519,8.6,2.753.33-.22.44-.661.11-.881-.881-.771-2.1-.771-3.088-1.1A26.341,26.341,0,0,1,1830.015,1078.6Z" transform="translate(-1572.483 -1017.773)" fill="#680444"/><path d="M1828.294,1063.624c1.322.22,2.754.661,4.079.991.771.33,2.313.771,2.644-.44s-1.211-1.656-1.982-1.986a24.657,24.657,0,0,0-4.079-.991C1827.408,1060.866,1826.638,1063.3,1828.294,1063.624Z" transform="translate(-1571.864 -1009.19)" fill="#680444"/><path d="M1828.132,1047.952a1.168,1.168,0,0,0,.661.22,1.262,1.262,0,0,0,1.1-.11h.11c.22-.11.33-.11.44-.331a.684.684,0,0,0-.11-.775c-.11-.33-.22-.661-.551-.771-.111-.11-.111-.11-.22-.11a1.1,1.1,0,0,0-.551-.441,1.251,1.251,0,0,0-1.215.331A1.339,1.339,0,0,0,1828.132,1047.952Z" transform="translate(-1571.924 -1001.455)" fill="#680444"/><path d="M1451.159,1014.236c.44-.771-.551-1.656-1.1-1.986-1.1-.771-2.317-1.211-3.419-1.873-1.652-1.1-3.308,1.762-1.542,2.644a20.911,20.911,0,0,0,3.195,1.546C1449.171,1014.789,1450.6,1015.116,1451.159,1014.236Z" transform="translate(-1381.602 -983.838)" fill="#680444"/><path d="M1457.9,1006.341h.22a1.411,1.411,0,0,0,1.211-1.326,1.033,1.033,0,0,0-.551-.991,1.834,1.834,0,0,0-.555-.22.4.4,0,0,0-.326-.11,1.546,1.546,0,0,0-2.207,1.322A1.5,1.5,0,0,0,1457.9,1006.341Z" transform="translate(-1387.243 -980.572)" fill="#680444"/><path d="M1562.841,1041.231c-1.1-.44-1.873,1.322-.771,1.762,2.978,1.322,5.841,2.758,8.929,3.969a35.981,35.981,0,0,0,4.85,1.652c1.436.555,3.088,1.106,4.634.441a.777.777,0,0,0,.107-1.211c-.881-.992-2.314-1.212-3.525-1.542-1.656-.44-3.308-.991-4.854-1.546C1569.016,1043.541,1565.931,1042.328,1562.841,1041.231Z" transform="translate(-1439.817 -999.253)" fill="#680444"/><path d="M1566.67,1031.852c2.537.661,5.185,2.093,7.832,1.652a.489.489,0,0,0,.22-.771c-1.986-1.652-5.074-2.207-7.5-2.868A1.031,1.031,0,0,0,1566.67,1031.852Z" transform="translate(-1441.991 -993.623)" fill="#680444"/><path d="M1560.4,1015.068a17.575,17.575,0,0,1,2.533,1.1c.885.33,1.656.881,2.647.661.331,0,.551-.44.441-.771-.22-.992-1.1-1.322-1.982-1.763-.991-.444-1.986-.885-3.088-1.326C1559.741,1012.532,1559.187,1014.515,1560.4,1015.068Z" transform="translate(-1438.916 -985.219)" fill="#680444"/><path d="M1557.36,1002.134h.22c.22,0,.331,0,.441-.11a.5.5,0,0,0,.551,0,.685.685,0,0,0,.661-.44,1.17,1.17,0,0,0,.11-.881,1.943,1.943,0,0,0-.44-.551,2.159,2.159,0,0,0-1.542-.995,1.557,1.557,0,0,0-1.986,1.436A1.586,1.586,0,0,0,1557.36,1002.134Z" transform="translate(-1436.757 -978.349)" fill="#680444"/><path d="M1366.675,1408.72a60.843,60.843,0,0,1-7.385-2.867c-4.41-1.986-8.819-4.52-13.452-5.735-.661-.11-1.1.775-.44,1.105a115.97,115.97,0,0,0,13.231,6.943,64.045,64.045,0,0,0,6.945,2.758c1.875.661,4.849,1.877,6.835,1.1a.736.736,0,0,0,.33-1.211C1371.31,1409.49,1368.552,1409.269,1366.675,1408.72Z" transform="translate(-1332.291 -1177.554)" fill="#680444"/><path d="M1350.551,1386.921a58.77,58.77,0,0,0,7.608,3.308c1.432.551,2.866,1.1,4.3,1.542,1.324.44,2.756,1.215,4.19.991a.636.636,0,0,0,.44-1.1,9.566,9.566,0,0,0-2.976-1.542c-1.434-.44-2.865-.991-4.3-1.432a70.257,70.257,0,0,1-8.379-3.308C1350.44,1384.938,1349.56,1386.478,1350.551,1386.921Z" transform="translate(-1334.798 -1170.198)" fill="#680444"/><path d="M1355.937,1375.166a28.874,28.874,0,0,0,5.07,2.093c1.434.551,3.639,1.542,5.071.771a.571.571,0,0,0,.11-.991c-.881-1.1-2.866-1.1-4.19-1.542a28.554,28.554,0,0,1-5.07-1.986C1355.827,1372.956,1354.724,1374.612,1355.937,1375.166Z" transform="translate(-1337.427 -1164.286)" fill="#680444"/><path d="M1358.929,1364.662a34.522,34.522,0,0,0,4.74,1.656c1.324.44,2.978,1.211,4.412.881.551-.11.551-.771.22-1.211-.773-1-2.315-1.105-3.528-1.546a42.013,42.013,0,0,1-4.85-1.652C1358.707,1362.236,1357.61,1364.109,1358.929,1364.662Z" transform="translate(-1338.878 -1158.966)" fill="#680444"/><path d="M1367.008,1354.8h2.978c.881.11,1.764.551,2.646.11a.691.691,0,0,0,.22-.881c-.44-.991-1.654-1.1-2.646-1.211a29.084,29.084,0,0,0-3.2-.22A1.1,1.1,0,0,0,1367.008,1354.8Z" transform="translate(-1342.655 -1153.952)" fill="#680444"/><path d="M1376.175,1341.278a1.519,1.519,0,0,0,1.323.441l.662-.331c.22-.11.551-.11.771-.22a.939.939,0,0,0,0-1.656c-.22-.111-.551-.111-.771-.22l-.662-.33a1.91,1.91,0,0,0-1.1.11,1.521,1.521,0,0,0-.661,1.211A1.071,1.071,0,0,0,1376.175,1341.278Z" transform="translate(-1347.524 -1147.158)" fill="#680444"/><path d="M1646.184,1378.324c-4.3-1.212-8.71-2.423-13.009-3.419-1.1-.22-1.546,1.326-.44,1.546,4.3,1.322,8.489,2.754,12.789,4.079,2.2.661,4.3,1.211,6.5,1.762,2.1.551,4.52,1.215,6.616.551a.6.6,0,0,0,.11-1.1c-1.762-1.1-3.969-1.432-6.062-1.873C1650.482,1379.432,1648.272,1378.878,1646.184,1378.324Z" transform="translate(-1474.867 -1165.024)" fill="#680444"/><path d="M1638.418,1360.475c-.991-.11-1.211,1.542-.22,1.652a94.8,94.8,0,0,1,9.7,2.317,34.685,34.685,0,0,0,4.63.991,5.475,5.475,0,0,0,3.969-.11.626.626,0,0,0,0-1.105c-1.1-.771-2.648-.771-3.969-.991l-4.63-.991A68.74,68.74,0,0,0,1638.418,1360.475Z" transform="translate(-1477.579 -1157.864)" fill="#680444"/><path d="M1642.763,1346.169c-1.211,0-1.211,1.873,0,1.762a18.453,18.453,0,0,1,5.511.661c1.432.334,3.2,1.105,4.629.555a.551.551,0,0,0,.22-.995c-1.1-1.1-3.3-1.212-4.85-1.542A18.367,18.367,0,0,0,1642.763,1346.169Z" transform="translate(-1479.715 -1150.725)" fill="#680444"/><path d="M1644.236,1328.718a21.562,21.562,0,0,1,2.647.22,3.355,3.355,0,0,0,2.313.11c.33-.11.33-.661.11-.881a3.754,3.754,0,0,0-2.423-.771,21.464,21.464,0,0,0-2.647-.22A.771.771,0,0,0,1644.236,1328.718Z" transform="translate(-1480.528 -1141.326)" fill="#680444"/><path d="M1632.16,1312.513c1.211,0,2.533.111,3.748,0,.331-.11.771-.33.881-.661v-.551a.927.927,0,0,0-.881-.664c-1.215-.107-2.537-.107-3.748-.107A.991.991,0,1,0,1632.16,1312.513Z" transform="translate(-1474.406 -1133.057)" fill="#680444"/><path d="M1627.781,1301.928a1.065,1.065,0,0,0,.992-.991.406.406,0,0,1-.111-.33c.111,0,.111,0,.111-.114a.819.819,0,0,0-.111-.991.9.9,0,0,0-1.322,0,2.306,2.306,0,0,0-.44.661c0,.33-.111.551-.111.774A.984.984,0,0,0,1627.781,1301.928Z" transform="translate(-1472.232 -1127.434)" fill="#680444"/><path d="M1847.856,1362.43c-1.1-.22-1.542,1.432-.44,1.652,3.859.771,7.607,1.546,11.466,2.207a50.051,50.051,0,0,0,5.511.661c1.542.22,3.308.441,4.63-.44a.67.67,0,0,0,0-.881c-1.1-.885-2.648-.665-3.969-.775-1.983-.11-3.969-.33-5.841-.551C1855.354,1363.859,1851.605,1363.089,1847.856,1362.43Z" transform="translate(-1581.507 -1158.828)" fill="#680444"/><path d="M1851.637,1347.987c-1.652-.11-1.652,2.537,0,2.537q3.476,0,6.947.33c1.767.11,4.41.771,5.956-.33.33-.33.551-.885.11-1.215-1.436-1.1-3.749-.771-5.515-.991C1856.6,1348.208,1854.174,1347.987,1851.637,1347.987Z" transform="translate(-1583.306 -1151.662)" fill="#680444"/><path d="M1861.813,1333.3c1.432-.33,3.085-.22,4.3-.995.22-.111.551-.441.44-.771-.11-1.432-1.762-1.1-2.647-1.1-.881.11-1.873.22-2.754.33C1859.5,1331.093,1860.268,1333.74,1861.813,1333.3Z" transform="translate(-1588.187 -1142.926)" fill="#680444"/><path d="M1864.992,1315.807h.111a.4.4,0,0,1,.33-.11,3.079,3.079,0,0,0,1.436-.33.827.827,0,0,0,0-1.432,4.822,4.822,0,0,0-2.757-.22,1.3,1.3,0,0,0-1.212,1.542A1.232,1.232,0,0,0,1864.992,1315.807Z" transform="translate(-1589.494 -1134.59)" fill="#680444"/><path d="M1866.611,1302.041c.444-.22,1.215-.44,1.546-.991.11-.11.22-.11.22-.224a.839.839,0,0,0-.11-.991c-.11,0-.11-.11-.22-.11-.771-.661-1.986,0-2.647.22a1.279,1.279,0,0,0-.441,1.767A1.21,1.21,0,0,0,1866.611,1302.041Z" transform="translate(-1590.449 -1127.547)" fill="#680444"/><path d="M1725.183,1318.386a3.024,3.024,0,0,0-1.432-1.436,14.4,14.4,0,0,1-1.652-1.1c-.995-.661-1.876.881-.885,1.546.551.33,1.105.771,1.766,1.1a2.3,2.3,0,0,0,1.873.44C1725.073,1318.824,1725.294,1318.6,1725.183,1318.386Z" transform="translate(-1518.919 -1135.619)" fill="#680444"/><path d="M1564.867,1322.968a21.547,21.547,0,0,0,1.986,1.326,3.022,3.022,0,0,0,2.314.661.571.571,0,0,0,.33-.774c-.33-.661-1.211-.881-1.762-1.211-.771-.441-1.432-.991-2.093-1.432C1564.867,1320.875,1563.987,1322.3,1564.867,1322.968Z" transform="translate(-1441.29 -1138.44)" fill="#680444"/></svg>