<svg xmlns="http://www.w3.org/2000/svg" viewBox="0 0 109.41 137.62"><defs><style>.cls-1{isolation:isolate;}.cls-2{fill:#606062;}.cls-3{fill:#818183;}.cls-4{fill:#4f4f51;}.cls-5{fill:#2b2b2d;}.cls-6{fill:#fff;}.cls-7{fill:#979790;}.cls-8{fill:#595b5a;}.cls-9{fill:#8b8d8c;}.cls-10{fill:#a9aba9;}.cls-11{fill:#d5d6d5;}.cls-12{fill:#f2bc85;}.cls-13{fill:#f9c48e;}.cls-14{fill:#e09c63;}.cls-15{fill:#161618;}.cls-16{fill:#bfcfb8;}.cls-17{fill:#86a49d;}.cls-18{fill:#db5100;}.cls-19{fill:#cddac9;}.cls-20{fill:#d8e2d4;}.cls-21{fill:#434545;}.cls-22{fill:#686a6a;}.cls-23{fill:#ffc03b;}.cls-24{fill:#ffd54d;}.cls-25{fill:#c34100;}.cls-26{fill:#3f5b72;}.cls-27{fill:#618979;}.cls-28{fill:#003f64;}.cls-29{fill:#045175;}.cls-30{fill:#fcfdff;}.cls-31{fill:#eaeaea;}.cls-32{fill:#6a80a7;}.cls-33{fill:#c8c7c4;}.cls-34{fill:#616363;}.cls-35{fill:#e57423;}.cls-36{fill:#ff8600;}.cls-37{fill:#be5900;}.cls-37,.cls-43,.cls-44,.cls-57{mix-blend-mode:multiply;}.cls-38{fill:#4c4c4e;}.cls-39{fill:#e18802;}.cls-40{fill:#a34503;}.cls-41{fill:#bdbdb9;}.cls-42{fill:#3b3b30;}.cls-43{fill:#9dc4a7;}.cls-44{fill:#bb3e00;}.cls-45{fill:#59595b;}.cls-46{fill:#3e3e40;}.cls-47{fill:#196482;}.cls-48{fill:#1c688a;}.cls-49{fill:#da3f3c;}.cls-50{fill:#a8020b;}.cls-51{fill:#be1513;}.cls-52{fill:#900000;}.cls-53{fill:#e17200;}.cls-54{fill:#e5ebeb;}.cls-55{fill:#bbddbd;}.cls-56{fill:#cfe7d1;}.cls-57{fill:#84b3d9;}.cls-58{fill:#c5e2c7;}.cls-59{fill:#6ab1a7;}.cls-60{fill:#e2a46f;}.cls-61{fill:#c4734e;}.cls-62{fill:#ffd15b;}.cls-63{fill:#eaa671;}.cls-64{fill:#89310b;}.cls-65{fill:#cf3b39;}.cls-66{fill:#ab0000;}.cls-67{fill:#f9c794;}.cls-68{fill:#941919;}.cls-69{fill:#ff655c;}.cls-70{fill:#e79036;}.cls-71{fill:#ffe56f;}.cls-72{fill:#54544a;}</style></defs><g class="cls-1"><g id="Layer_2" data-name="Layer 2"><g id="Layer_1-2" data-name="Layer 1"><path class="cls-2" d="M15.41,70c0,8.2,17.91,25.54,17.91,25.54a24.28,24.28,0,0,0,4.73-2.63c2-1.45,3.25-4.19,3.25-8,0-8.21-5.8-18.21-12.95-22.33S15.41,61.77,15.41,70Z"/><ellipse class="cls-3" cx="27.5" cy="78.43" rx="10.54" ry="18.25" transform="translate(-35.82 24.6) rotate(-30.31)"/><ellipse class="cls-2" cx="26.16" cy="78.94" rx="10.54" ry="18.25" transform="translate(-36.27 24) rotate(-30.31)"/><ellipse class="cls-4" cx="24.5" cy="79.5" rx="10.54" ry="18.25" transform="translate(-36.77 23.23) rotate(-30.31)"/><ellipse class="cls-5" cx="24.5" cy="79.49" rx="9.97" ry="17.27" transform="translate(-36.77 23.23) rotate(-30.31)"/><path class="cls-2" d="M32.89,85a7.11,7.11,0,0,1-1.45,4.72,2.5,2.5,0,0,1-.32.33,4.3,4.3,0,0,1-1.43.91,3,3,0,0,1-.51.14A7,7,0,0,1,24.07,90,17.18,17.18,0,0,1,19,85.2c-.18-.26-.37-.53-.54-.8a18.31,18.31,0,0,1-3.16-9.57,9.5,9.5,0,0,1,.25-2.23,3.91,3.91,0,0,1,.17-.61c1.09-3.31,4.21-4.39,8-2.46l.45.26.41.25c.24.14.47.31.71.48a13.74,13.74,0,0,1,1.42,1.17,20.67,20.67,0,0,1,5.21,7.89,15.63,15.63,0,0,1,.51,1.6c.05.16.09.31.13.47a8,8,0,0,1,.18.82A13.07,13.07,0,0,1,32.89,85Z"/><path class="cls-6" d="M33.32,84.59a7.09,7.09,0,0,1-1.45,4.71,2.5,2.5,0,0,1-.32.33,4,4,0,0,1-1.43.91,3.17,3.17,0,0,1-.5.15,7,7,0,0,1-5.12-1.07,17.22,17.22,0,0,1-5.12-4.84c-.18-.25-.37-.52-.54-.8a18.36,18.36,0,0,1-3.15-9.57,9.53,9.53,0,0,1,.24-2.23,3.78,3.78,0,0,1,.17-.6c1.09-3.31,4.21-4.4,8-2.46.15.08.3.16.45.26a4.36,4.36,0,0,1,.41.24c.24.15.47.32.71.48A15.17,15.17,0,0,1,27,71.27a20.7,20.7,0,0,1,5.21,7.89,15,15,0,0,1,.51,1.61,4,4,0,0,1,.13.46,8.21,8.21,0,0,1,.18.83A12.91,12.91,0,0,1,33.32,84.59Z"/><path class="cls-7" d="M27.27,88.29a16.82,16.82,0,0,1-5.12-4.83c-.19-.26-.37-.53-.54-.8a18.38,18.38,0,0,1-3.16-9.58,9.48,9.48,0,0,1,.25-2.22,3.62,3.62,0,0,1,.17-.61,5.39,5.39,0,0,1,1.18-2.06,4.55,4.55,0,0,0-3.95,3.38,4.24,4.24,0,0,0-.17.61,9.57,9.57,0,0,0-.25,2.23A18.34,18.34,0,0,0,18.84,84c.18.28.36.54.54.8a17.09,17.09,0,0,0,5.12,4.84,7,7,0,0,0,5.12,1.07,4,4,0,0,0,2.08-1.22A7.53,7.53,0,0,1,27.27,88.29Z"/><path class="cls-8" d="M28.24,80.23l3.63,9.07a2.5,2.5,0,0,1-.32.33s-1.39.9-1.43.91L26,81.11l-3.83,2.45c-.35.34-2.59,1.5-2.77,1.22l4.77-7.07-8-6.13c0-.22,1.77-.85,1.83-1l7,5.14.73-5.58A15.17,15.17,0,0,1,27,71.27l.66,6,4.55,1.9c.2.53.5,1.53.64,2.07Z"/><path class="cls-9" d="M22.32,78.74,18.84,84c.18.28.36.54.54.8L24.5,82l5.12,8.74a4.13,4.13,0,0,0,.5-.15l-3.71-9.27,6.66.79c0-.27-.11-.55-.18-.83l-7-2.93-.95-8.68-.41-.25-.45-.25-1,7.59L16.1,71.57a4.24,4.24,0,0,0-.17.61Z"/><path class="cls-10" d="M19.23,75.26a11.49,11.49,0,0,0,2,6c.11.18.23.34.34.5a10.49,10.49,0,0,0,3.2,3,4.41,4.41,0,0,0,3.2.68l.31-.1c1.22-.45,2-1.76,2-3.72A7.92,7.92,0,0,0,30.09,80a4.59,4.59,0,0,0-.1-.51,12.48,12.48,0,0,0-5-7.26c-.09,0-.17-.11-.26-.15L24.46,72c-2.34-1.21-4.29-.53-5,1.53a2.36,2.36,0,0,0-.1.38A5.47,5.47,0,0,0,19.23,75.26Z"/><path class="cls-11" d="M18.73,75.51a11.45,11.45,0,0,0,2,6c.11.17.22.34.34.5a10.51,10.51,0,0,0,3.2,3,4.37,4.37,0,0,0,3.19.67,1.58,1.58,0,0,0,.31-.09c1.23-.46,2-1.76,2-3.72a8.55,8.55,0,0,0-.16-1.58c0-.17-.07-.35-.11-.52a12.51,12.51,0,0,0-5-7.26l-.25-.15L24,72.2c-2.33-1.21-4.29-.53-5,1.53a2.5,2.5,0,0,0-.11.39A5.9,5.9,0,0,0,18.73,75.51Z"/><path class="cls-5" d="M95.85,45.05a2.33,2.33,0,0,0,1.48,1.53c.62.16,1-.27.78-.95a2.35,2.35,0,0,0-1.48-1.53C96,43.94,95.66,44.37,95.85,45.05Z"/><path class="cls-12" d="M83.54,38.63c-.88.3-.85,1.32-1.24,1.43l-.11,0a.86.86,0,0,1-.72,0l-.26-.22c-.5-.47-1.51-1.49-1.63-1.63-.65-.73-2-4.65-2.73-5.36-.36-.37-1.14-1.23-1.8-2l-1.18-1.3,5.07-5s.67.86,1.37,1.8c.54.74,1.09,1.51,1.38,2,.67,1.17,3.27,6.32,3.27,6.32a1.72,1.72,0,0,1,.08.36C85.21,35.9,85.41,38,83.54,38.63Z"/><path class="cls-13" d="M98.32,46.87l-.33.31a3.83,3.83,0,0,1-.2.94.46.46,0,0,1-.53.25v.08a1.58,1.58,0,0,1-.56.6.66.66,0,0,1-.49,0l-.15.3a4.23,4.23,0,0,0,.41.15c.14,0,.24.62.19,1s-.83.16-1.09.21L94.19,51a3.48,3.48,0,0,1-1.13-.59c-.37-.24-.74-.51-1-.72a1.62,1.62,0,0,1-.52-.56,7.83,7.83,0,0,1-.65-1.79,9.8,9.8,0,0,0-1.56-2.49,6.64,6.64,0,0,0-3.6-2.09,12.49,12.49,0,0,1-3.15-1.63,7.25,7.25,0,0,1-1.34-1.25,3.65,3.65,0,0,1,.29-.32h0s-.73-1-.71-1c.79-1.91,1.91-1.05,2.41-1.91,1.08-1.83,1.34-1.89,1.83-1.53.74.52,1.69,1.25,2.41,1.84,1.21,1,3.79,3.64,4.13,4s1,.46,1.55,1.05A3.47,3.47,0,0,0,95.65,43c1.62.26,2.14.58,2.36,1A16.68,16.68,0,0,1,98.32,46.87Z"/><path class="cls-14" d="M93.28,47a16.66,16.66,0,0,1,.37,1.63,1.84,1.84,0,0,0,.73,1.11,11.71,11.71,0,0,0,1.56,0l.2.13H95a1,1,0,0,1-1.15-.45c-.42-.6-1-1.16-.94-1.59S92.73,46.25,93.28,47Z"/><path class="cls-14" d="M87.6,43.14C87.36,43,87,43,86.76,43l-1.06-.23a12.49,12.49,0,0,1-3.15-1.63,7.25,7.25,0,0,1-1.34-1.25c-.5-.47-1.51-1.49-1.63-1.63-.65-.73-2-4.65-2.73-5.36-.36-.37-1.14-1.23-1.8-2L78.59,25s.85.66,1.76,1.41a9,9,0,0,1,.06,1.87c-.1,1.35-.71,2.9-2,3.21,1.2,1,.2,5.29,1.61,5.94.41.2,1.11,1.63,1.53,2.07l.08.07a1.85,1.85,0,0,1,.27.19l0,0,.3.28a5.77,5.77,0,0,0,.69.62c.29.22.51.55.82.74.16.1.4.1.53.2s.13.19.2.26a1.05,1.05,0,0,0,.3.22,2.92,2.92,0,0,0,.7.25A20.65,20.65,0,0,1,87.6,43.14Z"/><polygon class="cls-5" points="92.5 47.15 89.81 49.17 91.46 51.64 94 49.61 94.2 47.7 92.5 47.15"/><path class="cls-15" d="M89.54,50.11A2.35,2.35,0,0,0,91,51.63c.63.16,1-.26.78-1a2.35,2.35,0,0,0-1.47-1.52C89.7,49,89.35,49.42,89.54,50.11Z"/><path class="cls-16" d="M88.33,48.38s.94-.31,2.15,1,3.66,4.2,3.93,5.09.11,2.34-3,.82-3.57-1.43-4.09-2.92S85.68,49.18,88.33,48.38Z"/><path class="cls-17" d="M89.86,47.6s.94-.31,2.14,1a23.09,23.09,0,0,1,3.4,5.27c.28.89-.52,3-3.67,1.49s-4.07-3-4.59-4.52S87.21,48.4,89.86,47.6Z"/><path class="cls-18" d="M90.27,59.35l3.37-2.67s4.3-3.37-4.34-8.12c-2-1.12-3.74,2.52-3.74,2.52Z"/><path class="cls-16" d="M93.27,35A8.59,8.59,0,0,1,91,40.71c-1.27,1.11-2.3.35-2.3-1.7A8.55,8.55,0,0,1,91,33.29C92.25,32.18,93.27,32.94,93.27,35Z"/><path class="cls-19" d="M93.56,35.37A6.92,6.92,0,0,1,91.7,40c-1,.9-1.85.29-1.85-1.37A7,7,0,0,1,91.7,34C92.73,33.1,93.56,33.71,93.56,35.37Z"/><path class="cls-20" d="M92.68,38.94c.2,2.21-.94,11.55-.94,11.55l-.16.73L90.82,51s1.2-10.92,1-13.77a4.7,4.7,0,0,1,.19-1C92.16,35.92,92.54,37.35,92.68,38.94Z"/><path class="cls-11" d="M14.78,70.93a11.49,11.49,0,0,0,2,6c.11.18.23.34.34.5a10.49,10.49,0,0,0,3.2,3,4.41,4.41,0,0,0,3.2.68l.31-.1c1.22-.45,2-1.76,2-3.72a7.92,7.92,0,0,0-.16-1.58,3.1,3.1,0,0,0-.11-.51,12.39,12.39,0,0,0-5-7.26c-.09,0-.17-.11-.26-.15L20,67.63c-2.34-1.21-4.29-.53-5,1.53a2.36,2.36,0,0,0-.1.38A5.47,5.47,0,0,0,14.78,70.93Z"/><path class="cls-21" d="M50.73,88.75l-14-6.3s-16.37-5.55-17.11-6.8-5.21-6.08-3.49-5.93,7.94,3.16,15.48,7S49,84.44,50.73,88.75Z"/><path class="cls-22" d="M16.18,70.45c-1.24-.14-1.58,1.53-.59,3.13.83,1.32,2.56,2.9,6.11,4.11,7.49,2.54,14.16,4.89,14.16,4.89s-1.55-3-7.38-6.41C24,73.56,18.63,70.71,16.18,70.45Z"/><path class="cls-22" d="M31.23,73.15s-1.11,4.58,7.33,10.71,11.63,8.84,11.9,6.86.91-4.91.91-4.91Z"/><path class="cls-2" d="M83.31,111.47c0,8.21,17.91,25.55,17.91,25.55a24.7,24.7,0,0,0,4.72-2.63c2-1.45,3.26-4.19,3.26-8,0-8.2-5.8-18.2-13-22.33S83.31,103.27,83.31,111.47Z"/><ellipse class="cls-3" cx="95.4" cy="119.92" rx="10.54" ry="18.25" transform="translate(-47.48 64.54) rotate(-30.31)"/><ellipse class="cls-2" cx="94.06" cy="120.44" rx="10.54" ry="18.25" transform="translate(-47.93 63.93) rotate(-30.31)"/><path class="cls-23" d="M109.41,110.56a3.11,3.11,0,0,1-.64,1.4,5.46,5.46,0,0,1-3.31,2.35,4.1,4.1,0,0,1-2.85-.49c-4.78-2.56-7.07-10-9.64-10.63-2-.53-6.69-.23-8.66-.08l-.7.06-.2,0,2.18-9.49.17-.73.08-.35L86,92a4.54,4.54,0,0,1,2.44-1.93,4.61,4.61,0,0,1,1.41-.25h0a4.68,4.68,0,0,0,.53,0,0,0,0,0,0,0,0,11.06,11.06,0,0,1,5.68,2.52c.57.42,1.17.92,1.79,1.48A42.47,42.47,0,0,1,109.41,110.56Z"/><path class="cls-24" d="M108.77,112a5.46,5.46,0,0,1-3.31,2.35,4.1,4.1,0,0,1-2.85-.49c-.92-.15-3.4-2.32-6.42-4.46-1.29-2-2.39-3.62-3.55-3.92-2-.52-6.68-.23-8.65-.07l-.9.07.52-2.27L85.27,96l.25-1.08.15-.64a3.1,3.1,0,0,1,.3-.44,4.59,4.59,0,0,1,.86-.83,4.52,4.52,0,0,1,1.28-.67,4.61,4.61,0,0,1,1.41-.25h0a4.68,4.68,0,0,0,.53,0,0,0,0,0,0,0,0,11,11,0,0,1,5.68,2.53c.57.42,1.17.91,1.79,1.47A43.47,43.47,0,0,1,108.77,112Z"/><path class="cls-23" d="M105.64,113.71a1.54,1.54,0,0,1-.18.6,4.1,4.1,0,0,1-2.85-.49c-.92-.15-3.4-2.32-6.42-4.46a37.6,37.6,0,0,0-4.4-2.74,6.41,6.41,0,0,0-4.41-.52,53.72,53.72,0,0,0-6.84.17c-.56,0-.9.07-.9.07l2.18-9.48.25-1.08.15-.65a4.32,4.32,0,0,1,1.16-1.25,4.07,4.07,0,0,1,1.28-.68,5,5,0,0,1,1.1-.23l.31,0h.57l.19,0a11.32,11.32,0,0,1,5.49,2.5c.57.43,1.17.92,1.79,1.48A42.54,42.54,0,0,1,105.64,113.71Z"/><path class="cls-25" d="M76.61,104.36a26.48,26.48,0,0,1-4.49,3.48c-.69-.51-2.32.7-3.91-.18-4.64-2.54-10.92-6.47-12.93-6.69-.4,0-1.36-2.19-1.87-2.31a19.91,19.91,0,0,1-5.36-6.21c-.14-.29-.2-.44-.2-.44s-1.79-4.58-2.5-13.52c-.7-8.77,5.35-8.86,5.57-8.86-.2-.23-3.5-3.71-5.75-6.59S24.66,50.93,17.34,50.26a12.19,12.19,0,0,0-4.86.59c2.38-1.72,10.89-5.51,14.73-5.35,11.51.46,29.64,7,32,10s.19,5.87.39,6.1c-.22,0-.92.58-.21,9.35.71,8.94,2.5,13.52,2.5,13.52h0c.6.5,16,13.17,18.35,14.09C81.15,98.91,75.4,104.45,76.61,104.36Z"/><path class="cls-26" d="M20.38,40.58a51.33,51.33,0,0,0,1.75,5.65,40.05,40.05,0,0,0,3.15,3.93,4.23,4.23,0,0,1-2.38.21c-.95-.35-3-2.28-2.94-1.92s-1.38-1.18-2.8-3.17S8.34,37.47,8.35,36,20.38,40.58,20.38,40.58Z"/><path class="cls-27" d="M76.61,104.36a26.48,26.48,0,0,1-4.49,3.48c-.69-.51-2.32.7-3.91-.18-4.64-2.54-10.92-6.47-12.93-6.69-.4,0-1.36-2.19-1.87-2.31a19.91,19.91,0,0,1-5.36-6.21c-.14-.29-.2-.44-.2-.44l14-7.55h0c.6.5,16,13.17,18.35,14.09C81.15,98.91,75.4,104.45,76.61,104.36Z"/><path class="cls-28" d="M77.29,70.62c0,.23,0,.47,0,.71A17.55,17.55,0,0,1,77,74a17.09,17.09,0,0,1-.86,2.59l-2.32,5.94a18.82,18.82,0,0,1-1.9,4h0a8.57,8.57,0,0,1-3.48-1,4.45,4.45,0,0,1-.48-.26,3.13,3.13,0,0,1-1.73-2.46,2.64,2.64,0,0,1,0-.66,3.67,3.67,0,0,0,1.25-2.28,13.52,13.52,0,0,1,1.84-4.42c.6-.75,0-2.33,0-2.34-.34-.89,2.73-1.13,3.16-1.29a10.07,10.07,0,0,0,2.27-1.72l2.54-2A14.66,14.66,0,0,1,77.29,70.62Z"/><path class="cls-29" d="M56.93,58.89a3.22,3.22,0,0,0,0,.62,4.94,4.94,0,0,0,.69,1.87,12.39,12.39,0,0,0,2.68,2.92l.52.4s5.28,6.16,6.67,7.17a5.27,5.27,0,0,0,5.26,1,9.18,9.18,0,0,0,3.48-2.74,3.22,3.22,0,0,0,1-1.72c.11-1.1-.85-2.1-.68-3.18l.23.29c-1.77-3.1-3.6-6.17-5.31-9.3a15.35,15.35,0,0,0-6-6.05c-1.56-.75-4-1.57-4-1.57a59.68,59.68,0,0,0-4.1,8.59A8.61,8.61,0,0,0,56.93,58.89Z"/><path class="cls-5" d="M81,63.06a53.22,53.22,0,0,0-5.73.51c0,.22,1.83,10.62,2.47,14.58s2.12,12.51.09,16.12l-2,3.61s-6.13,6.06-4.28,8.24,9.4-5.15,9.4-5.15,8.74-6.72,8.14-12S81,63.06,81,63.06Z"/><path class="cls-30" d="M44.11,24c0,2.79-.62,14.31-.94,15.8S26.89,50.06,24.34,48.6c-2-1.18-4.12-10-5.62-14.08a5,5,0,0,0-1-1.94c-1.47-1-2-2.62-2.11-6.42s-13.22-9.1-13.22-9.1C5.13,13.81,18.87,6.64,20.54,7.59c0,0,11.58,6.06,16.5,9.11,2.8,1.75,4.71,3,5.82,4.23A4.34,4.34,0,0,1,44.11,24Z"/><path class="cls-31" d="M44.11,24c0,2.79-.62,14.31-.94,15.8s-13.88,8.52-19.29,9.45c0,0,.86-12.86-.65-16.91L42.86,20.93A4.34,4.34,0,0,1,44.11,24Z"/><path class="cls-32" d="M18,40.79a53.09,53.09,0,0,0,1.74,5.64,42,42,0,0,0,3.15,3.94,26,26,0,0,1-3.51-.66c-.95-.35-1.9-1.41-1.81-1.05s-1.37-1.19-2.8-3.17S6,37.67,6,36.24,18,40.79,18,40.79Z"/><path class="cls-33" d="M3.37,17.31s9.92,5.11,14.83,8.17,7.08,4.53,7.08,7.31-.63,14.3-1,15.8-2,.51-4.59-1S3.69,37.35,2.22,36.36s-2-2.61-2.11-6.42-.31-5.25.52-8.5S1.71,16.37,3.37,17.31Z"/><path class="cls-21" d="M46,91.25,32,85s-14.25-1.76-20.66-7.6c-1.08-1-1.65-5.28.06-5.13s7.94,3.16,15.49,7S44.28,86.94,46,91.25Z"/><path class="cls-22" d="M12.83,73.61c-1.24-.13-1.58,1.54-.58,3.13.83,1.33,2.93,2.37,6.48,3.58,1.66.56,3.19,1.11,4.57,1.62a1.53,1.53,0,0,0,1.34-2.72l-.92-.55C19.22,76.06,15.28,73.87,12.83,73.61Z"/><path class="cls-22" d="M26.47,75.65s-1.1,4.58,7.33,10.71,11.64,8.84,11.91,6.86.91-4.91.91-4.91Z"/><ellipse class="cls-4" cx="92.4" cy="120.99" rx="10.54" ry="18.25" transform="translate(-48.43 63.17) rotate(-30.31)"/><ellipse class="cls-5" cx="92.4" cy="120.99" rx="9.97" ry="17.27" transform="translate(-48.43 63.17) rotate(-30.31)"/><path class="cls-2" d="M100.79,126.5a7.09,7.09,0,0,1-1.45,4.71,2.5,2.5,0,0,1-.32.33,4,4,0,0,1-1.43.91,4.28,4.28,0,0,1-.51.15A7,7,0,0,1,92,131.52a17.05,17.05,0,0,1-5.12-4.83c-.18-.26-.37-.52-.54-.8a18.28,18.28,0,0,1-3.16-9.57,9.5,9.5,0,0,1,.25-2.23,3.78,3.78,0,0,1,.17-.6c1.09-3.31,4.21-4.4,8-2.46l.45.25.41.25c.24.15.47.31.7.48a14.08,14.08,0,0,1,1.43,1.17,20.68,20.68,0,0,1,5.2,7.89,13.56,13.56,0,0,1,.52,1.6c0,.16.09.32.13.47s.13.55.18.83A12.91,12.91,0,0,1,100.79,126.5Z"/><path class="cls-6" d="M101.22,126.08a7.11,7.11,0,0,1-1.45,4.72,2.5,2.5,0,0,1-.32.33A4.3,4.3,0,0,1,98,132a3,3,0,0,1-.51.14,7,7,0,0,1-5.11-1.07,17.18,17.18,0,0,1-5.12-4.83c-.18-.26-.37-.53-.54-.8a18.31,18.31,0,0,1-3.16-9.57,9.5,9.5,0,0,1,.25-2.23,3.91,3.91,0,0,1,.17-.61c1.09-3.31,4.21-4.39,8-2.46l.45.26.41.25c.24.15.47.31.71.48a13.74,13.74,0,0,1,1.42,1.17,20.67,20.67,0,0,1,5.21,7.89,15.63,15.63,0,0,1,.51,1.6c0,.16.09.31.13.47a8,8,0,0,1,.18.82A13.07,13.07,0,0,1,101.22,126.08Z"/><path class="cls-7" d="M95.17,129.79A16.86,16.86,0,0,1,90.05,125c-.19-.26-.37-.52-.54-.8a18.34,18.34,0,0,1-3.16-9.57,9,9,0,0,1,.25-2.23,3.91,3.91,0,0,1,.17-.61,5.27,5.27,0,0,1,1.18-2,4.54,4.54,0,0,0-4,3.38,3.62,3.62,0,0,0-.17.61,9.48,9.48,0,0,0-.25,2.22,18.38,18.38,0,0,0,3.16,9.58c.17.27.36.54.54.8a16.82,16.82,0,0,0,5.12,4.83,7.08,7.08,0,0,0,5.12,1.08A2.91,2.91,0,0,0,98,132,4.2,4.2,0,0,0,99.6,131,7.61,7.61,0,0,1,95.17,129.79Z"/><path class="cls-8" d="M96.14,121.73l3.63,9.07a2.5,2.5,0,0,1-.32.33s-1.39.9-1.43.91l-4.14-9.44-3.83,2.45c-.36.35-2.6,1.5-2.77,1.23l4.77-7.07-8-6.14c0-.22,1.77-.84,1.83-1l7,5.13.73-5.57a13.74,13.74,0,0,1,1.42,1.17l.66,6,4.55,1.9c.2.53.5,1.53.64,2.07Z"/><path class="cls-9" d="M90.22,120.23l-3.48,5.25c.17.27.36.54.54.8l5.12-2.84,5.12,8.75A2.91,2.91,0,0,0,98,132l-3.71-9.27,6.66.79c0-.27-.11-.55-.18-.82l-7-2.94-1-8.68-.41-.24-.45-.25-1,7.58-7-5.13a3.62,3.62,0,0,0-.17.61Z"/><path class="cls-10" d="M87.13,116.75a11.52,11.52,0,0,0,2,6l.34.5a10.62,10.62,0,0,0,3.2,3,4.4,4.4,0,0,0,3.2.67,1.58,1.58,0,0,0,.31-.09c1.22-.46,2-1.76,2-3.72a7.94,7.94,0,0,0-.16-1.59,3.34,3.34,0,0,0-.11-.51,12.45,12.45,0,0,0-5-7.26l-.26-.15-.28-.16c-2.34-1.21-4.29-.53-5,1.53a3.64,3.64,0,0,0-.11.39A5.9,5.9,0,0,0,87.13,116.75Z"/><path class="cls-11" d="M86.63,117a11.42,11.42,0,0,0,2,6c.11.18.22.34.34.5a10.35,10.35,0,0,0,3.19,3,4.41,4.41,0,0,0,3.2.68l.31-.1c1.23-.45,2-1.76,2-3.72a8.61,8.61,0,0,0-.15-1.58c0-.17-.07-.34-.11-.51a12.45,12.45,0,0,0-5-7.26l-.26-.16-.28-.15c-2.34-1.21-4.29-.53-5,1.53,0,.12-.07.25-.1.38A5.9,5.9,0,0,0,86.63,117Z"/><path class="cls-21" d="M84.14,96.07s3.45,9.51,3.74,10c.9,1.51,3,.47,4.49,6.12,1.28,4.85,3.3,13.19,2.17,13.56S91,123.5,89.21,117.7s-5.9-19.58-5.9-19.58Z"/><path class="cls-34" d="M83.79,98.44s3.11,8.59,3.38,9c.81,1.36,2.36-.68,3.7,4.41,1.16,4.38,2.94,11.49,2.92,13.23,0,1.07-2.81-2.44-3.8-7.83-1.18-6.36-3.84-3.18-6.95-17C82.93,99.8,83.79,98.44,83.79,98.44Z"/><path class="cls-35" d="M102.61,113.82c-.92-.15-3.4-2.32-6.42-4.46a37.6,37.6,0,0,0-4.4-2.74,6.41,6.41,0,0,0-4.41-.52c-2.36.49-4.47,1.93-6.12,2.29a2.5,2.5,0,0,1-1.24,0,5.75,5.75,0,0,1-3.41-2l2.58-5.13L81.37,97s.31-2.32,2-3.13A3,3,0,0,1,85,93.61a3.75,3.75,0,0,1,.57.09l.38.1a12.36,12.36,0,0,1,4.32,2.59h0l.78.68A42.61,42.61,0,0,1,102.61,113.82Z"/><path class="cls-36" d="M95.49,108.12a5.7,5.7,0,0,1,2.45.83,5.53,5.53,0,0,1,1.06.39c-1.93-3.58-5.78-9.16-11.87-11.5,0,0-1.78,3.47-3,5.8a15.42,15.42,0,0,1,4,.29,12.2,12.2,0,0,1,4.9,1.86A13.5,13.5,0,0,1,95.49,108.12Z"/><path class="cls-37" d="M96.09,92.32a3.46,3.46,0,0,1-1.22,2.14c-1.52,1-3.19,1.92-4.57,1.93h0c-1.39,0-2.67-.94-3.4.94-.33.85-1.37,3.29-2.58,5.78a32.2,32.2,0,0,1-3,5.28,2.5,2.5,0,0,1-1.24,0,5.75,5.75,0,0,1-3.41-2l2.58-5.13c1.83-2.47,4-5.41,5.83-7.71.28-.35.55-.68.82-1a14.74,14.74,0,0,1,2.59-2.57,1.14,1.14,0,0,1,.64-.26h.78a4.68,4.68,0,0,0,.53,0,0,0,0,0,0,0,0A11.06,11.06,0,0,1,96.09,92.32Z"/><path class="cls-24" d="M95.06,92.55S93.83,94.46,90.3,95a5.45,5.45,0,0,1-.75-1.32c-.88-2-2.38-6.83-6-14.49-5-10.77-8.31-12.91-8.69-13.51a9.58,9.58,0,0,0-.65-1,2.41,2.41,0,0,1-.19-.64c.18-1.67,13.13-4.23,13.13-4.23s.59,0,5.53,10.55S95.06,92.55,95.06,92.55Z"/><path class="cls-38" d="M74.89,109a48.54,48.54,0,0,0,5.43-2.91c2.21-1.46,4.05-8.28,5.37-9.54a10.24,10.24,0,0,0,2-3s-3.43-1-5.72,3.81A127.38,127.38,0,0,1,75.31,109Z"/><path class="cls-39" d="M90.3,95a4.74,4.74,0,0,0-.53-.17,5.38,5.38,0,0,0-.93-.19,4.73,4.73,0,0,0-4.78,2.55c-1.59,2.64-4,7.27-7,10.15a8.17,8.17,0,0,1-5,2.53c-5.53.28-4.09-.67-8.73-3.21s-8.56-5.08-10.59-5.29S42.08,92.5,42.08,92.5,36,82.18,35.54,81.76s-1.67-1.57-2-1.54S17.4,75.33,11.47,69.45s-4.73-5-4.73-5,2.12-12.49,7-14.1c1.5-.49,3.22-1.16,4.86-.6,19.93,6.83,23,11.41,25.32,14.39s6.81,5.24,7,5.47c-.22,0-6.27.09-5.57,8.86.71,8.94,2.5,13.52,2.5,13.52s3.95,3.26,8.22,6.65,8.93,7,10.16,7.44a6.15,6.15,0,0,0,4.94.17,10.13,10.13,0,0,0,3-2.07,23.09,23.09,0,0,0,2.57-2.94c4.94-6.57,6-10.25,5.6-12.61s-7.15-18.49-7-20.16c0-.36-1.48-3.41-1.51-3.71s.16-.27.38,0a9.58,9.58,0,0,1,.65,1c.38.6,3.66,2.74,8.69,13.51,3.59,7.66,4.92,12.13,6,14.49A5.88,5.88,0,0,0,90.3,95Z"/><path class="cls-40" d="M83,98.5a35.53,35.53,0,0,1-5.66,7.81,8.17,8.17,0,0,1-5,2.53c-5.53.28-4.1-.67-8.74-3.21s-8.55-5.08-10.58-5.29-10.58-8.91-10.58-8.91-6.06-10.32-6.54-10.74-1.67-1.57-2-1.54S17.67,74.26,11.74,68.38a68.62,68.62,0,0,1-4.8-4.95c-.13.65-.2,1-.2,1s-1.22-.91,4.73,5S33.23,80.22,33.58,80.22s1.49,1.13,2,1.54S42.08,92.5,42.08,92.5s8.57,8.7,10.58,8.91,6,2.75,10.59,5.29,3.2,3.49,8.73,3.21a8.17,8.17,0,0,0,5-2.53c2.82-2.66,5.06-6.8,6.65-9.5A5.33,5.33,0,0,1,83,98.5Z"/><path class="cls-37" d="M31.11,54.4a1.46,1.46,0,0,0,.32,2.54c1.93,1.18,10.14,6.43,11.6,9.36s3.33,6.13,3.33,6.13A11.07,11.07,0,0,1,49,74.11c.64.79,1.51,4.11,1.18,9a35.18,35.18,0,0,0,.52,7.18s5.6,3.85,6.19,4.71,4.59,4.78,4.59,4.78L61,93l-6.8-4.77A60.77,60.77,0,0,1,54,81.36C54.15,79,54.3,76,54.3,76s.57,8.76,2.32,11.52C57,88.19,71,96.83,71,96.83l-4.45-7.45L61.11,87.7l-1.78-5.27s-.81-5.9-1.15-7.91c-.78-4.63.31-6.17.31-6.17Z"/><path class="cls-41" d="M75.46,95.59a2.31,2.31,0,0,1-2.2,2.25c-1.72.08-3.82-2-4.22-2.53S68.21,93,67.4,92s-4.45-2.85-4.14-4c.13-.51.26-1,.42-1.45a.08.08,0,0,0,0,0,4.91,4.91,0,0,1,.9-1.69,3.87,3.87,0,0,1,1.75-1.07,3.41,3.41,0,0,0,1.53,1.64,4.45,4.45,0,0,0,.48.26,9,9,0,0,0,3,1l.08.06A6.21,6.21,0,0,0,72,89.05c.46.48,1.33,2.73,1.6,2.93a2.87,2.87,0,0,1,1.89,2.39A5.47,5.47,0,0,1,75.46,95.59Z"/><path class="cls-42" d="M75.73,94.85a3,3,0,0,1-.27.74,2.2,2.2,0,0,1-1.9,1.24c-1.71.08-3.81-2-4.22-2.53A28,28,0,0,0,67.71,91c-.81-1-4.46-2.84-4.14-4l.11-.44a.08.08,0,0,0,0,0,6.77,6.77,0,0,1,1.21-2.71,3.16,3.16,0,0,1,1.24-.87,2.38,2.38,0,0,0,.2.82,3.41,3.41,0,0,0,1.53,1.64,4.45,4.45,0,0,0,.48.26,9,9,0,0,0,3,1c.24,0,.41,0,.49,0,.09.56.3,1.11.37,1.84.1,1.07,1.06,1.6,1.7,2.43C74.74,92,76.06,93.34,75.73,94.85Z"/><path class="cls-43" d="M58.7,60.71a3.18,3.18,0,0,0-.48,1c-.13.49.06.61.38,1a15.39,15.39,0,0,0,1.71,1.62l.52.4s5.28,6.16,6.67,7.17c.46.34,1,.81,1.77,1.29,0,0,.61,1.59,0,2.34a13.52,13.52,0,0,0-1.84,4.42,3.63,3.63,0,0,1-1.25,2.28,2.92,2.92,0,0,0,1.69,3.12,3.77,3.77,0,0,0,.48.26,16.54,16.54,0,0,0,1.22-3.12,32.41,32.41,0,0,0,1.61-8.26c0-.7.08-1.42.08-2.14a1.16,1.16,0,0,0-.14-.66,1.15,1.15,0,0,0-.61-.41c-1.71-.7.59-5.46-1.22-5.88-3.36-.78-7-1.66-9.25-4.47a1,1,0,0,0-.56-.44c-.3-.05-.56.2-.74.44A.43.43,0,0,1,58.7,60.71Z"/><path class="cls-44" d="M75.28,68.14a13.77,13.77,0,0,0,.31,1.55c.18.61,2.65,0,2.65,0s-.19-.59.86-1c1.64-.61-.08.19,4.16-.9,2.47-.64,5.34-2.77,5.38-3.32s0-.63.14-.86l.43-.58-1.1-1.82S74.93,63.29,75.28,68.14Z"/><path class="cls-23" d="M12.64,67.3s2.63-22.28,25-1c7.19,6.85,4.06,20.38,4.06,20.38s-1.85,1.14-2.63.68C33.82,84.32,14.85,70.79,12.64,67.3Z"/><path class="cls-39" d="M10.94,67.62s2.63-22.28,25-1C43.12,73.52,40,87.05,40,87.05s-.77.47-.93.36C32.62,83.13,13,70.87,10.94,67.62Z"/><path class="cls-45" d="M42.1,40.86c-5,0-11,2.73-10.66,4.83.58,3.91,3.69,5.78,5.08,7.2s11.33,9.37,12.31,11.37.93,9.09.93,9.09l10.67-5.86s2.23-4.72,1.88-8.07S61,53.76,57,51.63s-5.91-3-9.42-6.77S42.44,40.87,42.1,40.86Z"/><path class="cls-46" d="M49.1,59s-7.91-5.6-7-7.83c.77-2,3.47-4.59,9.21-2.09S63.46,59.35,63.46,59.35l-3,8.14L52.94,71.6S54.86,62.54,49.1,59Z"/><path class="cls-5" d="M31.44,45.69s-.59.74-.47,4.7-.6,3.58.8,5S43.1,64.76,44.08,66.76s3,5.44,3,5.44l2.65,1.15s2.23-4.72,1.87-8.06-1.31-5.67-5.29-7.8-5.92-3-9.43-6.77S31.58,45.38,31.44,45.69Z"/><path class="cls-41" d="M66.6,98.08c.18.51.42.65.26,1.21a1.81,1.81,0,0,1-.72,1.15,5.05,5.05,0,0,1-1.72.42,4.36,4.36,0,0,1-3.79-2c-.47-.69-1.07-1.25-1.5-2a14.57,14.57,0,0,0-1.31-2A24.68,24.68,0,0,0,56,92.78c-.44-.4-1.43-1.19-1.2-1.9a7.85,7.85,0,0,1,1.53-3.1,4.2,4.2,0,0,1,2.15-1L63,90.08a6.09,6.09,0,0,0,.42,2.48c.42.51,1.15,2.81,1.4,3s.7.41,1,.71a2.44,2.44,0,0,1,.55.86C66.49,97.46,66.49,97.79,66.6,98.08Z"/><path class="cls-42" d="M64.91,94.5c.92,1.38,3.47,4.72.47,5.25a4.15,4.15,0,0,1-2.1-.15,5.48,5.48,0,0,1-2.76-2.42c-.2-.31-.36-.65-.56-1a11.22,11.22,0,0,0-1.31-1.45A27.23,27.23,0,0,1,56.59,92c-.42-.54-1.72-1.28-1.44-2.14a7.85,7.85,0,0,1,1.53-3.1,4.2,4.2,0,0,1,2.15-1l4.55,3.31a6.22,6.22,0,0,0,.41,2.48C64.48,92.39,64.33,93.62,64.91,94.5Z"/><path class="cls-47" d="M59.35,88.6a4.7,4.7,0,0,0,.49.26,8.36,8.36,0,0,0,3.53,1s4.16-7.47,5.28-10.06a38,38,0,0,0,2.63-9.32q-1.92.16-3.84.42c-.76.09-1.62.38-2.37.39a5.16,5.16,0,0,1-2.4-.89,2.37,2.37,0,0,0-.61-.32.66.66,0,0,0-.65.11,1,1,0,0,0-.24.57C60.76,73,60,75.07,59.48,77.26c-.38,1.63-.4,3.31-.77,4.94A15.8,15.8,0,0,1,58.32,84c-.24.69-.72,1.18-.69,2A3.2,3.2,0,0,0,59.35,88.6Z"/><path class="cls-48" d="M47.1,56a8.77,8.77,0,0,0,2,3.08c.73.72,1.75,1.93,2.57,2.59,1.8,1.45,3.68,3.71,5.49,5.16a37.34,37.34,0,0,1,5.33,6l-.1-.23a18.65,18.65,0,0,0,1.32,1.78c.57.53,1.67.38,2.38.38A4.91,4.91,0,0,0,71,71.59a5.16,5.16,0,0,0,.29-1.09,6.09,6.09,0,0,0,.07-1.27c-.17-2.53-2.77-6.32-8-12.38-1.73-2-4.35-5.69-7-7-1.57-.75-4-1.56-4-1.56S48,48.58,46.88,52a4.82,4.82,0,0,0-.13,2.81A7.64,7.64,0,0,0,47.1,56Z"/><path class="cls-49" d="M75.58,20.74s2,2,2.74,2.83l.62.69a3.46,3.46,0,0,1,1,1.93,4.52,4.52,0,0,1-2.47,4.33,5.63,5.63,0,0,1-4.17.21Z"/><path class="cls-50" d="M73.34,30.73,75,23.45a2.17,2.17,0,0,1,.42-.11c.17,1.16.35,2.31.52,3.47a10.54,10.54,0,0,0,.35,1.76,3.75,3.75,0,0,0,.5,1.05,3.23,3.23,0,0,0,.84.85l-.09.05A5.63,5.63,0,0,1,73.34,30.73Z"/><path class="cls-51" d="M70,17.65l5.6,3.09s2.22,1.31-1.14,9.79a157.63,157.63,0,0,0-5.79,19s-3.21,4.32-12.1,5-7-3.83-7-3.83L48.39,26a34,34,0,0,1,6.94-4.37C58.6,20.32,67,14.1,70,17.65Z"/><path class="cls-52" d="M52.44,34.53a33.2,33.2,0,0,1,1.38,3,21.43,21.43,0,0,1-.16,7.86c-1,3.62-1.12,7.41-1.46,11.16a8.66,8.66,0,0,1-5.94-4.88L48.39,26a34,34,0,0,1,6.94-4.37C58.6,20.32,67,14.1,70,17.65l5.6,3.09a1.22,1.22,0,0,1,.17.16c-1.82-.11-3.62-.27-5.46-.21a40.87,40.87,0,0,0-14.38,3.13,35.84,35.84,0,0,0-4.06,2.26,3,3,0,0,0-.87.66,2.58,2.58,0,0,0-.45,1.18C50.09,30.55,51.59,32.26,52.44,34.53Z"/><path class="cls-12" d="M51.48,51.45c1.06-.44,1.9-1.25,2-1,0,0-.77,1.26-1.18,2A3.12,3.12,0,0,1,51.48,51.45Z"/><path class="cls-12" d="M52.1,53a2.84,2.84,0,0,1,.24-.52c.95.81,2.15,1.28,2,1.36a8.14,8.14,0,0,1-2.54-.07C50.69,53.62,52.41,53.3,52.1,53Z"/><path class="cls-12" d="M54.49,48.33a1.41,1.41,0,0,1-.06.55C54.05,50,51.63,49,51.32,50a1.82,1.82,0,0,0,.16,1.42,2.62,2.62,0,0,1-1.79.19,2.82,2.82,0,0,1-1.6-1.3h0a9.45,9.45,0,0,1-1.2-3,28.07,28.07,0,0,1-.25-10.52,14.76,14.76,0,0,1,.44-2c.73-2.58,6.31,4,6.31,4a2.37,2.37,0,0,1,.2.79,5.36,5.36,0,0,1-.2,1.88,1.09,1.09,0,0,0,0,.33c.07,1.2,1,4.69,1.1,6.33C54.48,48.18,54.48,48.24,54.49,48.33Z"/><path class="cls-53" d="M10,68s2.63-22.28,25-1c7.19,6.85,4.06,20.38,4.06,20.38S12.54,72,10,68Z"/><path class="cls-5" d="M58.63,66.4l.93,2.82Z"/><path class="cls-24" d="M85.79,61.28a4.17,4.17,0,0,1,.1-1.27,4.42,4.42,0,0,1,.71-2.24,14.41,14.41,0,0,1,1.3-1.62l.19-.21a10.45,10.45,0,0,1,1.11-1.36,5.9,5.9,0,0,1,2.28-1.4c0-1.45,0-2.47,0-2.47l-1.64-1.35,0,0A6.19,6.19,0,0,0,82.59,49c-3.14,2-8.61,4.79-9.65,5.29a7.51,7.51,0,0,0-.3,4.64,68.3,68.3,0,0,0,2.61,6.73l1.37.14a28.62,28.62,0,0,0,4.45-.26l-.2-.63C80.75,64.56,83.44,62.68,85.79,61.28Z"/><path class="cls-54" d="M88.23,62.69,83.58,65a8.85,8.85,0,0,1-1.91.83l-.8.13h0a1.62,1.62,0,0,0-.59.11h-.23a1.6,1.6,0,0,1-1.45-1.73,31.39,31.39,0,0,1,.64-6.52l12.22-7.1L92,55.18A7.63,7.63,0,0,1,88.23,62.69Z"/><path class="cls-55" d="M89.35,60.63a6.53,6.53,0,0,1-1.57,1.27l-4.6,2.27a8,8,0,0,1-1.71.75L80.9,65h-.07a2.76,2.76,0,0,0-.7.13h0c-.31,0-.57-.17-.61-.85a15.29,15.29,0,0,1,.08-2.42c0-.08,0-.16,0-.24.13-1.36.34-2.62.46-3.23l6.52-3.79,4.13-2.4.37,3.08A6.76,6.76,0,0,1,89.35,60.63Z"/><path class="cls-56" d="M86.58,54.61a6.71,6.71,0,0,1-3.32,5.21L79.6,61.63c.13-1.36.34-2.62.46-3.23Z"/><path class="cls-57" d="M89.35,60.63a16.54,16.54,0,0,0-3.19-2c-.71,0-5.84,2.8-6.57,3.2,0-.08,0-.16,0-.24.13-1.36.34-2.62.46-3.23l6.52-3.79,4.13-2.4.37,3.08A6.76,6.76,0,0,1,89.35,60.63Z"/><path class="cls-58" d="M80.05,66.06A3.3,3.3,0,0,1,76.9,64a7,7,0,0,1,0-2.33c.28-1.58,2.32-3.83,2.32-3.83a31.39,31.39,0,0,0-.64,6.52A1.6,1.6,0,0,0,80.05,66.06Z"/><path class="cls-58" d="M81.67,65.82a5.31,5.31,0,0,1-1.39.23,1.62,1.62,0,0,1,.59-.11h0Z"/><path class="cls-39" d="M80.11,66.06h.11a14.18,14.18,0,0,1-3.36.71c-.8-.16-1,0-.75.66s-2,1-2,1a13.7,13.7,0,0,1-2.22-.09l-1.37-.14a33.43,33.43,0,0,0-1-5.27c-.67-2.41,1-2.86.75-4.52-.42-2.38,1.35-3.21,2.64-4.08a14.94,14.94,0,0,1,4.67,2.14l1.63,1.35a31.39,31.39,0,0,0-.64,6.52,1.6,1.6,0,0,0,1.45,1.73Z"/><path class="cls-59" d="M81.85,65.79a4.36,4.36,0,0,1-1.62.28l0,0a1.62,1.62,0,0,1,.59-.11h0l.8-.13Z"/><path class="cls-18" d="M74.1,68.42l2.76-1.64s3.8-3.72-4.83-8.47c-2-1.11-3.74,2.53-3.74,2.53Z"/><path class="cls-17" d="M68.29,60.84s.93-.3,2.14,1a28.67,28.67,0,0,1,3.89,5.61c.28.89-1,2.67-4.17,1.15s-4.07-3-4.59-4.52S65.63,61.65,68.29,60.84Z"/><path class="cls-16" d="M66.76,61.62s.93-.3,2.14,1,4.16,4.54,4.44,5.42-.4,2-3.55.48-3.57-1.42-4.08-2.91S64.1,62.43,66.76,61.62Z"/><path class="cls-5" d="M65.56,64.06a2.37,2.37,0,0,0,1,1.87c.56.32,1,0,1-.7a2.35,2.35,0,0,0-1-1.87C66,63,65.56,63.35,65.56,64.06Z"/><polygon class="cls-5" points="59.56 69.22 67.35 65.9 65.8 63.39 58.63 66.4 59.56 69.22"/><path class="cls-14" d="M66.63,67.6a8.58,8.58,0,0,1-.18,1.56c-.14.4-.75,1.16-1.23.28s.09-1.52.6-2.07S66.63,67.6,66.63,67.6Z"/><path class="cls-13" d="M67.4,67.57a1,1,0,0,1-.9.77h-.25s-.82,0-.83-.12a1.06,1.06,0,0,1,0-.15c0,.11,0,.73-.51.86s-1.15.23-1.35,0l-.2-.22a.38.38,0,0,1-.43.41c-.45,0-.88.2-1-.14a2.8,2.8,0,0,0-.19-.49s0,.44-.56.54a1.81,1.81,0,0,1-.71-.05l-.17-.06a.57.57,0,0,1-.19-.13h0a.31.31,0,0,1-.1-.15c0-.16-.23-.85-.33-1.23a2.1,2.1,0,0,1-.07-.26l-.14-.09a6,6,0,0,1-.86-.78c-.54-.61-1.71-3-1.93-3.2a27.61,27.61,0,0,0-3.22-3.76c-1.88-1.77-5.06-8.22-5.17-8.45l-.16-.36,0-.1a.37.37,0,0,1,0-.08h0a2.53,2.53,0,0,1,.13-.62,3.11,3.11,0,0,1,.24-.51l.49-.57.19-.21c1.25-1.3,3.81-1.82,5.34-.24,0,0,0,.06,0,.15a11.36,11.36,0,0,0,1.95,5.54c2.06,2.72,3.65,6.48,4.37,6.8a35.59,35.59,0,0,0,3.6,2.08c1.29.45,1.55.51,2.15,1.83S67.63,67,67.4,67.57Z"/><path class="cls-14" d="M59.63,67s-.06,0-.17.09a6,6,0,0,1-.86-.78c-.54-.61-1.71-3-1.93-3.2a27.61,27.61,0,0,0-3.22-3.76c-1.88-1.77-5.06-8.22-5.17-8.45l-.16-.36,0-.1a.37.37,0,0,1,0-.08h0a9.45,9.45,0,0,1-1.2-3,28.07,28.07,0,0,1-.25-10.52c.36,0,.77.09,1.22.17a11.84,11.84,0,0,1,5.73,2.66,5.36,5.36,0,0,1-.2,1.88,1.09,1.09,0,0,0,0,.33,5.56,5.56,0,0,1-1.87.14c-3.39-.16-4.4-1-4.4-1a13.92,13.92,0,0,0,.2,5c.63,1.91,1.15,3.17,1.15,3.17l1.23,2.44c.61,1.24,1.35,2.66,1.73,3.6,1.33,3.31,2.82,4,3.65,5.21s2.43,3.3,2.9,4.29S59.66,66.81,59.63,67Z"/><path class="cls-5" d="M58.61,66.4l1-.3a2,2,0,0,1,.92,1.16,2.83,2.83,0,0,1-.2,1.67l-.56.25Z"/><path class="cls-49" d="M44.74,38.8a9,9,0,0,0,4.06,2.41,17,17,0,0,0,5.3.24s.22-3.59.26-4.45a18.72,18.72,0,0,0-.7-6.51,7.64,7.64,0,0,0-3.09-4.16c-1.93-1.11-3-.15-3.58,1.93C46.16,31.42,45.55,35.63,44.74,38.8Z"/><path class="cls-50" d="M44.74,38.8c.81-3.17,1.42-7.38,2.25-10.54.55-2.08,1.65-3,3.58-1.93l.25.16a20.55,20.55,0,0,0-3,10.49c0,1.36.17,2.69.31,4A11.31,11.31,0,0,1,44.74,38.8Z"/><path class="cls-15" d="M58.12,67.22a2.35,2.35,0,0,0,1,1.87c.55.32,1,0,1-.7a2.37,2.37,0,0,0-1-1.87C58.57,66.2,58.12,66.52,58.12,67.22Z"/><path class="cls-60" d="M57.54,20.46a9.14,9.14,0,0,0,2.17,3,12.57,12.57,0,0,0,3.21,2.23c3.3,1.62,4.38-1.07,4.69-2.37a3.49,3.49,0,0,0,.11-.64,5.48,5.48,0,0,0-.06-.74,17.07,17.07,0,0,0-3.26-7.65c-3.23-4.4-6.3-3.49-6.3-3.49a6.86,6.86,0,0,1,.44,1.15c.52,1.55,1.28,4.25.87,5.22A26.69,26.69,0,0,1,57.54,20.46Z"/><path class="cls-61" d="M57.54,20.46a9.14,9.14,0,0,0,2.17,3c.65-1.19,1.61-2.67,1.61-2.67s2.54,2.49,4.43,2.77a2.87,2.87,0,0,0,1.86-.24,3.49,3.49,0,0,0,.11-.64,5.48,5.48,0,0,0-.06-.74,67.54,67.54,0,0,0-8.52-9.52,7.15,7.15,0,0,0-.6-.47c.52,1.55,1.28,4.25.87,5.22A26.69,26.69,0,0,1,57.54,20.46Z"/><path class="cls-62" d="M66.48,20.46s1.78,3.09.27,4.62c-1.27,1.28-1.71,1-1.71,1l1,2.13a3.62,3.62,0,0,0,2.45-3.12,8.52,8.52,0,0,0-1-4.31Z"/><path class="cls-62" d="M57.25,19.9a12,12,0,0,0,3.48,4.38,11.63,11.63,0,0,0,4,1.84l.27,0v2.35s-2.59.26-5.82-2.51-3.83-5-3.83-5Z"/><path class="cls-13" d="M59.49,15.82c.21,1.23,2.82,4,4.74,5.75,0,0,0,.05.07.05a8.06,8.06,0,0,0,5.09,1.81,2.54,2.54,0,0,0,1.7-1.07,10.7,10.7,0,0,0,.15-1.78.87.87,0,0,0,.31-.29.54.54,0,0,0,0-.39l.15-.25.42-1.73s.7-.11.78-.57a2.29,2.29,0,0,0-.3-1.11,17.86,17.86,0,0,0,.22-2c0-.36.07-.81.1-1.28.13-1.65.27-3.65.27-3.65s-11.65.39-13.27.54S59.29,14.58,59.49,15.82Z"/><path class="cls-63" d="M59.49,15.82c.21,1.23,2.82,4,4.74,5.75,0,0,0,.05.07.05A26.7,26.7,0,0,1,63.13,19c-.43-1.13-.66-4.43-.18-4.65a26.72,26.72,0,0,0,2.34-2.16c.38-.28,2.36.56,4.39,1.25A3.19,3.19,0,0,0,72.92,13c.13-1.65.27-3.65.27-3.65s-11.65.39-13.27.54S59.29,14.58,59.49,15.82Z"/><path class="cls-64" d="M57.66,11.65s1,2,1.34,2.65a6.33,6.33,0,0,1,.5,1.52s-.62-4.56,1.22-4.17,1.46.51,1.5,1.31,0,1.25,0,1.25l1-.49s.9-2.09,2.42-2.35,6.71-1.81,4.15-3.24S57.39,8.24,57.66,11.65Z"/><path class="cls-51" d="M57.81,12.29s2-.34,6.67-1.6c2.92-.78,5.91-1.79,7.73-2.44C73.31,7.86,74,7.6,74,7.6A14,14,0,0,0,70.9,2C68.24-1.25,63.12.43,63.12.43a9.28,9.28,0,0,0-4.69,3.16C56.21,6.24,57.81,12.29,57.81,12.29Z"/><path class="cls-65" d="M61.14,1.64A9.92,9.92,0,0,0,61.42,6a39,39,0,0,0,1.9,4.6S58.16,12.24,57.94,12,55.69,4.39,61.14,1.64Z"/><path class="cls-66" d="M63.12.43S68.23.27,69.85,3a36.3,36.3,0,0,1,2.36,5.23C73.31,7.86,74,7.6,74,7.6A14,14,0,0,0,70.9,2C68.24-1.25,63.12.43,63.12.43Z"/><path class="cls-67" d="M61.76,12.23a2,2,0,0,0-1.34-1.06c-.91-.14-1.12.88-1,1.78a13,13,0,0,0,.82,2.65c.15.36.42,1.06.78.89s.74-.32.8-1.29A17.63,17.63,0,0,0,61.76,12.23Z"/><path class="cls-68" d="M79.78,9.87s0,1.07-1,.83S76,9.87,76,9.87,76.87,8.75,77.5,9,79.18,9.13,79.78,9.87Z"/><path class="cls-49" d="M74,7.6l5.23,1.73.44.26.12.28s-1-1.23-2.9.26-3.79,3.07-6.33,2.8a20.42,20.42,0,0,1-6.07-2.24S71.51,7.15,74,7.6Z"/><path class="cls-69" d="M71.36,8.07s1.62.47,2.14.66C74.21,9,76.27,10,76.27,10s-2.42,2.4-5,2.71-6.42-2.12-6.42-2.12S70.35,7.92,71.36,8.07Z"/><path class="cls-14" d="M65.74,65.43a3,3,0,0,0-.28.93c0,.34-.12,2-.12,2s0-1.75-.07-2a4.07,4.07,0,0,0-.36-.75S65.37,66.25,65.74,65.43Z"/><path class="cls-14" d="M63.7,66.35a9.23,9.23,0,0,0-.25,1.29c0,.22-.12,1.08-.12,1.08l-.11-.16s.18-1.31.17-1.6a1,1,0,0,0-.15-.49S63.47,66.76,63.7,66.35Z"/><path class="cls-14" d="M61.83,66.68s-.12.7-.11.82,0,1,0,1l-.1-.4s0-.89-.07-1.13l-.05-.25S61.63,66.88,61.83,66.68Z"/><ellipse class="cls-16" cx="67.75" cy="50.58" rx="3.94" ry="2.66" transform="translate(-2.29 97.94) rotate(-70.81)"/><path class="cls-19" d="M69.85,50.22A4,4,0,0,1,67.56,54c-1.27.41-2.29-.59-2.29-2.25A4,4,0,0,1,67.56,48C68.82,47.56,69.85,48.56,69.85,50.22Z"/><path class="cls-20" d="M68.65,51.83c.54,1.81,4.57,9.37,4.57,9.37l-.17.73-.76-.21S68,52.15,67.75,51.39c0,0-.3-.6-.19-.76S68.18,50.3,68.65,51.83Z"/><path class="cls-70" d="M26.94,61.6s-5.83-3.68-9.44-2.79a6.55,6.55,0,0,0-4.62,3.56,134.69,134.69,0,0,0,11.17,7.7A118.87,118.87,0,0,0,38,76.74s-.23-5.87-3.59-9.07A73.16,73.16,0,0,0,26.94,61.6Z"/><path class="cls-71" d="M89.21,65a14.88,14.88,0,0,1-4.32,3.15c-2.36,1-3.07.2-3.91.58a3.78,3.78,0,0,0-1.39,1.12,75.47,75.47,0,0,1,6.76,10.52c2.25,4.66,4.09,13.3,4.59,13.47s3.52-1.35,3.67-1.7.57-10.8-1.45-17.37A66.93,66.93,0,0,0,89.21,65Z"/><path class="cls-72" d="M59.51,90s1,2.61,1.49,4.45a4.35,4.35,0,0,0,2.24,3c1.54.79,2.9.53,3.24-.18.25-.52-.66-1-1.53-3.08a20.16,20.16,0,0,1-1.4-3.88,2.06,2.06,0,0,1-.9.55A4.51,4.51,0,0,1,59.51,90Z"/><path class="cls-72" d="M72,87.29a15.91,15.91,0,0,0,1.48,3c.68.88,2.6,3.15,2.3,3.94s-2.17,1.24-3.64.3-2.6-4.66-2.65-5.19l-.16-1.84Z"/></g></g></g></svg>