<svg xmlns="http://www.w3.org/2000/svg" viewBox="0 0 96.33 166.53"><defs><style>.cls-1{isolation:isolate;}.cls-2{fill:#a9a9ab;mix-blend-mode:multiply;}.cls-3{fill:#606060;}.cls-4{fill:#f22400;}.cls-5{fill:#040406;}.cls-6{fill:#414143;}.cls-7{fill:#2b2b2d;}.cls-8{fill:#161618;}.cls-9{fill:#d5d6d5;}.cls-10{fill:#adafae;}.cls-11{fill:#7e8180;}.cls-12{fill:#f9c48e;}.cls-13{fill:#a8020b;}.cls-14{fill:#e09c63;}.cls-15{fill:#da3f3c;}.cls-16{fill:#900000;}.cls-17{fill:#be1513;}.cls-18{fill:#3b3b30;}.cls-19{fill:#54544a;}.cls-20{fill:#bdbdb9;}.cls-21{fill:#055f8c;}.cls-22{fill:#00396a;}.cls-23{fill:#368cc2;}.cls-24{fill:#2a6d9c;}.cls-25{fill:#ffd0a1;}.cls-26{fill:#ab0000;}.cls-27{fill:#e2a46f;}.cls-28{fill:#c4734e;}.cls-29{fill:#ffd15b;}.cls-30{fill:#eaa671;}.cls-31{fill:#89310b;}.cls-32{fill:#cf3b39;}.cls-33{fill:#f9c794;}.cls-34{fill:#941919;}.cls-35{fill:#ff655c;}.cls-36{fill:#d11f00;}.cls-37{fill:#2e2e2e;}.cls-38{fill:#555958;}.cls-39{fill:#8b8d8c;}.cls-40{fill:#ac5922;}.cls-41{fill:#efd995;}.cls-42{fill:#d9af6a;}.cls-43{fill:#ae7443;}.cls-44{fill:#b76f3f;}.cls-45{fill:#8c4320;}.cls-46{fill:#9c480c;}.cls-47{fill:#ffedb4;}.cls-48{fill:#ab774d;}.cls-49{fill:#e6e1e4;}.cls-50{fill:#c39055;}.cls-51{fill:#f9f9f9;}.cls-52{fill:#f1f1f1;}.cls-53{fill:#b3a4ad;}.cls-54{fill:#9d6f40;}.cls-55{fill:#d6d6d6;}.cls-56{fill:#a45823;}.cls-57{fill:#fefefe;}.cls-58{fill:#8b8b8b;}.cls-59{fill:#6f6f6f;}.cls-60{fill:#8e8e8e;}.cls-61{fill:#545454;}</style></defs><g class="cls-1"><g id="Layer_2" data-name="Layer 2"><g id="Layer_1-2" data-name="Layer 1"><path class="cls-2" d="M85.59,126s-13.64,3.54-16.69,7-12.52,8.34-14.23,9.76S26,130.83,26,130.83L0,146.26,32.86,166l22.77.52L58,152.81s10.22-9,16.2-10.06,13.47-9.62,13.47-9.62Z"/><path class="cls-3" d="M57.34,155.65,30.71,139.72s-1.12.3-1.06,1.21a2.08,2.08,0,0,0,1.06,1.44l26.63,16.15Z"/><path class="cls-4" d="M10.7,134.17l.45-12.37a2.82,2.82,0,0,1,1.79-2.53l9.68-3.81a.77.77,0,0,1,1.06.75L23.2,129.1l-2.47,1.14s1.76,1.68,2.95,1.62,1.65-.31,1.65-3.31c0-2,.13-8.41.21-12.51a2.41,2.41,0,0,0-3.27-2.31l-9.57,3.61A5.15,5.15,0,0,0,9.37,122l-.48,13.71-1.43.66a18.81,18.81,0,0,0,1.82,1.31c.18,0,1.29.39,1.36-.67S10.7,134.17,10.7,134.17Z"/><path class="cls-5" d="M23.21,129.18a5.28,5.28,0,0,1,4.64-.69,22.23,22.23,0,0,1,3.39,2l-9.87,17.32s-1.78-1.11-3.05-1.76-2.19-2.3-2.19-4.62A15.61,15.61,0,0,1,23.21,129.18Z"/><ellipse class="cls-6" cx="26.01" cy="138.96" rx="9.99" ry="5.77" transform="translate(-107.08 91.28) rotate(-59.69)"/><path class="cls-7" d="M32.86,135.3a14.48,14.48,0,0,1-6.57,11.34c-3.63,2.1-6.57.42-6.57-3.75a14.47,14.47,0,0,1,6.57-11.33C29.92,129.46,32.86,131.14,32.86,135.3Z"/><path class="cls-8" d="M31,136.15a10.82,10.82,0,0,1-4.89,8.45c-2.71,1.56-4.9.31-4.9-2.8a10.77,10.77,0,0,1,4.9-8.44C28.85,131.8,31,133.05,31,136.15Z"/><path class="cls-9" d="M30.4,136.43A9.66,9.66,0,0,1,26,144c-2.42,1.4-4.39.28-4.39-2.5A9.69,9.69,0,0,1,26,133.92C28.44,132.52,30.4,133.64,30.4,136.43Z"/><ellipse class="cls-10" cx="26.01" cy="138.96" rx="5.67" ry="3.27" transform="translate(-107.08 91.28) rotate(-59.69)"/><path class="cls-11" d="M28.82,137.34A6.18,6.18,0,0,1,26,142.18c-1.55.9-2.8.18-2.8-1.6a6.18,6.18,0,0,1,2.8-4.84C27.56,134.85,28.82,135.56,28.82,137.34Z"/><path class="cls-11" d="M25.45,143.39a8.86,8.86,0,0,0,4-6.94,2.74,2.74,0,0,0-1.26-2.62C29.31,134,30,135,30,136.64a8.88,8.88,0,0,1-4,6.94,2.9,2.9,0,0,1-2.76.32A3.31,3.31,0,0,0,25.45,143.39Z"/><path class="cls-9" d="M29.11,137.48a6.19,6.19,0,0,1-2.81,4.84c-1.55.89-2.8.18-2.8-1.6a6.17,6.17,0,0,1,2.8-4.84C27.85,135,29.11,135.7,29.11,137.48Z"/><path class="cls-12" d="M41.31,71.92a12.77,12.77,0,0,1,.47,1.71c0,.61-1.18,1.35-1.18,1.35l-.6.28a1.11,1.11,0,0,1-1.13-.2,1.77,1.77,0,0,1-.42.58,1.15,1.15,0,0,1-.51.28c-.64.16-1.2-.58-1.2-.58a.43.43,0,0,1-.29.3,2.54,2.54,0,0,1-2-1c-.73-.88-1.13-1-.94-3.08s1.15-2.32,2-3.81a13.77,13.77,0,0,1,3.06-3.14s3.62,2.85,3.67,3.21a17.4,17.4,0,0,1-.77,3.28c-.08,0-.13.28-.15.51s0,.22,0,.31A.11.11,0,0,0,41.31,71.92Z"/><path class="cls-13" d="M39.19,73c0,.21,0,.36,0,.4S39.2,73.21,39.19,73Z"/><path class="cls-14" d="M41.3,71.87a.11.11,0,0,0,0,0,2,2,0,0,0-.7-.17c-.22,0-.2.67-.19.84a3.21,3.21,0,0,0-.2-.8c-.17-.4-.7-.22-.91-.17s-.14.86-.12,1.38c0-.54-.18-1.41-.54-1.54s-1.21.85-1.21.85l.29,2.28.72,1a1.15,1.15,0,0,1-.51.28c-.64.16-1.2-.58-1.2-.58a.43.43,0,0,1-.29.3c.11-.87-.48-1-.6-1.32A8.72,8.72,0,0,0,35,73.06l0-.42a.92.92,0,0,0-.36-.64.86.86,0,0,0,.28-.54c0-.3-.28-.64-.28-.86s1-.91,1-.91l.56.84s2.62-3,3.37-2.5.17,1.55,0,1.9A4.12,4.12,0,0,0,39.28,71s.28,0,.62,0,.55.18.88.46.54.1.54.1S41.3,71.78,41.3,71.87Z"/><path class="cls-15" d="M61.69,53.8a18.77,18.77,0,0,1-2.79,3,12.2,12.2,0,0,0-2.9,2.9c-.42.75-.37,1-1.65,1.14s-1.16,1.12-1.93,1.93a25,25,0,0,1-4.7,3c-1,.51-1.84.51-2.08.88s-.7,1-1.19,1-.87.71-1.31,1-1,.57-.89,1A3.16,3.16,0,0,1,42,70.9s-.12-.26-.33-.65c-.79-1.45-2.94-4.79-5.6-4,0,0,2.83-3,2.76-3.27s-.63-1.19.16-1.65,2.34-.92,2.31-1.14A2.1,2.1,0,0,1,42.25,59c.6-.46,1.33-.75,1.44-1.21a2.93,2.93,0,0,1,1.38-1.45c.74-.48.33-1.1.9-1.29s1.18-1.63,1.45-1.89,1.84-1.41,1.82-1.67,0-1.51.59-1.56.7-1.16.9-1.25,1.56-.33,1.6-.61a3.39,3.39,0,0,1,.47-2.18c.67-1,.81-2.7,1.07-3.25s3.67-10.86,4.81-12.29a1,1,0,0,1,.64-.41c1.09-.18,2.38,1.66,2.76,2.25S61.69,53.8,61.69,53.8Z"/><path class="cls-16" d="M61.69,53.8a18.77,18.77,0,0,1-2.79,3,12.2,12.2,0,0,0-2.9,2.9c-.42.75-.37,1-1.65,1.14s-1.16,1.12-1.93,1.93a25,25,0,0,1-4.7,3c-1,.51-1.84.51-2.08.88s-.7,1-1.19,1-.87.71-1.31,1-1,.57-.89,1A3.16,3.16,0,0,1,42,70.9s-.12-.26-.33-.65a5.64,5.64,0,0,0,.24-.79c.19-.84.35-1.21,1-1.18s1-1.59,1.18-1.55a3.66,3.66,0,0,0,1.19,0c.35-.08.5-1,.57-1.09s0-.88-.57-1-.68-1.22-.68-1.22a8.23,8.23,0,0,0,1.27,1c.53.29.88,1.21,1.32,1.12a15.27,15.27,0,0,0,1.66-.89c.69-.3,2.16-.8,2.62-1.48s1.58-1.21,1.4-1.54-.7-.57-.57-.68a8.17,8.17,0,0,1,1.49-.31c.88-.17.88.05,1.54-.46s.81-1.2.55-1-.28-.13-.86.16a5.51,5.51,0,0,1-1.5.39A8.9,8.9,0,0,0,55,59.1a6.1,6.1,0,0,1,1.56-.58c.41-.1,1.23-.9,1-1.43s.65-.79,1-1.34-1.27-.75-1.2-1.26.39-1.35,0-2-.07-2.46,0-2.88a4.92,4.92,0,0,0-1.52-2.32c-.68-.6,1.25-1.22,1-6.92s1.26-9.18,2.38-10.42h0c1.09-.18,2.38,1.66,2.76,2.25S61.69,53.8,61.69,53.8Z"/><path class="cls-17" d="M59.84,53A6.48,6.48,0,0,1,57,51.78a4.4,4.4,0,0,0-3.14-1.56c-1.36,0-1.91-1.8-1.93-1.19a2.23,2.23,0,0,0,1.47,1.91,4.87,4.87,0,0,1,2.48,1.32,4.75,4.75,0,0,0,2.94,1.3C59.73,53.62,59.84,53,59.84,53Z"/><path class="cls-17" d="M60.57,54.54a1.89,1.89,0,0,1-2.29.44,27.13,27.13,0,0,0-3.4-1.82L54.24,53a5.08,5.08,0,0,0,1.54,1.1c.92.41,1.1.54,1.12,1.1s0,1.16.83,1A4.34,4.34,0,0,0,60,55.44,6.08,6.08,0,0,0,60.57,54.54Z"/><path class="cls-17" d="M56.09,57.09s-3-1.87-4.28-2.45A12.07,12.07,0,0,0,48.14,54a29.74,29.74,0,0,1,5.07,1.84A13.86,13.86,0,0,0,56.09,57.09Z"/><path class="cls-17" d="M54.24,54.52a6.89,6.89,0,0,0-2.67-2.92A4.9,4.9,0,0,0,49.25,51v.44A7.42,7.42,0,0,1,54.24,54.52Z"/><path class="cls-17" d="M42.24,59.52a1.84,1.84,0,0,1,2.21,1,4.5,4.5,0,0,1,.84,2.26s-1-2.22-1.82-2.5a4.35,4.35,0,0,0-1.69-.2Z"/><path class="cls-17" d="M38.78,62.82s.71-1.47,3.28.22,2.35,3.09,2.28,3.58a1.54,1.54,0,0,0,0,.72,3.14,3.14,0,0,0,0-2.26C43.86,64.25,40.14,60.13,38.78,62.82Z"/><path class="cls-17" d="M52.36,60.05a4.68,4.68,0,0,0-1.8.57,8.88,8.88,0,0,1-2.62,1.3c-.92.15.6.15,1.3.33s1.27.63,1.86-.33S51.87,60.16,52.36,60.05Z"/><path class="cls-17" d="M45.42,56a3.11,3.11,0,0,1,3,.29c1.85,1,4.77,2.6,4.77,2.6A42.39,42.39,0,0,0,48.93,56C48,55.62,46.45,54.82,45.42,56Z"/><path class="cls-17" d="M56.91,35.83v4.74c0,1.87,1.3,4.06.5,4s-1.85-1.45-2.31-1.45-1.25.63-.86-.33,1.68-1.78,1.65-3.23A11.5,11.5,0,0,1,56.91,35.83Z"/><path class="cls-18" d="M67.15,128.55a9.39,9.39,0,0,1-2.63,4.71c-2.27,2.31-4.48,4.35-4.81,5.93a14.77,14.77,0,0,0-.33,1.84,2.42,2.42,0,0,0-.18,1.19c0,.82.86,2.55,3.41,2.52a5.71,5.71,0,0,0,4.82-2.9c.71-1.2,2.13-4.05,3.18-4.69a41.19,41.19,0,0,0,5-3.41c.33-.49.27-.67.27-.67l-.41-4.78Z"/><path class="cls-19" d="M70.6,131.87s-1.26,2.15-2.38,4.33-2.37,5.43-4.93,5.73-4-.8-3.81-1.91a6.66,6.66,0,0,1,2.68-4.36,15.35,15.35,0,0,0,3.78-4.19l.52-.93S68.34,132.47,70.6,131.87Z"/><path class="cls-20" d="M75.76,132.24a1.66,1.66,0,0,1-.2.35,42.39,42.39,0,0,1-5,3.41c-1,.64-2.47,3.18-3.18,4.38a5.69,5.69,0,0,1-4.82,2.89,3.12,3.12,0,0,1-3.31-2,2.79,2.79,0,0,0-.1,1c0,.82.86,2.55,3.41,2.52a5.71,5.71,0,0,0,4.82-2.9c.71-1.2,2.13-4.05,3.18-4.69a41.19,41.19,0,0,0,5-3.41c.33-.49.27-.67.27-.67Z"/><path class="cls-21" d="M78.33,85.1c0,3.72-.21,8.09-.39,11.26h0c-.11,2-.18,3.51-.16,4.08.08,2.1-.84,7.81-.57,11.93a41.17,41.17,0,0,1-1.41,11.38c-.31.43.61,5,.61,5s0,.84-1.51,1.68a8.49,8.49,0,0,1-2,.82c-3.51,1-7.34-2.1-7.34-2.1a19.91,19.91,0,0,1-.7-5.8c0-3.51-.65-13.56-.08-15.89s-2-8.74-1.95-13.22-.95-11.1-1.12-13.43a15.11,15.11,0,0,1,.43-3.88c.32-1.44.69-2.62.69-2.62s7.19.09,11.64,1.75c1.7.63,3,1.5,3.35,2.66a16,16,0,0,1,.46,3.39C78.3,83,78.32,84,78.33,85.1Z"/><path class="cls-22" d="M77.21,112.38a41.17,41.17,0,0,1-1.41,11.38c-.31.43.61,5,.61,5s0,.84-1.51,1.68c-.07-.49-.13-1-.19-1.58-.6-5.14-.8-5.36.18-9.62s.53-6.47.8-11.06-2.1-6.93-3.67-10.89c-1.38-3.51-2-13.4-2-13.4,3.7-2.49,6.36-2.92,8.25-1.77.36,6.14-.54,16.61-.46,18.33C77.86,102.55,76.94,108.26,77.21,112.38Z"/><path class="cls-18" d="M82.87,121.69s-1,4-1.36,5.07-2.09,3.91-2.26,5a13.38,13.38,0,0,0-.33,2.2c0,.61-.12,2.2,2.83,2.5s5.29-2.41,5.88-3.38a32.75,32.75,0,0,0,1.78-5,18.17,18.17,0,0,0,.24-5.18C89.41,120.49,82.87,121.69,82.87,121.69Z"/><path class="cls-19" d="M88.38,125.9a17.14,17.14,0,0,1-1.21,3.75A6.29,6.29,0,0,1,84.32,133c-2.29,1.4-4.61.41-4.79-.72s.41-1.44,1.53-4a15.39,15.39,0,0,0,1.33-4.22,7.71,7.71,0,0,0,1.66,1.4C85.83,126.07,87.05,126.54,88.38,125.9Z"/><path class="cls-20" d="M89.41,127a33.12,33.12,0,0,1-1.78,5c-.59,1-2.94,3.69-5.88,3.38-2.25-.23-2.7-1.21-2.8-1.94a2.63,2.63,0,0,0,0,.56c0,.61-.12,2.2,2.83,2.5s5.29-2.41,5.88-3.38a32.75,32.75,0,0,0,1.78-5,17.79,17.79,0,0,0,.32-4A16.31,16.31,0,0,1,89.41,127Z"/><path class="cls-23" d="M91.91,104.7c-.13,7.68.18,15.11,0,16.51a10,10,0,0,1-.52,2.29,5.08,5.08,0,0,1-1.5,1.26,5.38,5.38,0,0,1-2.8.71,6.33,6.33,0,0,1-4.48-2A26.25,26.25,0,0,1,80.32,116c-.35-3.51.66-5.75,0-10.22a47.68,47.68,0,0,0-2.38-9.44h0a10.89,10.89,0,0,0-2.25-3.94,14.68,14.68,0,0,1-5.06-9.75,13.11,13.11,0,0,1,.17-3.08c.26-1.6,1.66-2.72,3.63-3.52C80.52,73.59,92,74.32,92,74.32a68,68,0,0,1,.75,14.78C92.17,96.31,92.05,97,91.91,104.7Z"/><path class="cls-24" d="M91.91,104.7c-.13,7.68.18,15.11,0,16.51a10,10,0,0,1-.52,2.29,5.08,5.08,0,0,1-1.5,1.26c.21-2.45.42-5,.57-6.84.4-4.63-1.06-15.75-.72-21.37S91,82.66,91,82.66s-.84,3-6.76,3a30.52,30.52,0,0,1-6-.57,35.85,35.85,0,0,1-7.7-2.43q-2.16-.92-4.53-2.18c-2.45-1.3-3.58-2.52-4-3.55.32-1.44.69-2.62.69-2.62s7.19.09,11.64,1.75C80.52,73.59,92,74.32,92,74.32a68,68,0,0,1,.75,14.78C92.17,96.31,92.05,97,91.91,104.7Z"/><path class="cls-17" d="M93.07,78.76c-.2.35-2.61,4.43-4.93,5.31-1.83.69-5.11,1.24-10.76-.14a49.23,49.23,0,0,1-5.24-1.62,34.08,34.08,0,0,1-4.3-1.88c-5.18-2.72-6.13-5.27-6.13-5.27s0-1.72.51-2.16.23-2.45,0-3.9.45-3.82.56-5.75-.72-2-1-2.59a13,13,0,0,1-.53-5.38c.36-1.56-.92-2.92-.65-3.84s-.88-4.17-2.2-10.28a18.16,18.16,0,0,1,.49-9.36,7.74,7.74,0,0,0,.46-2c-.06-1.34,3.22-3.8,5-4.92,1-.62,4.5-1.25,8.44-1.32A26.1,26.1,0,0,1,82.17,25a41.25,41.25,0,0,1,10.9,6.86s-.13,35.05-.32,35.57.44,2.76,0,3.95.44,3.51.61,4.17A8.36,8.36,0,0,1,93.07,78.76Z"/><path class="cls-16" d="M89.15,69.6c-.07,2.92-2.24,4.63-5.8,7.27-2,1.51-4.35,4.64-6,7.06a49.23,49.23,0,0,1-5.24-1.62,34.08,34.08,0,0,1-4.3-1.88A14.33,14.33,0,0,1,70,76.87c1.32-1.4,1.51-4.06,2.15-5.41s2.32-3.13,3-5.42,2.43-1.79,3.14-4.12a12.7,12.7,0,0,1,3.42-5.65c1.49-1.39,2.35-5,2.35-5C84.62,49.49,89.21,66.68,89.15,69.6Z"/><path class="cls-12" d="M74,86.42s-.22.4-.56,1h0a39,39,0,0,1-3,4.56c-.8.79-2.14.34-4.11.21s-2.39-.07-2.72-.71a3.37,3.37,0,0,1,.26-2c0-.1.07-.19.1-.27a1.62,1.62,0,0,1,.08-.2l0,0h0a1.37,1.37,0,0,0-.38.14c-.21.12-.7-.19-.88-.89s0-.84.29-1.12a30.46,30.46,0,0,1,2.32-2,28.51,28.51,0,0,0,2.7-1.82A14.13,14.13,0,0,1,71.66,82Z"/><path class="cls-15" d="M96.32,45.41c0,4.12-1.37,14.06-1.93,14.92s-.7,4.64-1.45,6.58c-.07.18-.13.35-.19.52a.1.1,0,0,1,0,0l0,.18c-.51,1.71-.53,3.39-1.3,3.94s-4.61,4.47-6.62,6.65a23.31,23.31,0,0,1-3.72,3.43c-.56.39-.18.84-1.22,1.55l0,0a2.21,2.21,0,0,1-2.28-.06s-1,.95-1.25,1.28-2.5,2.94-2.5,2.94l-1.22-1.33c-1.21-1.31-3.19-3.58-3.19-3.58a13.34,13.34,0,0,0,2.24-1.84c.72-.86.16-.27,1.25-2.51s2.08-.92,2.5-1.08,1.4-3.61,2.14-4.77l.13-.18c.76-.92,2.7-2.63,3.2-4a5.3,5.3,0,0,1,1.24-1.86h0a2.32,2.32,0,0,0,.36-.4s.2-1.1.43-2.28L83,63c.26-1.37.54-2.72.54-2.72v0a29.27,29.27,0,0,1,.06-3.38c0-.59.1-1.28.16-2.07.17-2,.47-4.75.94-8.26.09-.56.16-1.14.26-1.75,1.7-11.78,6.45-13.1,6.45-13.1,1.7-.36,2.86.7,3.59,2.37S96.36,41.3,96.32,45.41Z"/><path class="cls-14" d="M63.92,89a1.7,1.7,0,0,1,1.16-1c.79-.12,1.73-.18,1.73-.18s.51.41.39.85-.38.33-.31.73a5.3,5.3,0,0,1,.06.72s-.21-.7-.72-.49a.72.72,0,0,0-.51.61,1,1,0,0,1,.13-.78c.25-.42.31-1.07,0-1.08s-1.32-.17-1.73.52Z"/><path class="cls-25" d="M69.17,83.34s-3,1.52-3.42,1.8a1,1,0,0,0-.53,1.39,1.07,1.07,0,0,0,1.65.33c.41-.38,1.23-.77,1.27-.35s-.5,1.17-.72,1.55.37,1.26.35,1.63-.4.85-.2,1.18,1.18,1.17,1.79,0a9.73,9.73,0,0,1,1.22-2.28,7.11,7.11,0,0,1,2.1-1.67S70.22,83.74,69.17,83.34Z"/><path class="cls-13" d="M59.84,33.76l.08-.15c-.66,1.69-1.3,4.12-1.36,3.92A13.51,13.51,0,0,1,59.84,33.76Z"/><path class="cls-13" d="M59.92,33.61l.14-.36A2.67,2.67,0,0,1,59.92,33.61Z"/><path class="cls-16" d="M71.33,31.64c-.57.52-3.26.89-3.61,0s-3.42.62-4.52,0a1.74,1.74,0,0,0-2.63.63,4.74,4.74,0,0,0-.5,1c.28-.9,0-1.74-.23-1.6a6,6,0,0,1-1,.26,7.74,7.74,0,0,0,.46-2c-.06-1.34,3.22-3.8,5-4.92,1-.62,4.5-1.25,8.44-1.32A19.36,19.36,0,0,1,71.33,31.64Z"/><path class="cls-26" d="M89,31.05a12.26,12.26,0,0,0-4.15,5.33A47.05,47.05,0,0,0,83,47.77c-.07,3.15.67,10.13.67,10.13s.38-10.11.81-12.12.55-4.83,2-7.73c.93-1.88,3.88-6.57,3.88-6.57a17.22,17.22,0,0,0-3.59,4.31C86,37,85.19,38.06,85.19,38.06A22.37,22.37,0,0,1,89,31.05Z"/><path class="cls-17" d="M91.39,69.1v.61a2.47,2.47,0,0,1-1-.61c-.43-.45.41-1.12-1.28-2.35a10.25,10.25,0,0,0-4.84-2.11c-1.38-.1-1.09.69-1.09.69l-1.15.94c.21-.22.36-.36.36-.41s.2-1.11.43-2.28a3,3,0,0,1,.69.37c.26.3.92-.16,3.85,1A7.56,7.56,0,0,1,91.39,69.1Z"/><path class="cls-17" d="M89.14,63.52a20,20,0,0,1-3.9-.48c-.57-.3-1.14-.92-.79-1.45s.76-1.58-.93-1.32a29.27,29.27,0,0,1,.06-3.38,1.39,1.39,0,0,0,1.36.88c1.62-.14,2.64.52,2.36,1.06a21.83,21.83,0,0,0-.75,2.11s1.46,1,1.89,1.35S90.64,63.7,89.14,63.52Z"/><path class="cls-17" d="M77.52,83.18a5.24,5.24,0,0,0-1.83-3c-1.43-.94-2-1.36-2.15-1.19s0,1.34-.33,1.5S73,79.8,72.46,80s-.52-1.41-.33-1.94,1.37-.08,1.65.18,2.57,1.52,2.92,2.26a14.87,14.87,0,0,1,1,2A1.12,1.12,0,0,1,77.52,83.18Z"/><path class="cls-17" d="M92.69,67.65c-.5,1.71-.52,3.39-1.3,3.94s-4.61,4.48-6.62,6.65a23.86,23.86,0,0,1-3.72,3.43c-.56.39-.18.84-1.22,1.55.07-.42,0-.88-.23-.91-.48,0,0-.89.72-.76s2.08-1,2.52-1.5.76-1.4,0-1.07a9.88,9.88,0,0,1-2.67,1.13c-.7,0,0-.06.71-.84s.86-1.38,1.38-1.46,1.14.26,1.68,0a5.32,5.32,0,0,0,2.38-2.28c.65-1.3.91-2.27,1.85-3s1.17-1.24.7-1.37-.73-.75.59-.49.65,1,1.51.44S92.46,68.36,92.69,67.65Z"/><path class="cls-13" d="M92.75,67.43a.1.1,0,0,1,0,0A.08.08,0,0,0,92.75,67.43Z"/><path class="cls-17" d="M83.57,65.52a7.2,7.2,0,0,0-.57.81c-.12.26,2,1.35,2.16,1.45L83.37,67a1.17,1.17,0,0,0-1,0c-.33.07-.07,1-.07,1.12a31.2,31.2,0,0,0,2.36,2.39,12.66,12.66,0,0,1-1.35-1.14A2.62,2.62,0,0,0,81.07,69c-.7.09-.57.81-.46,1.1a1.91,1.91,0,0,1-.53,1.29,2.57,2.57,0,0,0-.5,1.34c-.11.64,1.55,1.81,1.49,2.18s-1.21-.44-1.89-.72-.57-1-.68-1.74c-.08-.48-.62-.34-1-.19,0-.06.08-.13.12-.18.76-.92,2.7-2.63,3.2-4a7.51,7.51,0,0,1,1.61-2.27c0-.06.27-1.46.55-2.84.18.3.59.48,1.14.79,1,.55.11,1.29.11,1.29l.68.05A5.83,5.83,0,0,1,87,66.42Z"/><path class="cls-17" d="M86.18,47.19a38.56,38.56,0,0,0-1.6,4.43,15.55,15.55,0,0,0,.66,2.16,17.21,17.21,0,0,0,3.18,1.87c2.24,1.09.43,1.42,0,1.34a7.4,7.4,0,0,1-3.18-1.3,4.71,4.71,0,0,0-1.5-.87c.17-2,.46-4.75.94-8.26.63-.55,1.18-.79,1.44-1.05s1.51-1.48,2.3-2.34S90.3,41.36,90.2,42a11.52,11.52,0,0,1-3.32,3.59C86.05,45.94,86.51,46.27,86.18,47.19Z"/><path class="cls-14" d="M71.74,89.69c.51-.66,1.63-2.2,1.7-2.29a39,39,0,0,1-3,4.56c-.8.79-2.14.34-4.11.21s-2.39-.07-2.72-.71a3.37,3.37,0,0,1,.26-2c-.17.53-.35,1.34,0,1.73a3.33,3.33,0,0,0,2.75.74c1.25-.06,1.47.51,2.35,0A11.43,11.43,0,0,0,71.74,89.69Z"/><polygon class="cls-13" points="73.44 87.4 73.44 87.4 73.44 87.39 73.44 87.4"/><path class="cls-27" d="M80.6,25.27A11.36,11.36,0,0,1,77.92,29a15.85,15.85,0,0,1-4,2.75c-4.06,2-5.4-1.32-5.79-2.92A5,5,0,0,1,68,28a7.49,7.49,0,0,1,.09-.92,20.81,20.81,0,0,1,4-9.45c4-5.43,7.78-4.31,7.78-4.31a8,8,0,0,0-.54,1.42c-.65,1.92-1.58,5.25-1.07,6.45A31.44,31.44,0,0,0,80.6,25.27Z"/><path class="cls-28" d="M80.6,25.27A11.36,11.36,0,0,1,77.92,29c-.81-1.48-2-3.3-2-3.3s-3.13,3.07-5.47,3.42a3.65,3.65,0,0,1-2.3-.29A5,5,0,0,1,68,28a7.49,7.49,0,0,1,.09-.92c1.8-2.38,6.52-8.41,10.51-11.76.27-.22.51-.41.75-.58-.65,1.92-1.58,5.25-1.07,6.45A31.44,31.44,0,0,0,80.6,25.27Z"/><path class="cls-29" d="M69.54,25.27s-2.2,3.82-.32,5.7c1.57,1.59,2.11,1.27,2.11,1.27l-1.18,2.63a4.44,4.44,0,0,1-3-3.85,10.38,10.38,0,0,1,1.22-5.32Z"/><path class="cls-29" d="M81,24.58s-1.74,3.77-4.3,5.42a14.75,14.75,0,0,1-5,2.27l-.33,0v2.9s3.2.33,7.18-3.1,4.74-6.22,4.74-6.22Z"/><path class="cls-12" d="M78.18,19.54c-.25,1.52-3.48,4.93-5.86,7.11,0,0,0,.05-.08.06A10,10,0,0,1,66,29a3.14,3.14,0,0,1-2.1-1.33,13.48,13.48,0,0,1-.19-2.2,1,1,0,0,1-.38-.35.69.69,0,0,1,0-.49l-.19-.31-.52-2.14s-.86-.13-1-.69A2.8,2.8,0,0,1,62,20.06s-.1-.47-.26-2.47c0-.44-.09-1-.13-1.58-.16-2-.33-4.51-.33-4.51s14.39.49,16.39.67S78.43,18,78.18,19.54Z"/><path class="cls-30" d="M78.18,19.54c-.25,1.52-3.48,4.93-5.86,7.11,0,0,0,.05-.08.06.65-1.27,1.18-2.56,1.45-3.25.53-1.4.81-5.48.22-5.74A36.83,36.83,0,0,1,71,15.05c-.47-.35-2.91.69-5.42,1.54a4,4,0,0,1-4-.58c-.16-2-.33-4.51-.33-4.51s14.39.49,16.39.67S78.43,18,78.18,19.54Z"/><path class="cls-31" d="M80.44,14.39s-1.24,2.48-1.66,3.27a7.84,7.84,0,0,0-.6,1.88s.75-5.63-1.52-5.15S74.86,15,74.81,16s0,1.54,0,1.54L73.61,17s-1.12-2.58-3-2.91-8.29-2.24-5.13-4S80.77,10.17,80.44,14.39Z"/><path class="cls-17" d="M80.26,15.18s-2.43-.42-8.24-2c-3.61-1-7.3-2.21-9.55-3-1.36-.48-2.2-.8-2.2-.8s.52-2.83,3.82-6.88,9.61-2,9.61-2a11.52,11.52,0,0,1,5.8,3.91C82.23,7.7,80.26,15.18,80.26,15.18Z"/><path class="cls-32" d="M76.15,2a12.32,12.32,0,0,1-.36,5.41,47.85,47.85,0,0,1-2.34,5.68s6.38,2,6.65,1.68S82.88,5.42,76.15,2Z"/><path class="cls-26" d="M73.7.53s-6.31-.2-8.31,3.2a45.36,45.36,0,0,0-2.92,6.46c-1.36-.48-2.2-.8-2.2-.8s.52-2.83,3.82-6.88S73.7.53,73.7.53Z"/><path class="cls-33" d="M75.38,15.11A2.47,2.47,0,0,1,77,13.8c1.12-.17,1.39,1.09,1.23,2.19a17.57,17.57,0,0,1-1,3.28c-.2.45-.52,1.31-1,1.1s-.91-.4-1-1.59A22,22,0,0,1,75.38,15.11Z"/><path class="cls-34" d="M53.12,12.19s.05,1.32,1.27,1,3.46-1,3.46-1-1.14-1.39-1.91-1.07S53.87,11.28,53.12,12.19Z"/><path class="cls-15" d="M60.27,9.39l-6.45,2.14-.55.31-.15.35s1.22-1.52,3.58.33S61.39,16.3,64.52,16,72,13.21,72,13.21,63.33,8.83,60.27,9.39Z"/><path class="cls-35" d="M63.53,10s-2,.57-2.66.82c-.87.32-3.42,1.51-3.42,1.51s3,3,6.19,3.35S71.57,13,71.57,13,64.77,9.79,63.53,10Z"/><path class="cls-36" d="M31.36,127.81,33.85,75.2a1.46,1.46,0,0,1,1-1.3l3.42-1.13a1.29,1.29,0,0,0,.21-1.66.94.94,0,0,0-.92-.49L33.88,72a3.55,3.55,0,0,0-2.34,3.16L29,127Z"/><path class="cls-4" d="M59.88,103.81,33.25,87.89s-1.12.3-1.06,1.21a2.08,2.08,0,0,0,1.06,1.44l26.63,16.14Z"/><path class="cls-4" d="M59.55,113.7,32.93,97.77s-1.13.3-1.06,1.21a2.08,2.08,0,0,0,1.06,1.44l26.62,16.15Z"/><path class="cls-36" d="M59.68,144.74l2.49-52.62a1.43,1.43,0,0,1,1-1.29l3.42-1.14A1.27,1.27,0,0,0,66.78,88a.94.94,0,0,0-.92-.5L62.2,88.87A3.56,3.56,0,0,0,59.86,92l-2.52,51.88Z"/><path class="cls-37" d="M65,87.6l1.72-.34a1.75,1.75,0,0,1,.53,1.06A2.37,2.37,0,0,1,67,89.68L65.77,90S65.84,87.63,65,87.6Z"/><path class="cls-36" d="M35,71.56l.76-.16a7.19,7.19,0,0,1,.37,1.52,2,2,0,0,1-.22.48l-.58-.12Z"/><path class="cls-5" d="M55.16,147.65A5.25,5.25,0,0,1,59.8,147a21.88,21.88,0,0,1,3.38,2l-9.86,17.32s-1.78-1.1-3-1.76-2.2-2.3-2.2-4.61A15.6,15.6,0,0,1,55.16,147.65Z"/><path class="cls-6" d="M65,153.34A15.6,15.6,0,0,1,58,165.55c-3.92,2.26-7.09.45-7.09-4A15.6,15.6,0,0,1,58,149.3C61.87,147,65,148.85,65,153.34Z"/><path class="cls-7" d="M64.81,153.77a14.51,14.51,0,0,1-6.58,11.34c-3.63,2.09-6.57.41-6.57-3.75A14.48,14.48,0,0,1,58.23,150C61.86,147.93,64.81,149.6,64.81,153.77Z"/><ellipse class="cls-8" cx="58.09" cy="157.44" rx="6.9" ry="3.99" transform="translate(-107.15 128.13) rotate(-59.69)"/><ellipse class="cls-9" cx="57.96" cy="157.43" rx="6.19" ry="3.57" transform="translate(-107.2 128.01) rotate(-59.69)"/><path class="cls-10" d="M62,155.1A8.86,8.86,0,0,1,58,162c-2.22,1.28-4,.26-4-2.29a8.86,8.86,0,0,1,4-6.94C60.18,151.53,62,152.55,62,155.1Z"/><path class="cls-38" d="M55,159.05a6.18,6.18,0,0,1,2.81-4.84c1.55-.9,2.81-.18,2.81,1.6a6.21,6.21,0,0,1-2.81,4.84C56.22,161.54,55,160.82,55,159.05Z"/><path class="cls-11" d="M57.39,161.85a8.87,8.87,0,0,0,4-6.93,2.76,2.76,0,0,0-1.26-2.63c1.09.2,1.82,1.2,1.82,2.81A8.86,8.86,0,0,1,58,162a2.89,2.89,0,0,1-2.77.33A3.31,3.31,0,0,0,57.39,161.85Z"/><path class="cls-39" d="M54.67,158.91a6.18,6.18,0,0,1,2.81-4.84c1.55-.9,2.8-.18,2.8,1.6a6.18,6.18,0,0,1-2.8,4.84C55.93,161.4,54.67,160.69,54.67,158.91Z"/><polygon class="cls-40" points="38.21 155.15 7.07 137.17 7.07 134.74 38.21 152.72 38.21 155.15"/><polygon class="cls-41" points="59.87 142.75 38.21 152.72 33.96 150.27 8.46 135.54 7.07 134.74 21.38 128.99 28.74 124.77 34.6 128.15 59.87 142.75"/><polygon class="cls-42" points="38.21 155.15 59.88 145.19 59.88 142.75 38.21 152.72 38.21 155.15"/><polygon class="cls-43" points="34.97 150.4 33.96 147.7 8.46 132.98 17.86 129.71 21.38 126.42 35.24 113.7 34.85 124.88 34.97 150.4"/><polygon class="cls-44" points="34.97 150.41 13.48 138 14.3 108.18 35.78 120.59 34.97 150.41"/><polygon class="cls-45" points="14.3 108.18 13.48 138 34.97 150.41 14.11 137.65 14.3 108.18"/><polygon class="cls-46" points="22.51 143.29 23.32 113.39 26.74 115.36 25.92 145.45 22.51 143.29"/><polygon class="cls-41" points="35.78 120.59 14.3 108.18 34.97 99.21 56.45 111.62 35.78 120.59"/><polygon class="cls-47" points="54.87 111.62 35.85 119.6 14.3 108.18 35.78 120.59 56.45 111.62 34.97 99.21 54.87 111.62"/><polygon class="cls-48" points="24.23 103.91 48.88 118.5 51.77 115.39 24.32 103.81 24.23 103.91"/><polygon class="cls-49" points="28.2 102.1 37.24 107.17 33.25 108.91 24.32 103.81 28.2 102.1"/><polygon class="cls-49" points="51.87 115.3 48.09 117.44 35.53 110.22 40.91 109.22 51.87 115.3"/><polygon class="cls-50" points="26.45 115.23 47.84 106.29 47.79 106.61 26.74 115.36 26.45 115.23"/><polygon class="cls-51" points="40.91 109.22 36.82 110.96 33.25 108.91 37.24 107.17 40.91 109.22"/><polygon class="cls-52" points="33.25 108.91 36.82 110.96 26.45 115.23 23.03 113.25 33.25 108.91"/><polygon class="cls-52" points="47.84 106.29 40.91 109.22 37.24 107.17 44.07 104.14 47.84 106.29"/><polygon class="cls-53" points="22.22 143.15 23.04 113.26 26.45 115.23 25.63 145.31 22.22 143.15"/><polygon class="cls-42" points="34.97 150.41 56.45 140.93 56.45 111.62 35.78 120.59 34.97 150.41"/><polygon class="cls-54" points="34.97 150.41 56.45 140.93 56.45 140.54 34.97 150.02 34.97 150.41"/><polygon class="cls-46" points="48.24 144.6 49.99 114.47 45.45 116.52 44.56 146.26 48.24 144.6"/><polygon class="cls-55" points="48.38 144.69 50.13 114.38 45.59 116.43 44.7 146.35 48.38 144.69"/><path class="cls-56" d="M20,121.18l-5-2.88V111l5,2.89ZM15.42,118l4.07,2.36V114.1l-4.07-2.35Z"/><polygon class="cls-56" points="16.5 117.6 18.2 118.58 18.2 116.57 16.5 115.59 16.5 117.6"/><polygon class="cls-56" points="15.68 115.12 19.03 117.06 17.35 113.55 15.68 115.12"/><polygon class="cls-52" points="45.45 111.71 49.67 114.38 45.59 116.17 45.59 116.43 50.13 114.38 45.45 111.71"/><polygon class="cls-46" points="38.43 126.59 44.09 124.05 44.18 119.24 38.63 121.48 38.52 121.78 38.43 126.59"/><polygon class="cls-57" points="38.74 121.59 44.4 119.06 44.29 118.95 38.63 121.48 38.74 121.59"/><polygon class="cls-58" points="38.65 126.4 38.74 121.59 38.63 121.48 38.54 126.29 38.65 126.4"/><polygon class="cls-55" points="38.65 126.4 44.31 123.87 44.4 119.06 38.74 121.59 38.65 126.4"/><polygon class="cls-59" points="39.04 122.29 44.07 120.04 44.08 119.73 39.05 121.99 39.04 122.29"/><polygon class="cls-60" points="41.1 122.7 44.04 121.39 44.05 121.08 41.1 122.4 41.1 122.7"/><polygon class="cls-60" points="39 125.65 40.53 124.97 40.58 122.38 39.05 123.07 39 125.65"/><polygon class="cls-60" points="41.09 123.37 44.03 122.05 44.04 121.75 41.09 123.06 41.09 123.37"/><polygon class="cls-60" points="41.07 124.03 44.02 122.72 44.02 122.41 41.08 123.72 41.07 124.03"/><polygon class="cls-60" points="41.06 124.69 44.01 123.38 44.01 123.07 41.06 124.39 41.06 124.69"/><path class="cls-4" d="M42,152.72l.45-12.38a2.82,2.82,0,0,1,1.79-2.53L53.94,134a.77.77,0,0,1,1.06.75l-.48,12.9-2.47,1.13a19,19,0,0,0,2.74,1.1c1.19.08,1.58.12,1.66-2.88.1-3.46.33-8.31.41-12.41a2.42,2.42,0,0,0-3.27-2.32L44,135.88a5.14,5.14,0,0,0-3.33,4.64l-.48,13.71-1.43.66a18.81,18.81,0,0,0,1.82,1.31c.18,0,1.29.39,1.36-.66S42,152.72,42,152.72Z"/><path class="cls-61" d="M64.39,88.07l-.69.26a2.7,2.7,0,0,1,.13-.87c.19-.61,1.34-.91,2,.23a3.48,3.48,0,0,1,.35,2.62.84.84,0,0,1-1,.67c-.27,0-.74-.56-.74-.56l.93-.31a1.48,1.48,0,0,0,0-1.57A.82.82,0,0,0,64.39,88.07Z"/><path class="cls-37" d="M35.38,71.08l1.73-.34a1.75,1.75,0,0,1,.53,1.06,2.4,2.4,0,0,1-.24,1.36l-1.21.35S36.26,71.1,35.38,71.08Z"/><path class="cls-25" d="M35.88,69.63a4.66,4.66,0,0,0,0,2.73c.51,1,1.16,2.93,1.16,2.93s.42,2.07,1.7,1.39A1,1,0,0,0,39.16,75a6.25,6.25,0,0,1-.8-2.59c.14-.85.2-1.29.2-1.29s.7-.16,1.16-2A1.78,1.78,0,0,0,39,67.09C38.65,66.82,36.75,65.57,35.88,69.63Z"/><path class="cls-61" d="M34.85,71.61l-.69.25a2.46,2.46,0,0,1,.08-.92c.2-.62,1.35-.91,2,.23a3.48,3.48,0,0,1,.35,2.62.84.84,0,0,1-1,.67,2.41,2.41,0,0,1-.74-.56l.93-.31A1.49,1.49,0,0,0,35.66,72C35.33,71.36,34.85,71.61,34.85,71.61Z"/></g></g></g></svg>