<svg xmlns="http://www.w3.org/2000/svg" xmlns:xlink="http://www.w3.org/1999/xlink" viewBox="0 0 120.47 105.47"><defs><style>.cls-1{isolation:isolate;}.cls-2{fill:#ff3650;}.cls-3{fill:#b76f3f;}.cls-4{fill:#a45823;}.cls-5{fill:#9c480c;}.cls-6{fill:#efd995;}.cls-7{fill:#ffedb4;}.cls-8{fill:#c39055;}.cls-9{fill:#e6e1e4;}.cls-10{fill:#f1f1f1;}.cls-11{fill:#b3a4ad;}.cls-12{fill:#d9af6a;}.cls-13{fill:#b58847;}.cls-14{fill:#d6d6d6;}.cls-15{fill:#d4baa5;}.cls-15,.cls-26,.cls-27{mix-blend-mode:multiply;}.cls-16{fill:url(#Áåçûìÿííûé_ãðàäèåíò_3);}.cls-17{fill:#b5b2ae;}.cls-18{fill:#999;}.cls-19{fill:#b3b3b5;}.cls-20{fill:#98989b;}.cls-21{fill:#eaeaeb;}.cls-22{fill:#d4d4d5;}.cls-23{fill:#95a2f2;}.cls-24{fill:url(#Áåçûìÿííûé_ãðàäèåíò_3-2);}.cls-25{fill:#0067ab;}.cls-25,.cls-30,.cls-31{mix-blend-mode:screen;}.cls-26{fill:#95d1e6;}.cls-27{fill:#d9dcd6;}.cls-28{fill:url(#Áåçûìÿííûé_ãðàäèåíò_441);}.cls-29{fill:#7a7a7a;}.cls-30{fill:#2e84ab;}.cls-31{fill:url(#Áåçûìÿííûé_ãðàäèåíò_502);}.cls-32{fill:#eae5e7;}.cls-33{fill:#77726d;}</style><linearGradient id="Áåçûìÿííûé_ãðàäèåíò_3" x1="82.82" y1="24.38" x2="58.74" y2="66.09" gradientUnits="userSpaceOnUse"><stop offset="0.01" stop-color="#e8e6e4"/><stop offset="0.02" stop-color="#e8e8e6"/><stop offset="0.04" stop-color="#e8e8e6"/><stop offset="0.16" stop-color="#e8e8e6"/><stop offset="0.37" stop-color="#e8e6e4"/><stop offset="0.38" stop-color="#d9d7d5"/><stop offset="0.78" stop-color="#d3d1ce"/><stop offset="0.79" stop-color="#cccac5"/><stop offset="0.86" stop-color="#b8b6b2"/><stop offset="0.93" stop-color="#aba8a5"/><stop offset="1" stop-color="#a6a3a0"/></linearGradient><linearGradient id="Áåçûìÿííûé_ãðàäèåíò_3-2" x1="65.11" y1="83.18" x2="85.88" y2="47.2" xlink:href="#Áåçûìÿííûé_ãðàäèåíò_3"/><linearGradient id="Áåçûìÿííûé_ãðàäèåíò_441" x1="33.84" y1="81.64" x2="40.41" y2="88.42" gradientUnits="userSpaceOnUse"><stop offset="0.01" stop-color="#dbdbdb"/><stop offset="0.02" stop-color="#dbdbdb"/><stop offset="0.04" stop-color="#dbdbdb"/><stop offset="0.16" stop-color="#dbdbdb"/><stop offset="0.37" stop-color="#dbdbdb"/><stop offset="0.38" stop-color="#ccc"/><stop offset="0.78" stop-color="#c6c6c6"/><stop offset="0.79" stop-color="#bfbfbf"/><stop offset="0.81" stop-color="#b6b6b6"/><stop offset="0.88" stop-color="#9f9f9f"/><stop offset="0.94" stop-color="#919191"/><stop offset="1" stop-color="#8c8c8c"/></linearGradient><linearGradient id="Áåçûìÿííûé_ãðàäèåíò_502" x1="83.22" y1="70.21" x2="68.08" y2="26.23" gradientUnits="userSpaceOnUse"><stop offset="0.05" stop-color="#47f5bb"/><stop offset="0.73"/></linearGradient></defs><g class="cls-1"><g id="Layer_2" data-name="Layer 2"><g id="Layer_1-2" data-name="Layer 1"><polygon class="cls-2" points="36.94 93.77 16.58 82.01 83.69 43.26 104.06 55.02 36.94 93.77"/><polygon class="cls-2" points="113.83 60.85 73.6 37.62 120.09 34.01 113.83 60.85"/><polygon class="cls-2" points="6.64 76.28 46.87 99.5 0.38 103.12 6.64 76.28"/><polygon class="cls-2" points="104.04 82.17 83.8 93.86 16.27 54.86 36.5 43.18 104.04 82.17"/><polygon class="cls-2" points="46.53 37.58 6.56 60.66 0 33.79 46.53 37.58"/><polygon class="cls-2" points="73.93 99.55 113.91 76.47 120.47 103.34 73.93 99.55"/><polygon class="cls-3" points="60.32 94.44 19.29 70.76 19.29 23.68 60.32 47.37 60.32 94.44"/><polygon class="cls-4" points="19.29 25.62 19.29 70.76 60.32 94.44 20.55 70.05 19.29 25.62"/><polygon class="cls-5" points="36.73 80.96 36.73 33.75 43 37.37 43 84.95 36.73 80.96"/><polygon class="cls-6" points="60.32 47.37 19.29 23.68 60.32 0 101.34 23.68 60.32 47.37"/><polygon class="cls-7" points="98.31 23.68 60.43 45.48 19.29 23.68 60.32 47.37 101.34 23.68 60.32 0 98.31 23.68"/><polygon class="cls-8" points="37.11 13.4 83.86 40.35 90.83 36.39 37.41 12.85 37.11 13.4"/><polygon class="cls-8" points="36.64 33.77 84.89 13.51 84.95 14.22 84.76 14.11 43 37.37 36.64 33.77"/><polygon class="cls-9" points="37.41 12.85 85.37 40.39 92.58 36.29 43.93 9.09 37.41 12.85"/><polygon class="cls-10" points="35.97 33.38 77.69 9.41 84.89 13.51 42.49 37.14 35.97 33.38"/><polygon class="cls-11" points="35.97 80.59 35.97 33.38 42.49 37.14 42.49 84.72 35.97 80.59"/><polygon class="cls-12" points="60.32 94.44 101.34 70.76 101.34 23.68 60.32 47.37 60.32 94.44"/><polygon class="cls-13" points="60.32 94.44 101.34 70.76 101.34 69.98 60.32 93.67 60.32 94.44"/><polygon class="cls-14" points="86.17 79.59 86.17 32.01 79.66 35.77 79.66 83.35 86.17 79.59"/><path class="cls-15" d="M84.9,27.11a43.14,43.14,0,0,0-26.82,1.24,131.36,131.36,0,0,0-16.81,8.08s-2.48,12.39,2.37,22.62S53.7,69.93,53.7,69.93L40.82,83.19l6,3.49,9.85-11.3s13.5-1.57,15.46-3.9S84.9,27.11,84.9,27.11Z"/><path class="cls-16" d="M94.43,22.69s-10,41.7-22.25,48.8c-5.19,3-9.67,5.2-9.67,5.2S56,72.94,55,72.11a11.72,11.72,0,0,1-2.35-2.63,15,15,0,0,1-1.83-4,23,23,0,0,1-.9-6.68c0-14.11,10-31.3,22.26-38.39,5.77-3.34,11-3.85,15-2A41.77,41.77,0,0,1,94.43,22.69Z"/><path class="cls-17" d="M55.71,72.06c-3.18-2.58-5.08-7.14-5.08-13.31,0-14.1,10-31.29,22.26-38.39a21.33,21.33,0,0,1,8.8-3,20.73,20.73,0,0,0-9.51,3c-12.3,7.1-22.26,24.29-22.26,38.39,0,6.18,1.91,10.73,5.08,13.32,1,.83,7.51,4.57,7.51,4.57l.42-.21C61.66,75.74,56.6,72.79,55.71,72.06Z"/><path class="cls-18" d="M52.65,69.48a15,15,0,0,1-1.83-4,7.58,7.58,0,0,1,1.63.14S52.6,67.61,52.65,69.48Z"/><ellipse class="cls-19" cx="78.01" cy="49.41" rx="31.38" ry="18.12" transform="translate(-4.02 91.82) rotate(-59.69)"/><path class="cls-20" d="M78,74.26c-12.19,7-22.08,1.5-22.25-12.35v.35c0,14.11,10,19.79,22.25,12.69s22.26-24.28,22.26-38.39v-.34C100.1,50.26,90.21,67.22,78,74.26Z"/><path class="cls-21" d="M56.27,63.08c0-14.11,10-31.29,22.26-38.39,8.33-4.81,15.59-3.75,19.4,1.82C94.28,20.24,86.74,18.83,78,23.87,65.72,31,55.76,48.16,55.76,62.26c0,4.55,1,8.22,2.85,10.87A19.94,19.94,0,0,1,56.27,63.08Z"/><path class="cls-22" d="M60.48,60.44c0,11.77,7.28,16.39,17.53,10.47s18.57-20.26,18.57-32S89.3,22.5,79.05,28.42,60.48,48.68,60.48,60.44Z"/><path class="cls-23" d="M68.71,73.07c-6.81,0-8-7.45-8.18-10.65-.75-12.35,8-28.06,19-34.28a16.37,16.37,0,0,1,7.77-2.38c6.81,0,8,7.44,8.18,10.64.74,12.36-8,28.06-19,34.28a16.39,16.39,0,0,1-7.77,2.39Z"/><path class="cls-24" d="M88.68,25.87c2,2.46,2.52,6.1,2.64,8.1.74,12.36-8,28.06-19,34.28a16.36,16.36,0,0,1-7.77,2.39h0a8.2,8.2,0,0,1-1.35-.11,6.81,6.81,0,0,0,5.54,2.54h0a16.39,16.39,0,0,0,7.77-2.39c11-6.22,19.76-21.92,19-34.28C95.33,33.42,94.29,26.79,88.68,25.87Z"/><path class="cls-25" d="M93.16,34.87c-.13-2.15-.71-6.21-3.14-8.65a7.71,7.71,0,0,0-2.7-.46,16.37,16.37,0,0,0-7.77,2.38c-11,6.22-19.77,21.92-19,34.28.12,2.15.7,6.22,3.13,8.65a7.52,7.52,0,0,0,2.7.47h0a16.36,16.36,0,0,0,7.77-2.39C85.19,62.93,93.9,47.23,93.16,34.87Z"/><path class="cls-26" d="M93.16,34.87a21.22,21.22,0,0,0-.49-3.36c.09.63.14,1.21.17,1.68.74,12.36-8,28.07-19,34.29a16.37,16.37,0,0,1-7.77,2.38h0a7.67,7.67,0,0,1-2.7-.46,11,11,0,0,1-2.65-5.29c.31,2.2,1.07,5.07,3,7a7.52,7.52,0,0,0,2.7.47h0a16.36,16.36,0,0,0,7.77-2.39C85.19,62.93,93.9,47.23,93.16,34.87Z"/><path class="cls-27" d="M93.16,34.87c-.13-2.15-.71-6.21-3.14-8.65a7.71,7.71,0,0,0-2.7-.46,16.37,16.37,0,0,0-7.77,2.38c-11,6.22-19.77,21.92-19,34.28.12,2.15.7,6.22,3.13,8.65a7.52,7.52,0,0,0,2.7.47h0a16.36,16.36,0,0,0,7.77-2.39C85.19,62.93,93.9,47.23,93.16,34.87ZM74,68.88a15.3,15.3,0,0,1-7.29,2.24h0a7.05,7.05,0,0,1-2.53-.44c-2.28-2.28-2.82-6.09-2.94-8.1C60.54,51,68.7,36.27,79.06,30.44a15.39,15.39,0,0,1,7.29-2.23,7.28,7.28,0,0,1,2.53.43c2.28,2.29,2.82,6.09,2.94,8.11C92.51,48.33,84.35,63.05,74,68.88Z"/><path class="cls-28" d="M56.72,71.57A2.35,2.35,0,0,1,56,73.48C55.84,73.6,22.35,105,22.35,105s-1.79-1.39-2.53-1.82c-1.77-1-3.29-5-3.29-5s34.2-32.15,34.84-32.45a2.32,2.32,0,0,1,2.15.29A7,7,0,0,1,56.72,71.57Z"/><path class="cls-29" d="M22.83,103c.24,2-1,3-2.88,2.23a7,7,0,0,1-4.06-4.9c-.24-2,1.08-3,3-2.2A6.91,6.91,0,0,1,22.83,103Z"/><path class="cls-30" d="M91.64,38.66c-.11-1.8-.6-5.19-2.62-7.22a6.29,6.29,0,0,0-2.26-.39,13.66,13.66,0,0,0-6.48,2c-9.23,5.19-16.5,18.3-15.89,28.62.11,1.79.59,5.18,2.62,7.22a6.29,6.29,0,0,0,2.26.39h0a13.66,13.66,0,0,0,6.48-2C85,62.08,92.25,49,91.64,38.66Z"/><path class="cls-31" d="M90.72,38.26c-.11-1.79-.6-5.18-2.62-7.22a4.84,4.84,0,0,0-.68-.18,9.74,9.74,0,0,1,2.64,6.19c.62,10.32-8.66,22.29-17.88,27.48-2.32,1.3-8.37,3.58-8.85,3.46a7.19,7.19,0,0,0,.81,1,6.52,6.52,0,0,0,2.26.39h0a22.86,22.86,0,0,0,8.43-2.53C84.06,61.69,91.33,48.58,90.72,38.26Z"/><polygon class="cls-32" points="64.28 62.35 88.32 48.3 88.32 34.06 64.28 48.1 64.28 62.35"/><polygon class="cls-33" points="65.89 59.99 67.53 59 67.53 48.25 65.89 49.24 65.89 59.99"/><polygon class="cls-33" points="68.68 58.34 69.49 57.8 69.49 47.05 68.68 47.59 68.68 58.34"/><polygon class="cls-33" points="71.03 56.94 72.68 55.94 72.68 45.2 71.03 46.19 71.03 56.94"/><polygon class="cls-33" points="73.82 55.28 74.45 54.92 74.45 44.17 73.82 44.54 73.82 55.28"/><polygon class="cls-33" points="75.48 54.29 77.12 53.3 77.12 42.55 75.48 43.54 75.48 54.29"/><polygon class="cls-33" points="78.27 52.63 79.52 51.91 79.52 41.16 78.27 41.89 78.27 52.63"/><polygon class="cls-33" points="80.62 51.17 81.44 50.72 81.44 39.97 80.62 40.43 80.62 51.17"/><polygon class="cls-33" points="82.59 50.06 83.84 49.33 83.84 38.58 82.59 39.31 82.59 50.06"/><polygon class="cls-33" points="84.94 48.66 86.58 47.66 86.58 36.91 84.94 37.91 84.94 48.66"/><path class="cls-4" d="M31.64,47.52,22.11,42V28l9.53,5.51Zm-8.65-6L30.76,46V34L23,29.51Z"/><polygon class="cls-4" points="25.06 40.68 28.3 42.55 28.3 38.71 25.06 36.84 25.06 40.68"/><polygon class="cls-4" points="23.48 35.96 29.88 39.65 26.68 32.96 23.48 35.96"/></g></g></g></svg>