<svg xmlns="http://www.w3.org/2000/svg" width="332.311" height="243.766" viewBox="0 0 332.311 243.766"><path d="M2578.221,1209.665l0,0-.013-.019C2578.211,1209.655,2578.216,1209.66,2578.221,1209.665Z" transform="translate(-2258.386 -1090.238)" fill="#49bfb3"/><path d="M2313.8,1139.159c.015.086.033.175.053.247a.731.731,0,0,0,.038.11c-.055-.331-.089-.511-.108-.59C2313.788,1139,2313.793,1139.079,2313.8,1139.159Z" transform="translate(-2127.036 -1055.108)" fill="#49bfb3"/><path d="M2454.9,1331.113h-3.639a1.109,1.109,0,0,0,0,2.207c1.1-.11,2.2-.11,3.2-.11.881,0,2.093.22,2.753-.555a.826.826,0,0,0,0-.991C2456.658,1331,2455.667,1331.113,2454.9,1331.113Z" transform="translate(-2194.829 -1150.57)" fill="#49bfb3"/><path d="M2434.743,1348.083a20.862,20.862,0,0,0-3.749-.22,33.688,33.688,0,0,1-4.41-.771c-1.106-.22-1.656,1.542-.441,1.762,2.424.555,6.5,1.986,8.71.22C2435.186,1348.853,2435.186,1348.193,2434.743,1348.083Z" transform="translate(-2182.506 -1158.501)" fill="#49bfb3"/><path d="M2359.247,1313.383c-1.987-.771-4.19-1.322-6.287-1.982-4.41-1.1-8.929-1.877-13.449-2.647-1.212-.22-1.762,1.656-.552,1.876,4.3,1.1,8.49,2.2,12.679,3.309,2.2.661,4.3,1.322,6.4,2.093,1.432.44,3.639,1.766,5.181.881a.569.569,0,0,0,.33-.771C2363.107,1314.49,2360.681,1313.826,2359.247,1313.383Z" transform="translate(-2139.204 -1139.458)" fill="#49bfb3"/><path d="M1945.231,1084.567c11.577,7.938,25.137,12.017,37.484,18.3a31,31,0,0,0,9.815-2.868c1.322-1.211,1.873-2.978,2.754-4.41a30.878,30.878,0,0,1,2.757-3.859c1.761-2.537,3.307-5.181,3.418-8.378.22-6.176-6.065-8.489-10.915-9.814-.881-.22-1.873-.552-2.868-.882-.274-.068-.593-.178-.927-.28a12.764,12.764,0,0,0-1.386-.6c-2.978-1.322-6.066-2.427-9.04-3.529-2.868-.991-5.956-2.093-8.159-3.088.22.22.11.11-.33-.111a5.827,5.827,0,0,1-1.215-.551c-.661-.33-1.211-.661-1.873-.991-.551-.331-1.105-.551-1.656-.881l-.11-.11a10.178,10.178,0,0,0-1.873-1.877c-.035-.024-.065-.047-.1-.07a4.216,4.216,0,0,1-.453-.481c-1.436-1.982-4.3-3.419-6.616-1.762-3.418,2.423-4.74,6.5-6.172,10.251a19.91,19.91,0,0,0-.885,2.317,2.225,2.225,0,0,1-.44.882c-.048.135-.081.231-.108.31s-.067.141-.113.241c-.33.771-.661,1.432-.991,2.207a7.426,7.426,0,0,0-.771,1.211c-.111.11-.992,1.322-.331.441C1942.036,1078.945,1942.141,1082.473,1945.231,1084.567Zm46.15-.1c-.013-.029-.026-.054-.039-.085a.383.383,0,0,1,.069.125C1991.4,1084.5,1991.391,1084.486,1991.381,1084.471Zm.221.287c.206.241.347.448,0,0Zm-.453-1.928a.138.138,0,0,0,0-.016l.06-.122C1991.189,1082.74,1991.169,1082.785,1991.149,1082.83Zm-28.5-11.716a47.306,47.306,0,0,0,7.5,4.63c2.427,1.212,4.961,2.207,7.5,3.309a76.615,76.615,0,0,0,7.387,3.418,43.1,43.1,0,0,0,5.339,1.682,28.174,28.174,0,0,1-2.141,2.948,24.355,24.355,0,0,0-3.308,5.4c-9.96-4.836-20.406-8.455-29.8-14.215.787-1.618,1.473-3.312,2.128-5.08q.827-2.312,1.652-4.63c-.11.551-.11.44.11-.11.095-.188.19-.377.283-.565l.048.015A30.313,30.313,0,0,0,1962.649,1071.115Z" transform="translate(-1942.71 -1014.712)" fill="#49bfb3"/><path d="M2578.175,1209.48h0l0,.01Z" transform="translate(-2258.365 -1090.154)" fill="#49bfb3"/><path d="M2436.79,1191.35c.028.075.111.274.278.664C2436.981,1191.783,2436.886,1191.566,2436.79,1191.35Z" transform="translate(-2188.136 -1081.148)" fill="#49bfb3"/><path d="M2514.36,1092.306c-.771.11-.771.11-.22,0-.551.11-1.1.11-1.767.22-1.652.111-3.415.22-5.07.331-3.418.11-6.837.11-10.142.22a80.58,80.58,0,0,0-10.365.771c-3.529.555-8.489,1.656-9.591,5.625a4.576,4.576,0,0,0,.11,2.423c0,.11-.11.22-.11.33a9.711,9.711,0,0,0-.22,1.766c0,1.1.11,2.2.22,3.418.11,2.864,0,5.621.22,8.489a5.637,5.637,0,0,0,5.4,5.4c7.718.991,15.436.661,23.154.22,2.863-.11,5.842.11,8.819,0,2.758,0,6.062-.11,8.71-1.212a4.19,4.19,0,0,0,1.652-.11c4.3-1.656,5.294-5.625,6.286-9.594a23.836,23.836,0,0,0,.771-11.133,10.864,10.864,0,0,0-7.278-7.828c-2.753-.992-6.062-.22-8.819.33C2515.573,1092.085,2514.914,1092.2,2514.36,1092.306Zm6.054,11.112c-.039.579-.184,1.913.009.469a17.19,17.19,0,0,1-.881,3.969c-.11.44-.22.881-.33,1.432-.548.078-1.257.156-1.152.156-1.234.093-2.466.175-3.7.175-2.977,0-5.845-.11-8.819,0-3.639.22-7.388.551-11.027.661-2.4.069-4.849.1-7.285.133-.346-1.889-.646-3.785-1.094-5.644a4.122,4.122,0,0,0,1.1-.11h8.82a109.96,109.96,0,0,0,18.083-.331c1.762-.22,3.529-.44,5.181-.771A4.963,4.963,0,0,0,2520.415,1103.418Z" transform="translate(-2208.103 -1031.384)" fill="#49bfb3"/><path d="M2525.8,1312.32l.023.092A.4.4,0,0,0,2525.8,1312.32Z" transform="translate(-2232.351 -1141.238)" fill="#49bfb3"/><path d="M2378.017,1300.795c-1.542-.444-3.195-.664-4.74-.995a72.1,72.1,0,0,0-9.811-.881c-1.542-.111-1.542,2.317,0,2.427a81.055,81.055,0,0,1,9.039,1.211,32.828,32.828,0,0,1,4.741.991c1.1.22,2.647.771,3.638.11a.892.892,0,0,0,.33-1.1C2380.664,1301.343,2379.124,1301.122,2378.017,1300.795Z" transform="translate(-2151.14 -1134.579)" fill="#49bfb3"/><path d="M1993.826,1200.422c2.207-.334,3.859-2.868,3.859-4.964a4.751,4.751,0,0,0-.991-2.864,6.474,6.474,0,0,0,.885-.665c1.873-1.982,2.2-5.07,2.313-7.6,0-5.074-2.207-9.925-7.167-11.8a11.641,11.641,0,0,0-5.511-.551c-1.1.22-2.207.33-3.308.551-.44.11-.771.22-1.211.33-.11,0-1.326.22-.881.22-5.074.551-10.145.661-15.106.991A38.869,38.869,0,0,0,1958,1175.5a24.922,24.922,0,0,0-2.648.775c-.11-.11-.22-.11-.33-.22,0,0-.985-.66-.755-.48a6.5,6.5,0,0,0-2.773-1.286c-3.419-.771-5.952,1.542-6.282,4.85-.22,1.656,0,3.419-.11,5.074,0,1.983,0,3.969.11,5.952.441,5.291,2.423,10.255,7.828,12.238,2.533.881,5.291.44,7.938.33q5.453-.5,10.912-.661c3.639-.22,7.277-.441,10.916-.771S1990.187,1201.081,1993.826,1200.422Zm-4.338-18.384v0a1.18,1.18,0,0,1,.26.083C1989.639,1182.083,1989.558,1182.058,1989.488,1182.037Zm.1.835c.04.2.055.3,0,0Zm-.347-.971c0,.006.009.013.012.019-.045-.038-.1-.081-.165-.133A1.568,1.568,0,0,0,1989.236,1181.9Zm-25.289,9.919c-1.542.11-3.2.22-4.74.331-.661.114-1.322.114-1.982.224a1.947,1.947,0,0,1-.758-.1l-.1-.173a3.988,3.988,0,0,1-.134-.388c-.1-.416-.208-.737-.312-1.142,0-.041-.009-.095-.018-.179,0-.441-.11-.991-.11-1.542-.11-1.986,0-3.969-.11-6.066a8.531,8.531,0,0,0,1.656.22c2.423.331,4.96,0,7.494.11a115.383,115.383,0,0,0,15.106.111q3.31-.331,6.616-.991c.3-.1.7-.114,1.1-.2.063,0,.169-.009.333-.023a4.457,4.457,0,0,1,1.212,0h.015a.333.333,0,0,0,.17.106l.016.023c.008.031.014.055.024.092a2.694,2.694,0,0,1,.114.41,21.154,21.154,0,0,1,.106,2.568,15.834,15.834,0,0,0,.22,3.969,3.225,3.225,0,0,0,.22.992,56.254,56.254,0,0,0-6.066.44c-3.418.22-6.833.551-10.361.661C1970.454,1191.489,1967.253,1191.6,1963.947,1191.821Z" transform="translate(-1943.897 -1071.473)" fill="#49bfb3"/><path d="M2525.616,1311.82a.471.471,0,0,1,.075.115l-.1-.389c0,.029-.009.056-.012.085Z" transform="translate(-2232.242 -1140.854)" fill="#49bfb3"/><path d="M2543.407,1191.01a11.979,11.979,0,0,0-6.5-8.049c-4.523-2.1-9.7-2.207-14.555-2.757-5.07-.551-10.035-1.1-15.1-1.656l-7.274-.661c-2.757-.22-5.625-.881-8.272-.331a3.839,3.839,0,0,0-2.863,2.757,2.15,2.15,0,0,0-.11.771,27.755,27.755,0,0,0-5.185,13.449,11.483,11.483,0,0,0,2.1,7.5c2.317,3.088,5.511,4.519,9.15,5.845,5.844,2.093,12.128,2.974,18.193,4.63,2.973.881,5.732,2.2,8.6,3.308,3.638,1.432,8.158,3.084,12.127,1.873a5.859,5.859,0,0,0,4.079-4.079,7.038,7.038,0,0,0-.22-3.969c2.2-2.317,3.525-5.291,4.741-8.378A19.218,19.218,0,0,0,2543.407,1191.01Zm-12.184,2.677h0c0,.005,0,.01.006.014S2531.228,1193.692,2531.223,1193.687Zm-.071-.091-.2-.273a1.743,1.743,0,0,1,.214.262c0,.007,0,.013,0,.02S2531.158,1193.6,2531.153,1193.6Zm.116.156,0,.008-.008-.01Zm-.111-.236c-.116-.808-.032-.419,0,0,0,.009.007.017.01.026a.849.849,0,0,1,.033.087l-.014-.01.025.037c0,.009.007.016.01.024h0c-.011-.022-.022-.041-.033-.062l-.012-.008c0-.005,0-.011,0-.016l.005.008-.006-.011c0-.024-.007-.047-.01-.068,0,.019,0,.038,0,.057C2530.614,1192.58,2530.961,1193.033,2531.158,1193.516Zm-36.26-.85c-.046.346-.073.536-.084.627A5.758,5.758,0,0,1,2494.9,1192.666Zm-.176,2.345c-.065-.337-.075-.554,0,0Zm35.349,3.166c-.185.51-.1.358.025.1-.116.256-.268.5-.355.67-.551,1.215-1.1,2.317-1.546,3.528a15.562,15.562,0,0,0-.661,2.1,8.147,8.147,0,0,1-1.542-.44c-2.757-.991-5.4-2.1-8.269-2.978-5.405-1.762-11.247-2.537-16.757-3.859-1.437-.33-2.758-.661-4.079-1.1a8.951,8.951,0,0,1-1.353-.469,5.172,5.172,0,0,0-.737-.38c0-.008-.005-.016-.007-.024V1194.1c0-.258,0-.518.025-.8.03-.2.131-.882.2-1.076a25.635,25.635,0,0,0,.551-3.088,13.3,13.3,0,0,0,.334-2.093c.77.22,1.432.33,2.2.551,2.537.771,5.071,1.211,7.718,1.762,4.961.991,9.921,1.656,15,2.427,2.423.331,4.74.661,7.163,1.1.882.22,1.656.33,2.538.551.065.016.147.042.233.073.145.08.285.161.427.241,0,.006,0,.011,0,.017a.76.76,0,0,1,.045.134c-.008-.049-.013-.093-.021-.136l.054.03a2.838,2.838,0,0,1,.032.523c-.011-.073-.021-.133-.031-.2a.891.891,0,0,1-.079.418c0,.178,0,.3.007.379A15.528,15.528,0,0,1,2530.071,1198.176Zm1.228-4.358.012.007c.028.053.054.106.081.159C2531.359,1193.924,2531.329,1193.873,2531.3,1193.818Zm.03.02.035.019C2531.646,1194.17,2531.963,1194.678,2531.329,1193.838Z" transform="translate(-2211.352 -1074.19)" fill="#49bfb3"/><path d="M2003.86,992.181c.771,2.207,2.2,3.2,3.969,4.519,1.322,1.1,2.648,2.1,3.969,3.2,2.757,2.313,5.511,4.63,8.269,7.053,2.648,2.317,5.291,4.744,7.718,7.278,2.534,2.647,5.071,6.506,9.04,6.726a.825.825,0,0,0,.551-.11,1.757,1.757,0,0,0,.882.331c2.757.551,4.41-.441,6.4-2.093,1.322-.995,2.537-2.1,3.749-3.2,2.093-1.877,4.3-4.079,4.96-6.727a3.752,3.752,0,0,0,.992-2.647c.22-2.864-2.534-4.85-4.3-6.833-1.542-1.656-3.089-3.418-4.631-4.96a62.246,62.246,0,0,0-9.591-8.269c-2.867-1.986-5.956-3.639-8.933-5.515a28.229,28.229,0,0,1-5.621-4.3,4.641,4.641,0,0,0-2.093-3.2c-2.207-1.322-4.519-.331-5.955,1.546-3.195,4.41-7.938,8.378-9.591,13.78a2.747,2.747,0,0,0,0,1.877A3.7,3.7,0,0,0,2003.86,992.181ZM2015,986.231c1.432-1.546,2.864-3.089,4.189-4.744a21.849,21.849,0,0,0,2.534,3.308,80.43,80.43,0,0,0,8.268,7.167,42.653,42.653,0,0,1,3.749,2.977,67.488,67.488,0,0,1,4.851,4.961c1.656,1.762,3.308,3.638,4.964,5.511.33.441.771.881,1.1,1.322a23.05,23.05,0,0,1-2.1,1.436,36.279,36.279,0,0,0-4.63,3.528c-.11,0-.22.111-.33.22-.991-1.216-2.093-2.427-3.088-3.529-2.424-2.647-5.071-5.071-7.608-7.5-2.643-2.423-5.4-4.85-8.158-7.167-1.432-1.1-2.974-2.313-4.406-3.528-.555-.441-1.215-.882-1.766-1.322C2013.452,987.994,2014.222,987.113,2015,986.231Z" transform="translate(-1972.894 -972.603)" fill="#49bfb3"/><path d="M2264.466,1144.587a6.078,6.078,0,0,0-2.758-6.392,24.113,24.113,0,0,1-5.511-4.41,62.371,62.371,0,0,0-4.63-4.74,23.4,23.4,0,0,0-6.616-4.74,11.624,11.624,0,0,0-4.851-1.215,5.3,5.3,0,0,0-2.537.551,3.267,3.267,0,0,0-1.762.11h-.11c.11-1.982.11-3.969.22-5.952a139.572,139.572,0,0,0-.551-15.215,97.87,97.87,0,0,0-1.656-15.1,44.218,44.218,0,0,0-4.519-11.687,44.675,44.675,0,0,0-9.15-11.687,21.916,21.916,0,0,0,2.537-10.806,16.024,16.024,0,0,0-2.317-8.158,10.494,10.494,0,0,0-3.418-3.525,20.946,20.946,0,0,0-.221-5.845,15.484,15.484,0,0,0-4.85-9.591,34.534,34.534,0,0,0-5.732-3.859c1.432-7.057.22-14.444-4.414-20.176-2.313-2.868-5.511-5.291-9.26-5.841a10.122,10.122,0,0,0-4.079.106,15.185,15.185,0,0,0-1.322-6.172,13.977,13.977,0,0,0-6.947-6.616,24.6,24.6,0,0,0-14.11-1.432,26.951,26.951,0,0,0-9.48,3.308,18.944,18.944,0,0,0-3.2-3.418c-4.634-3.859-12.018-6.616-18.083-4.851a20.756,20.756,0,0,0-10.8,8.379c-3.529-1.656-8.048-.551-11.577,1.432a25.467,25.467,0,0,0-8.929,9.485c-.111.22-.221.33-.335.551a8.892,8.892,0,0,0-3.414,0,15.516,15.516,0,0,0-8.49,5.4c-.11,0-.11.11-.22.11-.775-.11-1.767-.22-2.647-.33a23.859,23.859,0,0,0-6.836.22,38.321,38.321,0,0,0-11.687,4.3,64.459,64.459,0,0,0-18.741,16.207,67.469,67.469,0,0,0-12.9,23.154,84.107,84.107,0,0,0-3.088,27.229c.33,8.158.551,16.207.11,24.365-.22,4.52-.44,9.04-.551,13.56v3.859c-.22-.22-.44-.331-.551-.441a6.779,6.779,0,0,0-3.308-2.2c-4.52-1.215-9.15,2.313-12.238,5.291-2.427,2.537-4.52,5.291-6.727,8.048-1.211,1.542-2.533,3.088-3.859,4.63a18.9,18.9,0,0,1-2.423,2.648c-.175.175-1.25,1.04-1.135,1.006-.43.291-.863.633-1.292.977-.992,1.322-1.212,1.546-.661.771a4.55,4.55,0,0,0-.771,1.215,10.382,10.382,0,0,0-.991,1.322c-1.546,2.537-1.436,5.4-.664,8.158,1.326,5.291,5.295,9.921,8.823,14,3.415,3.748,7.053,7.167,10.8,10.585,4.52,3.969,9.044,8.048,13.449,12.128,6.948,6.392,13.894,12.678,21.282,18.52,3.859,3.088,7.938,6.066,12.017,8.933a37.787,37.787,0,0,0,6.943,3.635,69.286,69.286,0,0,1,6.287,3.308,4.649,4.649,0,0,0,6.282-1.652,6.514,6.514,0,0,0,.555-1.546,23.944,23.944,0,0,0,6.282-3.969,71.086,71.086,0,0,0,7.057-7.053,73.534,73.534,0,0,0,6.282-8.159,10.552,10.552,0,0,0,1.766-6.176,6.485,6.485,0,0,0-.22-1.542,7.074,7.074,0,0,0-1.546-7.057,61.037,61.037,0,0,0,7.938-2.754,131.775,131.775,0,0,0,13.894-6.4c.551-.33,1.212-.771,1.873-1.1a20.353,20.353,0,0,0,1.546,1.652,33.405,33.405,0,0,0,5.29,4.52,58.684,58.684,0,0,0,12.459,6.616,85.919,85.919,0,0,0,12.788,3.969,67.158,67.158,0,0,0,7.938,1.542,7.288,7.288,0,0,0-1.767,3.969c-3.415,6.176,4.523,12.789,8.824,16.1,2.533,1.873,5.29,3.639,8.044,5.291,2.977,1.766,6.286,3.859,9.925,3.088h.33c.44-.11.881-.11,1.432-.22,3.088-.881,4.964-3.749,6.947-6.172,6.282-7.608,12.9-15,19.956-22.052,7.057-6.943,14.33-13.56,21.5-20.4,2.867-2.644,5.956-5.07,8.819-7.718a62.751,62.751,0,0,0,7.828-8.489,7.155,7.155,0,0,0,1.1-1.652c.33-.661.551-1.211.885-1.877.025-.1.073-.239.122-.373.049-.112.091-.226.131-.341.041-.1.055-.136.017-.05a5.173,5.173,0,0,0,.282-1.659l-.1-.537-.012-.013c-.213,1.275-.22,1.213-.022-.176l-.089-.489.1.4c0-.024.007-.045.01-.07C2264.466,1144.919,2264.466,1144.8,2264.466,1144.587Zm-42.476-52.153c.008.039.016.078.024.116C2222.141,1093.5,2222.051,1092.816,2221.99,1092.434Zm-6.366-14.771-.2-.269C2215.493,1077.487,2215.563,1077.577,2215.624,1077.663Zm-3.86-22.6a10.36,10.36,0,0,0,1.322-1.986,16.022,16.022,0,0,1-.552,2.207,5.341,5.341,0,0,0-.33.771c.44-.991.33-.771-.22.661-.22.551-.22.44.11-.11q-.166.331-.33.661c-.11.11-.11.22-.22.331a11.927,11.927,0,0,0-1.212-.661C2210.883,1056.274,2211.321,1055.615,2211.764,1055.066Zm-2.647,15.984c-.129-.108-.229-.188-.316-.255A2.463,2.463,0,0,1,2209.117,1071.05Zm-.775-.554c.073.05.14.094.2.135a2.294,2.294,0,0,0,.346.309c1.435,1.1,2.757,2.423,4.079,3.635.661.664,1.215,1.436,1.766,2.1.2.2.4.407.582.611.185.261.617.857.74,1.041a32.691,32.691,0,0,1,2.758,4.63c.326.574.652,1.146.933,1.763a7.315,7.315,0,0,1,.388.885c.22.551.33,1.1.552,1.656a46.338,46.338,0,0,1,1.258,4.979c0,.047.018.229.063.642.11.551.11,1.211.22,1.762.114,1.436.334,2.868.441,4.3q.5,7.612.664,15.216c.11,3.088.33,6.066.551,9.15a23.938,23.938,0,0,0,.882,5.625c.11.551.22,1.1.33,1.542-1.873,1.766-3.859,3.749-5.621,5.622-5.735,5.956-11.687,11.577-17.423,17.422-4.74,4.85-9.26,9.921-13.78,14.881a31.3,31.3,0,0,0-3.087-.771,62.662,62.662,0,0,1-6.173-1.432c-4.079-1.105-8.048-2.427-12.128-3.418-6.286-1.542-12.788-2.207-18.964-4.19,1.215-.881,2.427-1.766,3.639-2.757,1.766-1.322,3.418-2.644,5.074-4.079,4.851,2.317,10.141,3.528,15.322,4.74q5.128,1.163,10.255,2.648c1.873.551,3.749,1.1,5.732,1.542,1.546.334,3.639.885,5.181.22.444-.22.771-.771.33-1.211-1.1-.991-2.754-1.322-4.189-1.762-1.873-.551-3.749-1.105-5.732-1.546-3.419-.991-6.837-1.873-10.255-2.533-4.961-1.105-10.252-1.766-14.992-3.529a153.72,153.72,0,0,0,29.106-34.617,68.781,68.781,0,0,0,5.952-12.131,58.993,58.993,0,0,0,1.656-5.952,10.69,10.69,0,0,0-.771-7.387,2.992,2.992,0,0,0-2.1-1.542,21.692,21.692,0,0,0-3.088-2.1c-1.982-1.211-4.079-2.314-6.063-3.525a131.757,131.757,0,0,1-11.576-7.607c1.321.881-.11-.22-.441-.441-.44-.33-.881-.664-1.321-1-1-.881-1.877-1.762-2.868-2.644-.991-.991-1.982-1.986-2.977-3.088a22.543,22.543,0,0,1-1.542-1.652c-.22-.224-.44-.555-.661-.775a1.936,1.936,0,0,0-.441-.551,36.936,36.936,0,0,1-2.207-3.528c-.088-.263-.243-.525-.359-.788a2.5,2.5,0,0,0-.082-.313,8.241,8.241,0,0,1-.551-1.762.756.756,0,0,1-.038-.11,1.285,1.285,0,0,1-.053-.247c-.035-.2-.051-.374-.017-.234,0-.065,0-.126,0-.181v-.325c.03-.134.07-.328.11-.45a1.323,1.323,0,0,1,.033-.287,2.316,2.316,0,0,1,.3-.483c.059-.118.243-.394.3-.489a2.762,2.762,0,0,1,.359-.283,6.585,6.585,0,0,1,2.758-1.762,16.606,16.606,0,0,1,2.533-.775c1.436-.22-.881.11.661-.11h1.326a11.512,11.512,0,0,1,2.754,0,52.65,52.65,0,0,0,5.294,2.1c4.629,1.762,9.15,3.859,14,5.732q3.31,1.322,6.616,2.648l3.3,1.322c.277.137.552.233.828.338.246.105.93.4,1.365.582a38.363,38.363,0,0,1,4.534,2.388,26.639,26.639,0,0,1,2.317,1.432A9.244,9.244,0,0,1,2208.342,1070.5Zm-22.154,100.22c-.551.551-1,1.1-1.546,1.652-1.211,1.436-2.533,2.868-3.749,4.3a21.835,21.835,0,0,0-3.748-1.432c-2.094-.551-4.186-1.1-6.393-1.656-4.079-.991-8.158-1.762-12.238-2.754-6.506-1.656-12.678-4.189-19.074-6.286,2.427-1.542,4.63-3.084,6.947-4.74,2.317.991,4.851,1.876,7.278,2.647,3.969,1.1,8.048,1.762,11.907,2.754,4.079,1.105,8.158,2.427,12.128,3.639,2.093.555,4.079,1.105,6.172,1.546A12.884,12.884,0,0,0,2186.188,1170.717Zm-28.178-113.678a2.245,2.245,0,0,1,.173-.43C2158.1,1056.818,2158.045,1056.953,2158.01,1057.039Zm.282-.544a1.306,1.306,0,0,1,.258-.339C2158.5,1056.219,2158.418,1056.329,2158.292,1056.5Zm.549-39.245a20.664,20.664,0,0,0,3.749.881,18.071,18.071,0,0,0,2.534.22c-.327.33-.552.551-.882.881-1.432,1.211-2.753,2.427-4.189,3.638C2159.615,1021,2159.283,1019.123,2158.84,1017.251Zm6.4,25.027a38,38,0,0,0,6.833,2.2,29.224,29.224,0,0,0,5.291.771,14.728,14.728,0,0,0,2.207,0,6.594,6.594,0,0,0-.661,1.546c-1.211-.22-2.427-.441-3.528-.661-.11,0-.11-.11-.22-.11a17.494,17.494,0,0,0-7.057-1.766,17.827,17.827,0,0,0-2.423-.11A14.569,14.569,0,0,0,2165.237,1042.278Zm34.4,10.252c-3.529-1.1-7.057-2.314-10.7-3.308l.22-.22a.409.409,0,0,0,.334.11,24.023,24.023,0,0,1,7.384.441,25.363,25.363,0,0,1,3.858,1.105c.111.11.111.11.221.11C2200.516,1051.317,2200.078,1051.976,2199.635,1052.53Zm-.111,13-.492-.21C2199.2,1065.388,2199.364,1065.453,2199.524,1065.534Zm6.19-31.268c-.008-.015-.012-.028-.021-.044l.005.005C2205.7,1034.246,2205.709,1034.251,2205.715,1034.266Zm-2.662-3.015c.33.441.771.771,1.1,1.211a9.456,9.456,0,0,1,1.066,1.064,2.409,2.409,0,0,0,.46.685,5.725,5.725,0,0,1,.349,1.009c0,.22.106.551.106.881a4.014,4.014,0,0,0,.1.388c0,.052.006.1.011.163a21.247,21.247,0,0,1,.106,2.537,5.434,5.434,0,0,1-.083.7c.038-.577-.137.744-.137.842a5.365,5.365,0,0,1-.22,1.326,28.922,28.922,0,0,0-4.41-.441c-1.873-.114-3.969,0-5.511,1.322-.551.33,0,.991.551.881a19.972,19.972,0,0,1,5.732,0,13.93,13.93,0,0,0,2.978.44c-.22.441-.552,1.322-.22.441a17.368,17.368,0,0,1-2.2,3.969,17.583,17.583,0,0,0-5.294-1.762,23.712,23.712,0,0,0-5.621-.441A54.154,54.154,0,0,0,2203.052,1031.252Zm-16.316-26.351c.331,0,.552-.114.882-.114a4,4,0,0,0,.465-.091l.2-.015c.194,0,.308,0,.375-.006l.065.006c.441.106.882.22,1.216.33-.885-.224.33.22.44.331a9.76,9.76,0,0,1,1.1.661c.44.33.44.44.11.11l.661.661.992.992.075.092c-.059-.051-.034.022.259.459a8.735,8.735,0,0,1,.771,1.326s.661,1.542.33.551a21.493,21.493,0,0,1,.771,2.867c.079.315.157.632.236.987-.024.057.094,1.164.094,1.326a26.919,26.919,0,0,1-.11,2.978c-.031.43-.027.529-.01.49-.107.527-.214.956-.32,1.382-.22,1-.552,1.986-.771,2.868-.22.551-.33.991-.551,1.432-.076.221-.149.44-.223.63-.041.066-.11.183-.217.366a47.759,47.759,0,0,1-2.758,5.181,20.328,20.328,0,0,1-1.765,2.533c-.331.445-.661.885-.992,1.326.551-.661-.661.991-.771,1.1-1.432,1.652-2.758,3.419-4.189,5.071-.771.771-1.436,1.656-2.208,2.427a9,9,0,0,0-2.973-.11,28.786,28.786,0,0,1-5.295-.551,37.563,37.563,0,0,1-8.158-2.757,2.073,2.073,0,0,1-.22-.881c-.661-2.1-1.322-4.3-1.982-6.4a17.091,17.091,0,0,0,3.419-2.313c1.873-1.546,3.749-3.088,5.622-4.74a69.79,69.79,0,0,0,8.378-8.713A47.021,47.021,0,0,0,2186.736,1004.9ZM2156.3,994.1h.334c1.212-.11,2.313-.441,3.525-.661A54.518,54.518,0,0,1,2165.9,992c.661-.11.661-.11.33-.11a7.8,7.8,0,0,0,1.542-.11,28.921,28.921,0,0,1,3.088.11l.221.013c.089.023.228.054.44.1a7.407,7.407,0,0,1,1.436.224c.615.176,1.23.354,1.846.586.131.066.98.441,1.128.515.129.086.24.154.349.22-.358-.212.164.159.422.331.173.171.52.6.679.788.156.3.292.6.427.864-.771-1.542-.11-.11,0,.331.009.026.012.048.02.072-.038-.475.09.225.09.478,0,.078,0,.15,0,.224,0,.037,0,.07,0,.11a.062.062,0,0,1,0-.01,7.478,7.478,0,0,1-.109,1.441c0,.108-.007.256-.013.393a3.258,3.258,0,0,1-.1.377c-.22,1.212-.555,2.317-.886,3.529-.22.44-.44.991-.661,1.542a1.523,1.523,0,0,0-.114.326,3.106,3.106,0,0,1-.326.669,34.291,34.291,0,0,1-3.624,5.925,9.036,9.036,0,0,1-.9,1.018,23.544,23.544,0,0,1-2.207,2.537,18.487,18.487,0,0,1-1.432,1.542,23.853,23.853,0,0,0-3.969,0,15.823,15.823,0,0,1-5.071-.881,93.342,93.342,0,0,1-1.652-12.569,63.676,63.676,0,0,0-.774-8.269C2156.193,994.206,2156.193,994.206,2156.3,994.1Zm20.508-.221c-.149-.1-.268-.17-.362-.228C2176.56,993.718,2176.676,993.788,2176.812,993.874Zm-40.684-5.068-.463.386C2135.821,989.053,2135.977,988.922,2136.128,988.806Zm-7.162,19.069c.11-1.432.22-2.864.44-4.41-.22,1.766.111-.661.221-1.1a18.212,18.212,0,0,1,.44-2.1,27.121,27.121,0,0,1,.991-3.745c.171-.431.343-.927.516-1.437.157-.339.47-1.031.589-1.21a15.325,15.325,0,0,1,1.667-2.742c-.047.085.732-.874.976-1.117.27-.271.542-.539.812-.784.179-.145.7-.573.954-.758a7.085,7.085,0,0,1,1.542-.885c.029-.019.056-.033.084-.05.092-.031.321-.122.466-.17.018-.01.037-.014.055-.021l-.207.025-.173.081c.055-.03.107-.055.16-.08-.195.022-.119.009.045-.022.171-.08.328-.143.45-.2l-.431.2c.128-.024.3-.057.431-.091h.428a7.569,7.569,0,0,1,1.339.109c.088,0,.228.008.358.015a2.844,2.844,0,0,1,.413.1,21.734,21.734,0,0,1,3.859,1l.991.33c-1.322-.44-.22-.11,0,0,.239.119.445.206.654.3-.082-.026-.01.026.228.144a6.531,6.531,0,0,1,.881.441h.114a13.934,13.934,0,0,0-.664,3.528q-.331,3.305-.33,6.613c0,3.088-.221,6.947.881,10.035q.171,4.13.664,8.269a121.141,121.141,0,0,0,2.864,15.546c.664,2.533,1.325,4.96,2.1,7.383a27.012,27.012,0,0,0,1.982,5.956c-.551.33-1.1.771-1.652,1.1-.11,0-.33.11-.44.11a46.025,46.025,0,0,1-5.515,0c-3.415-.11-6.944-.22-10.361,0a1,1,0,0,0-.992.661c-.33-.441-.664-.881-1-1.322-.11-.11-.11-.22-.22-.33v-.11c-1.212-4.74-2.754-9.37-4.079-14a89.384,89.384,0,0,1-1.918-9.208c.215,1.264-.064-.637-.064-1.043a12.006,12.006,0,0,1-.221-1.986c-.11-1.542-.22-2.973-.33-4.519C2128.856,1013.5,2128.856,1010.743,2128.967,1007.875Zm20.4,53.25c-.111,0-.111,0-.221-.11-.1-.019-.173-.037-.241-.054-.49-.2-.9-.4-1.3-.606-.661-.44-1.322-.771-1.982-1.211a4.061,4.061,0,0,0-.51-.457,3.435,3.435,0,0,1-.6-.535,23.738,23.738,0,0,1-3.3-3.308c-.881-1.105-1.545-1.986-2.207-2.868a13.468,13.468,0,0,1-1.1-1.542c3.418-.11,6.836.441,10.251.661a27.127,27.127,0,0,0,2.977.22,11.118,11.118,0,0,0-1.761,3.639A11.675,11.675,0,0,0,2149.364,1061.125Zm-.5-.171c-.247-.065-.272-.1,0,0Zm-30.931-1.153c.052.114-.052-.052-.217-.217Zm6.769,5.707c-.065.025-.9-.342,0,0Zm8.3-.659c.9-.342.071.02,0,0Zm-24.1-41.756c0-2.093.11-4.19.22-6.286.11-1.1.22-2.313.33-3.414-.11,1.322.11-.551.11-.885.111-.551.221-1.1.331-1.762a43.415,43.415,0,0,1,1.877-6.506c.11-.22.22-.551.33-.771.33-.551.551-1.1.881-1.652a11.157,11.157,0,0,1,.882-1.546c.083-.083.727-.976.759-1.038a22.752,22.752,0,0,1,1.889-2.046c.378-.378.756-.681,1.135-1.038-.161.2,1.082-.633,1.178-.728a6.667,6.667,0,0,1,1.546-.771,53.238,53.238,0,0,0-2.317,15.106,100.37,100.37,0,0,0,1.211,18.189,91.709,91.709,0,0,0,2.648,10.806c.44,1.542.991,2.974,1.542,4.41-.882-.11-1.983-.11-2.754-.22a25.431,25.431,0,0,1-6.4-1.322c-.882-.334-1.322,1.1-.33,1.542a27.889,27.889,0,0,0,5.956,1.542c1.211.33,3.083.995,4.519.771.11.224.22.331.33.555.992,2.423,2.2,5.07,4.079,6.833a3.021,3.021,0,0,1,.539.641c-.51-.088-1.013-.1-1.423-.2-1.542-.33-3.084-.551-4.519-.881a46.372,46.372,0,0,1-8.71-2.537c-1.1-.441-1.873,1.436-.771,1.877a52.748,52.748,0,0,0,8.269,2.868c1.432.33,2.977.661,4.519.881,1.212.22,2.537.771,3.749.22a23.455,23.455,0,0,0,2.317,3.969c-1.766-.22-3.638-.331-5.4-.661-3.635-.551-7.384-1-11.022-1.436-.33-.551-.664-1.1-.992-1.652a22.152,22.152,0,0,1-1.215-2.317,5.893,5.893,0,0,1-.551-1.212c-.111-.22-.661-1.541-.221-.33a46.6,46.6,0,0,1-1.873-5.511c-.44-1.766-.885-3.528-1.215-5.295-.22-.881-.33-1.762-.551-2.644a5.561,5.561,0,0,0-.221-1.326,2.427,2.427,0,0,0-.11-.881A108.179,108.179,0,0,1,2108.9,1023.094Zm.659,53.361c-1.1-.22-2.313-.441-3.418-.661.22-.11.33-.33.551-.441A23.036,23.036,0,0,0,2109.561,1076.455Zm-5.29-18.968a39.577,39.577,0,0,0,3.859,6.616c.11.22.11.331.22.441-.22-.11-.44-.331-.661-.441-.294-.22-.387-.291-.289-.25a2.788,2.788,0,0,1-.486-.411c-.771-.661-1.432-1.326-2.093-1.986a7.11,7.11,0,0,1-.881-.991c-.585-.641-.4-.388-.238-.188l-.207-.253c-.547-.881-1.1-1.652-1.542-2.537-.11-.22-.22-.331-.22-.441a5.519,5.519,0,0,1,1.321.22C2103.5,1057.376,2103.939,1057.376,2104.271,1057.487Zm-1-2.421c-.881-.11-1.762-.33-2.643-.44a50.363,50.363,0,0,1-1.987-5.735l.33.11a17.859,17.859,0,0,0,2.317.551A47.505,47.505,0,0,0,2103.275,1055.066Zm-2.642-8.269a.831.831,0,0,1-.44-.11,21.524,21.524,0,0,1-2.207-.551c-.441-1.436-.771-2.978-1.212-4.52-.11-.555-.22-1.105-.33-1.656a8.469,8.469,0,0,0,2.867-.11C2099.641,1042.167,2100.079,1044.477,2100.633,1046.8Zm-6.618-27.9c.019-.067.034-.129.052-.194C2094.025,1019,2093.954,1019.5,2094.015,1018.9Zm-.111,2.1a10.1,10.1,0,0,1,.11-1.766c.036-.307.056-.485.068-.585.176-.662.288-1.253.483-1.843q.336-.991.665-1.982a4.83,4.83,0,0,1,.311-.773,1.964,1.964,0,0,0,.129-.438c.771-1.436,1.542-2.868,2.424-4.189.11-.22.881-1.215.22-.22a5.95,5.95,0,0,1,.661-.885c.334-.33.555-.551.886-.881a76.717,76.717,0,0,0-1.436,12.238,119.037,119.037,0,0,0,.664,18.744,28.159,28.159,0,0,0-3.2-.774,69.686,69.686,0,0,1-1.877-9.591A49.885,49.885,0,0,1,2093.9,1021Zm-.549,42.224c.33.551.661,1.1.992,1.542a15.535,15.535,0,0,0,2.317,2.978h-.1c-.146-.06-1-.22-1-.22-.551-.22-.995-.441-1.877-.771-.661-.334-1.211-.775-1.873-1.105a6.144,6.144,0,0,1-.881-.661c-.995-.771.881.661-.114-.11a18.859,18.859,0,0,1-2.641-2.583c-.03-.051-.124-.2-.222-.4,1.1.334,2.2.664,3.308.885A11.526,11.526,0,0,1,2093.355,1063.224Zm-1.434-2.647a32.133,32.133,0,0,1-5.625-1.322c-.144-.216-.57-1.138-.693-1.38-.206-.528-.452-1.044-.629-1.487-.22-.771-.33-1.432-.551-2.207a17.579,17.579,0,0,0,3.969,1.105c.551.11.991.22,1.542.331A46.875,46.875,0,0,0,2091.921,1060.577Zm-3.085-8.822a11.354,11.354,0,0,0,.44,1.542h-.22a23.465,23.465,0,0,1-4.96-1.432l-.11-.11c-.093-.275-.183-.924-.085-.446a6.542,6.542,0,0,1-.026-.656,13.59,13.59,0,0,1-.22-2.207v-4.41c.11-1.542.22-2.978.331-4.52,0-.091.147-.917.141-.67a5.071,5.071,0,0,0,.079-.762,15.608,15.608,0,0,1,.44-2.207c0-.331.11-.551.11-.771.22.991.44,2.093.661,3.088C2086.41,1042.716,2087.513,1047.235,2088.836,1051.755Zm7.6,138.584q-2.65,2.809-5.291,5.622a17.5,17.5,0,0,0-4.74-1.1c-2.427-.33-4.854-.441-7.278-.664-4.854-.331-10.035-.881-14-3.855-.771-.664-1.873.771-1.1,1.432,3.858,3.088,8.489,4.3,13.338,4.96,2.537.33,5.185.551,7.718.881,1.212.11,2.647.44,3.969.555a36.7,36.7,0,0,1-4.3,3.966,4.68,4.68,0,0,1-.771.555c-.441.33-.992.661-1.546.991a9.377,9.377,0,0,0-2.754,2.754.847.847,0,0,1-.44-.441,59.581,59.581,0,0,0-6.836-4.85c-1.873-1.211-3.749-2.533-5.511-3.859-2.207-1.652-3.088-2.313-5.181-3.969-7.5-6.062-14.554-12.569-21.612-18.961-4.3-3.859-8.489-7.718-12.788-11.577-3.858-3.419-7.607-6.837-11.136-10.586-.661-.771-1.432-1.542-2.093-2.423-.33-.441-.661-.771-.991-1.216,1.1,1.326,0-.11-.22-.33-.551-.771-1.105-1.652-1.546-2.423a11.664,11.664,0,0,1-.661-1.216.482.482,0,0,1-.11-.33c3.748-1.873,6.286-5.732,9.04-8.819a39.227,39.227,0,0,0,2.758-3.308c.441-.551.881-1.211,1.322-1.762a8.254,8.254,0,0,1,.7-.862c.393-.51.787-.982,1.178-1.455a31.562,31.562,0,0,1,3.195-3.415,4.691,4.691,0,0,0,.775-.664c-1.326,1.105-.22.114.11-.11a4.878,4.878,0,0,0,.771-.441,3.924,3.924,0,0,0,.991-.44c.44.881.882,1.766,1.432,2.647,1.215,1.873,2.537,3.749,3.859,5.511,2.757,3.969,5.845,7.607,9.039,11.356a235.253,235.253,0,0,0,19.3,19.956,275.2,275.2,0,0,0,21.168,17.859,67.537,67.537,0,0,0,8.048,5.291c.661.444,1.435.885,2.1,1.326.275.137,1.149.789,1.421.992.187.156.375.315.562.44C2097.653,1189.015,2097.1,1189.675,2096.44,1190.339Zm.881-2.753c.134.09.269.2.4.309Zm.111-13.674c-.881-.555-1.762-1.105-2.537-1.546-3.415-2.533-5.842-4.519-9.591-7.607-3.638-3.084-7.277-6.282-10.805-9.48-.551-.551-1.212-1.1-1.762-1.652a111.349,111.349,0,0,0,12.9,8.159c3.529,1.982,7.278,3.528,10.916,5.181,1.762.881,3.529,1.762,5.181,2.647.44.22.771.441,1.215.661A22.7,22.7,0,0,0,2097.432,1173.912Zm20.287-10.362c-3.418,1.652-6.948,3.308-10.472,4.74a2.447,2.447,0,0,0-.555.331c-2.423-1.873-5.4-2.974-8.048-4.19-3.635-1.652-7.494-3.194-11.133-4.85-3.859-1.873-7.5-4.19-11.136-6.282-3.419-1.877-6.837-3.749-10.141-5.845-2.207-2.2-4.414-4.41-6.507-6.613,4.851,2.533,9.921,4.74,14.885,7.054,6.062,2.757,12.018,5.515,18.079,8.048,2.977,1.326,5.952,2.537,9.04,3.859a35.994,35.994,0,0,0,9.594,2.978c.992.11,1.1-1.322.441-1.877a39.738,39.738,0,0,0-8.049-4.079c-3.088-1.211-6.176-2.533-9.263-3.859-6.062-2.644-12.124-5.181-18.189-7.934-5.4-2.317-10.807-4.63-16.207-7.057-1.877-.881-3.859-1.766-5.732-2.648-2.978-3.2-5.845-6.392-8.93-9.481q-1-.991-1.987-1.986a.383.383,0,0,1,.11-.22c4.961,3.749,10.585,6.4,16.317,8.823q5.128,2.148,10.255,4.3c3.746,1.652,7.274,3.525,10.913,5.181,8.048,3.638,16.317,6.612,24.7,9.48q6.449,2.154,12.9,4.3c2.1.771,4.189,1.436,6.286,2.1.551.22,1.212.44,1.873.661C2123.788,1160.239,2120.809,1162.005,2117.719,1163.55Zm12.677-7.277a30.592,30.592,0,0,0-4.079-1.542c-2.093-.661-4.189-1.322-6.172-2.1-4.189-1.322-8.269-2.644-12.459-4.079-8.378-2.864-16.871-5.841-25.03-9.37-3.525-1.542-7.054-3.308-10.581-4.85q-5.128-2.148-10.256-3.969c-6.062-2.317-12.238-4.74-17.638-8.159a16.917,16.917,0,0,0,.44-4.74c.11-2.648.11-5.291.22-8.048.11-5.07.33-10.255.661-15.436.334-4.519.334-9.04.334-13.559.11-4.52.441-9.04.882-13.45.11-2.1.33-4.3.551-6.4,0-.551.11-1.1.11-1.542.22-1.766-.11,1.1.11-.661.22-1.215.33-2.427.661-3.638a40.426,40.426,0,0,1,1.545-6.066c.22-.991.661-1.982.992-2.974.175-.44.282-.811.429-1.22-.01.083.583-1.249.672-1.427a53.471,53.471,0,0,1,6.286-10.145,4.239,4.239,0,0,1,.483-.717c.039-.03.542-.638.619-.715.551-.771,1.212-1.542,1.762-2.207q2.154-2.478,4.3-4.63c1.1-.991,2.1-1.982,3.2-2.973.551-.441.991-.776,1.542-1.216a4.681,4.681,0,0,1,.775-.661,4.659,4.659,0,0,0,.7-.5,46.063,46.063,0,0,1,7.235-4.46,11.08,11.08,0,0,1,1.652-.771c.44-.22.881-.33,1.321-.551,1.326-.441,2.648-.885,4.08-1.215a33.807,33.807,0,0,0-1.542,5.735,1.935,1.935,0,0,0-.441.551,9.751,9.751,0,0,0-1.545-.33c-1.762-.551-3.525-.991-5.291-1.546-1.212-.44-1.982,1.436-.881,2.1a26.294,26.294,0,0,0,4.85,1.982,1.552,1.552,0,0,1,.771.224c-.661.992-1.211,1.982-1.762,2.974a11.977,11.977,0,0,0-.881,2.1c-1.215-.33-2.317-.551-3.419-.885a65.039,65.039,0,0,0-7.828-1.432c-1.542-.11-1.542,2.427,0,2.537a42.488,42.488,0,0,1,7.608,1.652c.771.22,1.652.551,2.534.771-.441,1.546-.992,3.089-1.322,4.52a20.933,20.933,0,0,0-.992,3.749c-1.545-.441-3.088-.771-4.519-1.211a83.191,83.191,0,0,0-8.929-2.427,1.205,1.205,0,0,0-.665,2.317c2.978.771,5.845,1.983,8.824,2.978a39.484,39.484,0,0,0,4.629,1.432c-.33,2.207-.551,4.3-.664,6.506-.44-.22-.992-.44-1.432-.661a46.225,46.225,0,0,0-5.622-1.546c-3.638-.991-7.388-1.652-11.136-2.313a.962.962,0,0,0-.441,1.873c3.418,1.1,6.837,2.1,10.365,2.978,1.762.551,3.415,1.1,5.181,1.652a25.492,25.492,0,0,0,3.084,1.1,24.046,24.046,0,0,0,.22,2.757c.775,6.837,2.977,13.119,7.608,18.194a29.733,29.733,0,0,0,8.269,6.062,17.406,17.406,0,0,0,12.9.771c4.193,1.1,8.379,1.986,12.573,2.978,4.079.881,8.158,1.873,12.124,2.757,2.1.441,4.079.991,6.176,1.322,1.762.44,4.189,1.1,5.956.661.44-.11.661-.771.326-.991-1.322-1.215-3.3-1.546-4.96-2.1a60.233,60.233,0,0,0-6.063-1.432c-4.079-.991-8.158-1.766-12.238-2.648-1.986-.44-3.859-.771-5.841-1.211a5.513,5.513,0,0,0,3.195-.771,3.183,3.183,0,0,0,1.656-3.308,16.324,16.324,0,0,0,1.432.881,19.787,19.787,0,0,0,13.669,2.647,98.165,98.165,0,0,0,9.815,2.423c2.864.555,5.732,1.105,8.6,1.766,2.753.551,5.622,1.432,8.378,1.873.661,0,.991-.661.44-.991-4.519-2.978-10.585-3.639-15.766-4.52-2.643-.441-5.29-.881-7.828-1.432.992-.44,1.986-.885,2.868-1.326,2.2-1.211,4.079-2.644,4.74-4.63,3.419,2.1,8.269,3.859,11.687,1.546a60.15,60.15,0,0,0,7.828,8.048,92.435,92.435,0,0,0,10.361,7.938c-.991-.444-1.873-.775-2.753-1.215-1.546-.771-2.758,1.436-1.326,2.207a34.1,34.1,0,0,0,3.529,1.432,3.652,3.652,0,0,0,3.2.22.631.631,0,0,0,.221-.771q3.139,1.817,6.286,3.639a30.8,30.8,0,0,0,4.629,2.533c-.11.22-.11.445-.22.665a24.328,24.328,0,0,1-2.427,5.511,74.491,74.491,0,0,1-7.167,11.246l-.991,1.322c-.992,1.322.661-.881-.441.551-.44.661-.991,1.322-1.435,1.986-1.1,1.322.664-.885-.44.44-1.322,1.762-2.754,3.529-4.186,5.291-2.757,3.418-5.735,6.836-8.713,10.031a127.785,127.785,0,0,1-9.7,9.264c-1.542,1.432-3.2,2.754-4.85,4.189-.771.661-1.656,1.322-2.538,1.982,1.106-.881-.33.22-.44.331a16.344,16.344,0,0,1-1.652,1.215Q2135.86,1152.8,2130.4,1156.273Zm41.016,22.053c-1.212-.11-2.207-.22-2.868-.33-1.211-.22-2.423-.441-3.639-.775-3.965-.881-8.044-1.652-12.124-2.643a75.334,75.334,0,0,1-11.246-3.749c-1.986-.881-3.749-1.877-5.511-2.868a3.96,3.96,0,0,0-.886-.551,25.1,25.1,0,0,1,2.207-1.432c6.614,2.313,13.01,5.511,19.846,7.383q6.118,1.658,12.238,2.978c1.873.441,3.855.991,5.732,1.546.881.22,1.651.44,2.423.661C2175.489,1178.326,2173.506,1178.432,2171.412,1178.326Zm24.146,23.925c-.661.881-1.432,1.652-2.207,2.533-.552-.33-1.212-.551-1.873-.881-2.537-1.322-4.961-2.757-7.388-4.3a1.933,1.933,0,0,0-.551-.441,34.7,34.7,0,0,0,4.74.551l6.948.33c.661.11,1.321.11,1.982.22C2196.656,1200.923,2196.107,1201.582,2195.559,1202.251Zm53.251-52.7c-3.309,2.974-6.727,5.952-10.035,8.819-2.534,2.2-4.851,4.52-7.274,6.833-3.638,3.308-7.278,6.727-10.805,10.035l-.221.22c-2.2-.991-4.96-.771-7.277-.881a87.8,87.8,0,0,1-9.26-1.216,1.084,1.084,0,1,0-.551,2.1,55.842,55.842,0,0,0,8.6,1.322,24.238,24.238,0,0,0,6.948.22c-2.318,2.207-4.52,4.41-6.727,6.616-1.321-.771-3.2-.551-4.74-.661-1.986-.22-3.969-.771-5.956-1.1-3.529-.665-7.054-.885-10.471.661-1.216.551-.331,2.643.991,2.2,3.529-1.432,7.057-.551,10.7.11,1.873.44,5.071,1.326,7.494.885-1.652,1.762-3.3,3.414-4.85,5.181a30.45,30.45,0,0,0-4.41-.661c-2.424-.334-4.96-.774-7.384-1a49.129,49.129,0,0,0-6.948-.44c-1.211.11-2.978.33-3.749,1.322-.661.885.441,2.1,1.212,1.326.661-.771,2.867-.441,3.749-.441,2.1.11,4.3.551,6.506.881l6.613.991a16.811,16.811,0,0,0,2.317.33c-1.1,1.215-2.1,2.427-3.089,3.529a19.53,19.53,0,0,1-1.432,1.656c-.555-.114-1.215-.22-1.766-.334-2.314-.22-4.52-.33-6.833-.33-3.859-.11-8.048-.22-11.467-2.093l-.33-.331a1.518,1.518,0,0,0-.44-.33,9.534,9.534,0,0,0,1.1-1c1.432-1.542,2.868-3.194,4.3-4.74,2.867-3.3,5.621-6.5,8.489-9.7,5.845-6.507,11.8-12.9,17.749-19.405,5.515-5.952,11.356-11.687,16.978-17.749,2.537-2.757,5.074-5.621,7.827-8.269.665-.661,1.216-1.322,1.766-1.986l.992-.991a2.505,2.505,0,0,1,.278.175c-.117,0,1.374,1.066,1.577,1.237l.021.021s.006.008,0,0l.033.025a3.781,3.781,0,0,0,.521.416,65.207,65.207,0,0,1,4.74,4.85c2.644,2.867,5.071,5.841,8.158,8.158C2251.23,1147.229,2250.017,1148.442,2248.809,1149.549Z" transform="translate(-1971.102 -974.517)" fill="#49bfb3"/><path d="M2432.476,1009.927c1.1,1.326,2.423,3.088,3.749,4.854a93.287,93.287,0,0,0,7.6,8.489c1.655,1.542,4.744,2.314,6.616.881,5.622-4.3,11.026-8.929,16.427-13.45,1.212-.995,2.537-2.1,3.749-3.088.33-.22.551-.441.882-.661,0-.11,1.436-1.1.44-.444.775-.551,1.436-.991,2.1-1.542,1.431-.991,2.757-1.982,4.189-2.867a2.4,2.4,0,0,1,.881-.551,18.291,18.291,0,0,0,5.845-2.974c2.754-1.766,6.5-3.859,7.6-7.167,1-3.418-1.982-6.176-5.07-6.066a3.367,3.367,0,0,0-1.1-1.432c-3.859-3.308-6.506-8.269-11.357-10.476a10.615,10.615,0,0,0-10.251.555,18.587,18.587,0,0,0-3.639,2.973,13.079,13.079,0,0,1-1.215,1.106l-.387.387a1.715,1.715,0,0,0-.274.164c-5.621,3.749-12.017,6.062-17.2,10.471a79.425,79.425,0,0,0-6.175,5.956c-1.763,1.762-3.855,3.084-5.071,5.291a3.47,3.47,0,0,0-1.542,3.969A21.6,21.6,0,0,0,2432.476,1009.927Zm38.757-26.6c-.061-.049-.061-.053,0,0Zm-.614-.413-.219-.084A1.408,1.408,0,0,1,2470.618,982.916Zm-.639-.178c-.045-.005-.04-.006,0,0Zm-29.788,20.8c2.537-1.436,4.634-3.528,6.947-5.4.44-.33.886-.771,1.436-1.212.11-.11,1.542-1.322.771-.661a39.406,39.406,0,0,1,3.529-2.317c2.864-1.652,5.841-2.974,8.709-4.52a28.749,28.749,0,0,0,6.944-5.07,11.662,11.662,0,0,1,1.326-1.1c.094-.094.163-.163.216-.217a2.8,2.8,0,0,1,.284-.193,5.234,5.234,0,0,1,.6.3,1.859,1.859,0,0,0,.419.313c.039.037.082.078.132.128a32.129,32.129,0,0,1,2.758,2.757c.991,1.1,1.873,2.2,2.863,3.194a13.66,13.66,0,0,0-4.3,2.317c-1.432.881-2.863,1.873-4.185,2.867-3.089,2.313-6.066,4.74-9.043,7.163-4.019,3.363-7.855,6.85-11.737,10.232-1.5-1.508-2.947-3.074-4.36-4.607-1.211-1.326-2.423-2.648-3.635-3.748C2439.969,1003.646,2440.08,1003.646,2440.191,1003.536Z" transform="translate(-2184.315 -972.377)" fill="#49bfb3"/><path d="M2578.29,1210.24c.01.067.022.142.034.219A.934.934,0,0,0,2578.29,1210.24Z" transform="translate(-2258.424 -1090.532)" fill="#49bfb3"/><path d="M2338.32,1028.541c.111,0,.332-.111,0,0Z" transform="translate(-2139.223 -1000.251)" fill="#49bfb3"/><path d="M2275.386,997.88l-.045.022.012,0,.051-.024Z" transform="translate(-2107.939 -985.043)" fill="#49bfb3"/><path d="M2390.448,1285.07a17.252,17.252,0,0,0-4.189-.44,20.2,20.2,0,0,1-4.41-1.105c-1.322-.441-2.314,1.877-.992,2.537a15.363,15.363,0,0,0,4.52,1.322,13.18,13.18,0,0,0,5.071.33C2391.887,1287.385,2391.555,1285.513,2390.448,1285.07Z" transform="translate(-2160.042 -1126.907)" fill="#49bfb3"/><path d="M2059.221,1319.464a.767.767,0,0,0,.22-1.1c-1.211-1.212-3.2-1.105-4.74-1.436a51.022,51.022,0,0,1-5.622-1.211c-1.215-.44-1.656,1.436-.554,1.877a32.7,32.7,0,0,0,5.625,1.542C2055.693,1319.464,2057.676,1320.129,2059.221,1319.464Z" transform="translate(-1994.959 -1142.892)" fill="#49bfb3"/><path d="M2276.334,997.7a1.439,1.439,0,0,0-.562.089l.7-.088Z" transform="translate(-2108.153 -984.955)" fill="#49bfb3"/><path d="M2073.432,1333.017c1.432.551,3.084,1.982,4.52,1.982.44,0,.991-.441.881-.881-.22-1.762-2.207-2.754-3.639-3.419a30.772,30.772,0,0,0-6.172-1.873,55.577,55.577,0,0,0-12.792-1.432c-1.432-.11-1.322,1.982,0,2.093a97.986,97.986,0,0,1,11.246,1.656A28.705,28.705,0,0,1,2073.432,1333.017Z" transform="translate(-1998.586 -1148.724)" fill="#49bfb3"/><path d="M2323.1,1039.525h4.08a5.905,5.905,0,0,0,3.417-.331.722.722,0,0,0,0-1.215c-.991-.661-2.207-.441-3.417-.441h-4.08A.993.993,0,0,0,2323.1,1039.525Z" transform="translate(-2131.17 -1004.727)" fill="#49bfb3"/><path d="M2093.616,1351.1c2.313.555,5.622,1.546,7.828.441.44-.22.661-1.1.221-1.432-1.877-1.432-4.96-1.322-7.277-1.762-2.868-.551-5.622-1.215-8.49-1.986-5.51-1.211-10.806-2.644-16.427-3.2-1.1-.106-1.322,1.767-.22,1.986,5.511.991,11.026,2.648,16.427,4.079A69.139,69.139,0,0,0,2093.616,1351.1Z" transform="translate(-2005.208 -1156.557)" fill="#49bfb3"/><path d="M2113.868,1371.477c3.088.551,7.278,1.986,10.366.991.55-.11.55-.771.11-1.1a12.394,12.394,0,0,0-4.741-1.762c-1.877-.445-3.749-.665-5.514-1.105-3.635-.771-7.273-1.432-10.913-2.2-7.278-1.326-14.444-2.537-21.718-3.418-.885-.11-1.1,1.432-.22,1.652,7.273,1.326,14.55,3.088,21.718,4.63Q2108.415,1370.326,2113.868,1371.477Z" transform="translate(-2011.242 -1166.349)" fill="#49bfb3"/><path d="M2135.653,1388.108c-3.308-.661-6.726-1-10.034-1.436-7.494-.991-14.552-4.079-22.158-4.74-.771-.11-.992,1.326-.11,1.436,7.167.991,13.783,4.63,20.946,5.841,3.2.551,6.4.881,9.594,1.432,3.084.551,6.172,1.766,9.26,1.876a.754.754,0,0,0,.55-1.326C2141.717,1389.1,2138.411,1388.551,2135.653,1388.108Z" transform="translate(-2022.222 -1175.814)" fill="#49bfb3"/><path d="M2225.3,1092.738a9,9,0,0,0,4.519.22,1.188,1.188,0,0,0,0-2.2c-1.212-.44-2.537-.22-3.749-.44C2224.412,1089.875,2223.753,1092.411,2225.3,1092.738Z" transform="translate(-2082.647 -1030.936)" fill="#49bfb3"/><path d="M2189.987,1050.5c-.048.073-.09.145-.129.218C2189.735,1051.043,2189.625,1051.3,2189.987,1050.5Z" transform="translate(-2065.418 -1011.183)" fill="#49bfb3"/><path d="M2274.681,1088.733a1.05,1.05,0,0,0,0,2.1,42.377,42.377,0,0,0,5.292,0,.881.881,0,0,0,.995-.771.5.5,0,0,0,0-.551.881.881,0,0,0-.995-.775A42.191,42.191,0,0,0,2274.681,1088.733Z" transform="translate(-2107.119 -1030.126)" fill="#49bfb3"/><path d="M2166.926,1125.41c-.037-.206-.065-.348-.085-.446A1.952,1.952,0,0,0,2166.926,1125.41Z" transform="translate(-2054.043 -1048.172)" fill="#49bfb3"/><path d="M2213.53,1149.89a1.3,1.3,0,0,0,.289.14C2213.676,1149.96,2213.58,1149.91,2213.53,1149.89Z" transform="translate(-2077.236 -1060.554)" fill="#49bfb3"/><path d="M2270.714,1076.472h3.308c.881,0,2.533-.11,2.533-1.322s-1.322-1.321-2.207-1.432c-1.212,0-2.423.111-3.635.111A1.324,1.324,0,0,0,2270.714,1076.472Z" transform="translate(-2105.024 -1022.717)" fill="#49bfb3"/><path d="M2167.26,1100.21a2.4,2.4,0,0,0-.031.34C2167.25,1100.366,2167.255,1100.26,2167.26,1100.21Z" transform="translate(-2054.236 -1035.876)" fill="#49bfb3"/><path d="M2266.207,1102.092a21.529,21.529,0,0,0,7.388,2.427,26.089,26.089,0,0,0,8.269.11,1.067,1.067,0,0,0,.881-.771v-.664a1.067,1.067,0,0,0-.881-.771,35.481,35.481,0,0,0-6.837-.22,18.842,18.842,0,0,1-7.828-1.652C2266.1,1100,2265.1,1101.539,2266.207,1102.092Z" transform="translate(-2103.164 -1035.987)" fill="#49bfb3"/><path d="M2048.089,1280.34c-.159.207-.319.419-.478.641C2047.938,1280.556,2048.068,1280.375,2048.089,1280.34Z" transform="translate(-1994.818 -1125.353)" fill="#49bfb3"/><path d="M2217.591,1251.149a63.136,63.136,0,0,1,11.8,3.525c3.969,1.436,7.938,2.757,12.017,4.079,4.41,1.436,8.819,2.978,13.229,4.3a68.8,68.8,0,0,0,6.837,1.656c2.2.44,4.85.991,7.056.44a1.089,1.089,0,0,0,.327-1.986c-1.983-.991-4.407-1.322-6.5-1.873-2.2-.551-4.519-1.1-6.726-1.762-4.52-1.216-8.82-2.757-13.34-4.079-3.969-1.326-8.048-2.537-12.017-3.859a34.07,34.07,0,0,0-12.458-2.207C2216.821,1249.382,2216.489,1251.033,2217.591,1251.149Z" transform="translate(-2078.911 -1109.961)" fill="#49bfb3"/><path d="M2099.522,1145.887c1.211.551,2.423,1.1,3.634,1.542a16.975,16.975,0,0,0,5.515,1.762,1.144,1.144,0,0,0,.55-2.093,44.55,44.55,0,0,0-4.959-1.762,41.147,41.147,0,0,0-3.969-1.326C2099.3,1143.794,2098.526,1145.339,2099.522,1145.887Z" transform="translate(-2020.374 -1057.623)" fill="#49bfb3"/><path d="M2170.192,1261.085c10.365,5.181,21.387,8.6,32.413,12.128,5.511,1.762,11.136,2.974,16.757,4.3a59.056,59.056,0,0,1,7.828,2.533c2.427.771,5.181,1.656,7.608.881a1.19,1.19,0,0,0,0-2.313c-2.317-.881-4.85-1.212-7.167-1.986a44.054,44.054,0,0,0-7.387-2.314c-5.621-1.432-11.243-2.537-16.758-4.189-10.912-3.308-22.049-6.176-32.744-10.255C2169.971,1259.54,2169.533,1260.748,2170.192,1261.085Z" transform="translate(-2055.548 -1115.156)" fill="#49bfb3"/><path d="M2101.354,1164.713c.551-1.652-2.977-2.093-4.079-2.317a.926.926,0,0,0-.555,1.766c.995.33,1.877.551,2.758.881C2100.03,1165.261,2101.127,1165.593,2101.354,1164.713Z" transform="translate(-2018.899 -1066.745)" fill="#49bfb3"/><path d="M2101.717,1125.139a22.281,22.281,0,0,0,7.167,3.749c2.753.881,5.842,1.982,8.819,1.762a.585.585,0,0,0,.22-1.1c-2.1-1.652-4.85-1.873-7.387-2.537a40.5,40.5,0,0,1-7.938-2.974C2101.933,1123.709,2101.053,1124.7,2101.717,1125.139Z" transform="translate(-2021.577 -1047.679)" fill="#49bfb3"/><path d="M2402.978,1268.332a4.8,4.8,0,0,1-3.2-.771c-1.322-.991-2.643,1.215-1.322,2.207a4.334,4.334,0,0,0,5.071.551A1.092,1.092,0,0,0,2402.978,1268.332Z" transform="translate(-2168.823 -1118.881)" fill="#49bfb3"/><path d="M2409.308,1253.131c.771-.111,1.873-.111,2.424-.661a1.011,1.011,0,0,0,0-1.326c-.552-.661-1.652-.551-2.424-.661a1.379,1.379,0,1,0,0,2.647Z" transform="translate(-2173.608 -1110.514)" fill="#49bfb3"/><path d="M2186.024,1283.258a57.513,57.513,0,0,1-10.473-2.427c-3.417-1.212-6.836-2.754-10.255-4.079-7.828-2.864-15.653-5.731-23.591-8.489-6.836-2.423-13.672-4.63-20.506-6.947a115.891,115.891,0,0,1-19.736-8.485c-.44-.334-.991.33-.55.771,5.18,4.63,11.463,7.608,17.969,10.141,7.056,2.757,14.224,5.07,21.388,7.718,7.938,2.978,16.1,5.732,24.035,8.819,3.638,1.322,7.167,2.978,10.805,4.3,3.529,1.212,7.274,2.207,10.913.991C2187.016,1285.241,2187.237,1283.475,2186.024,1283.258Z" transform="translate(-2021.215 -1111.643)" fill="#49bfb3"/><path d="M2258.31,1236.715c3.419.331,6.948,2.093,10.145,3.308a49.573,49.573,0,0,0,10.361,3.415c3.2.665,6.507,1,9.811,1.656a34.777,34.777,0,0,1,4.635.991c1.542.44,2.863,1.1,4.41.991a1.126,1.126,0,0,0,.991-1.762c-1.431-2.537-5.4-3.088-8.158-3.639-3.418-.661-6.836-.991-10.255-1.652a65.751,65.751,0,0,1-10.912-3.308,37.906,37.906,0,0,0-11.027-2.427A1.215,1.215,0,0,0,2258.31,1236.715Z" transform="translate(-2098.906 -1102.478)" fill="#49bfb3"/><path d="M2291.3,1220.575c4.521,1.1,9.04,2.533,13.56,3.969,2.207.661,4.41,1.432,6.727,2.2,1.982.661,3.858,1.326,6.062.885a.58.58,0,0,0,.22-1c-1.432-1.762-3.415-2.313-5.511-2.864-2.2-.775-4.519-1.436-6.723-2.1-4.523-1.322-9.153-2.317-13.783-3.2A1.084,1.084,0,0,0,2291.3,1220.575Z" transform="translate(-2115.465 -1094.606)" fill="#49bfb3"/><path d="M2316.533,1206.773c3.307.771,6.4,2.1,9.7,3.2,1.651.551,3.3.991,4.96,1.432,1.322.331,3.084.881,4.3,0a.942.942,0,0,0,.33-1.322c-.881-1.211-2.317-1.432-3.748-1.656-1.762-.441-3.418-.881-5.071-1.322-3.308-.771-6.616-1.652-10.035-2.2A.962.962,0,1,0,2316.533,1206.773Z" transform="translate(-2128.02 -1087.86)" fill="#49bfb3"/><path d="M2353.562,1015.627a2.272,2.272,0,0,0-.09-.7c.011.144.038.394.09.8Z" transform="translate(-2146.75 -993.512)" fill="#49bfb3"/><path d="M2358.5,1083.109c2.318-.22,7.167.22,8.27-2.314.11-.22-.11-.555-.331-.775-1.1-.551-2.2-.11-3.414.111-1.546.22-3.2.445-4.745.664C2356.965,1081.015,2357.3,1083.22,2358.5,1083.109Z" transform="translate(-2148.718 -1025.715)" fill="#49bfb3"/><path d="M2372.308,1070.171c1.322,0,3.2.111,3.969-1.1a.61.61,0,0,0-.33-.882,10.008,10.008,0,0,0-3.638-.22C2370.874,1067.967,2370.874,1070.282,2372.308,1070.171Z" transform="translate(-2155.572 -1019.833)" fill="#49bfb3"/><path d="M2337.566,1030.53a1.989,1.989,0,0,0,.992-.444c.44-.33.881-.771.661-1.432a.973.973,0,0,0-1.432-.44c-.11,0-.33.11-.11,0a.342.342,0,0,0-.22.11h-.22c-.551-.11-1.1.551-1.1,1.1a1,1,0,0,0,.331.775A1.054,1.054,0,0,0,2337.566,1030.53Z" transform="translate(-2138.137 -1000.036)" fill="#49bfb3"/><path d="M2335.011,1092.681a29.408,29.408,0,0,0,7.387,1.986c1.876.22,5.405,1.1,6.727-.664a.7.7,0,0,0,0-.661c-1.1-1.542-4.08-1.211-5.735-1.322a30.22,30.22,0,0,1-7.714-1.762C2334.02,1089.6,2333.466,1092.132,2335.011,1092.681Z" transform="translate(-2137.127 -1030.878)" fill="#49bfb3"/></svg>