<svg id="revenue" xmlns="http://www.w3.org/2000/svg" width="188.199" height="137.952" viewBox="0 0 188.199 137.952">
  <path id="Path_336" data-name="Path 336" d="M706.417,1028.12v-14.264c0,5.523-15.369,10.032-34.327,10.032s-34.327-4.509-34.327-10.032v14.264c0,5.523,15.369,10.031,34.327,10.031s34.327-4.508,34.327-10.031Z" transform="translate(-527.237 -933.791)" fill="#fbb615" fill-rule="evenodd"/>
  <path id="Path_337" data-name="Path 337" d="M701.345,1028.116v-8.557a26.226,26.226,0,0,1-7.547,3.221c-6.351,1.931-15.183,3.038-24.847,3.038s-18.406-1.107-24.755-3.038a24.15,24.15,0,0,1-7.547-3.221v8.557c0,1.842,3.313,3.681,8.559,5.247a89.583,89.583,0,0,0,23.744,2.854c9.294,0,17.761-1.107,23.744-2.854,5.338-1.567,8.651-3.4,8.651-5.247Zm0-14.266H705.3v14.264c0,3.773-4.418,6.9-11.5,9.02a102.767,102.767,0,0,1-49.6,0c-7.088-2.118-11.5-5.247-11.5-9.02V1013.85h3.957c0,1.75,3.313,3.681,8.559,5.247a89.591,89.591,0,0,0,23.744,2.853c9.294,0,17.761-1.106,23.744-2.853,5.337-1.563,8.65-3.495,8.65-5.247Z" transform="translate(-524.097 -933.787)" fill="#fbb615"/>
  <path id="Path_338" data-name="Path 338" d="M668.95,982.208a93.267,93.267,0,0,1,24.847,3.039c7.086,2.115,11.5,5.244,11.5,9.017s-4.418,6.9-11.5,8.928c-6.351,1.931-15.183,3.038-24.847,3.038s-18.406-1.107-24.755-3.038c-7.088-2.026-11.5-5.155-11.5-8.928s4.417-6.9,11.5-9.017a92.513,92.513,0,0,1,24.755-3.039Zm23.744,6.812c-5.983-1.75-14.45-2.854-23.744-2.854a89.448,89.448,0,0,0-23.744,2.854c-5.245,1.563-8.559,3.4-8.559,5.244,0,1.75,3.313,3.681,8.559,5.247a89.588,89.588,0,0,0,23.744,2.853c9.294,0,17.761-1.106,23.744-2.853,5.338-1.566,8.651-3.5,8.651-5.247,0-1.838-3.313-3.682-8.651-5.244Z" transform="translate(-524.097 -914.199)" fill="#fcc326"/>
  <path id="Path_339" data-name="Path 339" d="M699.124,995.453c-5.983-1.75-14.45-2.854-23.744-2.854a89.444,89.444,0,0,0-23.744,2.854c-5.245,1.563-8.559,3.4-8.559,5.244,0,1.75,3.313,3.681,8.559,5.247a89.59,89.59,0,0,0,23.744,2.853c9.294,0,17.761-1.106,23.744-2.853,5.338-1.566,8.651-3.5,8.651-5.247,0-1.838-3.313-3.682-8.651-5.244Z" transform="translate(-530.526 -920.632)" fill="#ffda63" fill-rule="evenodd"/>
  <path id="Path_340" data-name="Path 340" d="M772.811,1053.54a55.1,55.1,0,0,0,6.627-1.471l.459-.092v-7.913a62.959,62.959,0,0,1-7.086,1.563Z" transform="translate(-610.84 -952.492)" fill="#fcc326" fill-rule="evenodd"/>
  <path id="Path_341" data-name="Path 341" d="M676.647,1046.8c-2.484-.368-4.878-.828-6.994-1.287v7.821c2.117.552,4.419,1.011,6.994,1.471Z" transform="translate(-546.979 -953.388)" fill="#fcc326" fill-rule="evenodd"/>
  <path id="Path_342" data-name="Path 342" d="M648.323,1037.6a23.317,23.317,0,0,1-5.246-2.483v6.164c0,1.382,1.932,2.854,5.246,4.144Z" transform="translate(-530.526 -946.956)" fill="#fcc326" fill-rule="evenodd"/>
  <path id="Path_343" data-name="Path 343" d="M675.38,995.36c9.294,0,17.761,1.011,23.744,2.85,4.049,1.107,6.9,2.486,8.005,3.868a1.93,1.93,0,0,0,.645-1.382c0-1.839-3.313-3.681-8.651-5.244-5.983-1.75-14.45-2.854-23.744-2.854a89.447,89.447,0,0,0-23.744,2.854c-5.245,1.563-8.559,3.4-8.559,5.244a2.216,2.216,0,0,0,.554,1.382c1.2-1.382,4.049-2.761,8.005-3.868,6.075-1.84,14.448-2.85,23.744-2.85Z" transform="translate(-530.526 -920.631)" fill="#fbb615" fill-rule="evenodd"/>
  <path id="Path_344" data-name="Path 344" d="M721.395,969.751V955.4c0,5.613-15.369,10.03-34.327,10.03s-34.327-4.417-34.327-10.03v14.356c0,5.523,15.369,10.032,34.327,10.032s34.327-4.508,34.327-10.032Z" transform="translate(-536.509 -897.6)" fill="#fbb615" fill-rule="evenodd"/>
  <path id="Path_345" data-name="Path 345" d="M716.173,969.752V961.1a28.944,28.944,0,0,1-7.546,3.313,103.211,103.211,0,0,1-49.7,0,28.992,28.992,0,0,1-7.548-3.313v8.651c0,1.747,3.313,3.589,8.651,5.152,6.074,1.842,14.45,2.853,23.744,2.853s17.671-1.011,23.744-2.853c5.338-1.564,8.651-3.405,8.651-5.152Zm0-14.356h3.865v14.356c0,3.681-4.324,6.9-11.411,8.928-6.442,1.931-15.185,3.034-24.849,3.034s-18.406-1.1-24.847-3.034c-7.087-2.026-11.5-5.247-11.5-8.928V955.4h3.957c0,1.839,3.313,3.681,8.651,5.244a100.209,100.209,0,0,0,47.487,0c5.337-1.563,8.65-3.405,8.65-5.244Z" transform="translate(-533.22 -897.601)" fill="#fbb615"/>
  <path id="Path_346" data-name="Path 346" d="M683.778,923.984c9.664,0,18.406,1.105,24.848,3.038,7.087,2.026,11.411,5.246,11.411,8.928,0,3.773-4.324,6.9-11.411,9.019a103.211,103.211,0,0,1-49.7,0c-7.087-2.116-11.5-5.246-11.5-9.019,0-3.682,4.417-6.9,11.5-8.928,6.441-1.932,15.185-3.038,24.847-3.038Zm23.744,6.81c-6.073-1.84-14.45-2.852-23.744-2.852s-17.669,1.011-23.744,2.852c-5.338,1.564-8.651,3.4-8.651,5.155,0,1.839,3.313,3.681,8.651,5.244a100.209,100.209,0,0,0,47.488,0c5.338-1.563,8.651-3.4,8.651-5.244,0-1.75-3.313-3.59-8.651-5.155Z" transform="translate(-533.219 -878.155)" fill="#fcc326"/>
  <path id="Path_347" data-name="Path 347" d="M713.952,937.228c-6.073-1.84-14.45-2.852-23.744-2.852s-17.669,1.011-23.744,2.852c-5.338,1.565-8.651,3.4-8.651,5.155,0,1.839,3.313,3.681,8.651,5.244a100.207,100.207,0,0,0,47.488,0c5.338-1.563,8.651-3.4,8.651-5.244,0-1.75-3.313-3.59-8.651-5.155Z" transform="translate(-539.649 -884.588)" fill="#ffda63" fill-rule="evenodd"/>
  <path id="Path_348" data-name="Path 348" d="M787.788,995.315a58.036,58.036,0,0,0,6.626-1.566l.368-.092v-7.822a67.414,67.414,0,0,1-6.994,1.474v8.005Z" transform="translate(-620.112 -916.444)" fill="#fcc326" fill-rule="evenodd"/>
  <path id="Path_349" data-name="Path 349" d="M691.474,988.421a69.348,69.348,0,0,1-7.086-1.382v7.914a63.949,63.949,0,0,0,7.086,1.382Z" transform="translate(-556.1 -917.19)" fill="#fcc326" fill-rule="evenodd"/>
  <path id="Path_350" data-name="Path 350" d="M663.061,979.23a23.216,23.216,0,0,1-5.247-2.578v6.258c0,1.379,1.934,2.762,5.247,4.049Z" transform="translate(-539.649 -910.76)" fill="#fcc326" fill-rule="evenodd"/>
  <path id="Path_351" data-name="Path 351" d="M690.208,937.045a89.524,89.524,0,0,1,23.744,2.853c3.957,1.2,6.81,2.486,8.007,3.865a2.364,2.364,0,0,0,.643-1.379c0-1.75-3.313-3.591-8.651-5.155-6.073-1.84-14.45-2.852-23.744-2.852s-17.669,1.011-23.744,2.852c-5.338,1.565-8.651,3.4-8.651,5.155a1.911,1.911,0,0,0,.645,1.379c1.2-1.379,4.049-2.668,8.006-3.865a89.53,89.53,0,0,1,23.744-2.853Z" transform="translate(-539.65 -884.589)" fill="#fbb615" fill-rule="evenodd"/>
  <path id="Path_352" data-name="Path 352" d="M694.1,913.127V898.863c0,5.521-15.369,10.031-34.327,10.031s-34.327-4.51-34.327-10.031v14.264c0,5.521,15.369,10.032,34.327,10.032s34.327-4.51,34.327-10.032Z" transform="translate(-519.609 -862.603)" fill="#fbb615" fill-rule="evenodd"/>
  <path id="Path_353" data-name="Path 353" d="M688.782,913.126v-8.559a30.832,30.832,0,0,1-7.546,3.221,102.772,102.772,0,0,1-49.6,0,32.488,32.488,0,0,1-7.547-3.221v8.559c0,1.748,3.313,3.681,8.651,5.246,5.983,1.748,14.357,2.853,23.744,2.853,9.294,0,17.671-1.1,23.652-2.853,5.338-1.565,8.651-3.5,8.651-5.246Zm0-14.264h3.957v14.264c0,3.773-4.417,6.9-11.5,8.927-6.351,1.934-15.185,3.037-24.757,3.037-9.662,0-18.5-1.1-24.847-3.037-7.088-2.024-11.5-5.154-11.5-8.927V898.862h3.957c0,1.748,3.313,3.589,8.651,5.153,5.983,1.749,14.357,2.854,23.744,2.854,9.294,0,17.671-1.1,23.652-2.854,5.337-1.565,8.65-3.4,8.65-5.153Z" transform="translate(-516.319 -862.603)" fill="#fbb615"/>
  <path id="Path_354" data-name="Path 354" d="M656.479,867.214a93.132,93.132,0,0,1,24.757,3.038c7.086,2.024,11.5,5.246,11.5,9.019,0,3.681-4.417,6.9-11.5,8.926a102.773,102.773,0,0,1-49.6,0c-7.088-2.024-11.5-5.245-11.5-8.926,0-3.773,4.417-6.994,11.5-9.019a93.332,93.332,0,0,1,24.847-3.038Zm23.652,6.81c-5.981-1.748-14.358-2.853-23.652-2.853-9.387,0-17.761,1.1-23.744,2.853-5.338,1.565-8.651,3.4-8.651,5.246,0,1.749,3.313,3.589,8.651,5.153,5.983,1.749,14.357,2.854,23.744,2.854,9.294,0,17.671-1.1,23.652-2.854,5.338-1.565,8.651-3.4,8.651-5.153,0-1.841-3.313-3.681-8.651-5.246Z" transform="translate(-516.319 -843.01)" fill="#fcc326"/>
  <path id="Path_355" data-name="Path 355" d="M686.561,880.455c-5.981-1.749-14.357-2.853-23.652-2.853-9.387,0-17.761,1.1-23.744,2.853-5.338,1.564-8.651,3.4-8.651,5.246,0,1.749,3.313,3.589,8.651,5.153,5.983,1.749,14.357,2.854,23.744,2.854,9.294,0,17.671-1.1,23.652-2.854,5.338-1.564,8.651-3.4,8.651-5.153,0-1.841-3.313-3.681-8.651-5.246Z" transform="translate(-522.75 -849.441)" fill="#ffda63" fill-rule="evenodd"/>
  <path id="Path_356" data-name="Path 356" d="M760.247,938.54c2.484-.46,4.694-.921,6.627-1.473l.46-.184v-7.822c-2.116.552-4.51,1.1-7.087,1.563Z" transform="translate(-603.062 -881.298)" fill="#fcc326" fill-rule="evenodd"/>
  <path id="Path_357" data-name="Path 357" d="M664.174,931.65a65.188,65.188,0,0,1-7.086-1.381v7.914a64.37,64.37,0,0,0,7.086,1.381Z" transform="translate(-539.2 -882.046)" fill="#fcc326" fill-rule="evenodd"/>
  <path id="Path_358" data-name="Path 358" d="M635.76,922.607a25.4,25.4,0,0,1-5.246-2.484v6.165c0,1.381,1.934,2.761,5.246,4.051Z" transform="translate(-522.749 -875.765)" fill="#fcc326" fill-rule="evenodd"/>
  <path id="Path_359" data-name="Path 359" d="M662.909,880.27c9.294,0,17.671,1.1,23.652,2.852,4.049,1.2,6.9,2.578,8.1,3.866a2.2,2.2,0,0,0,.552-1.289c0-1.841-3.313-3.681-8.651-5.246C680.58,878.7,672.2,877.6,662.909,877.6c-9.387,0-17.761,1.1-23.744,2.853-5.338,1.564-8.651,3.4-8.651,5.246a2.2,2.2,0,0,0,.551,1.289c1.2-1.289,4.051-2.67,8.1-3.866,5.983-1.748,14.357-2.852,23.744-2.852Z" transform="translate(-522.75 -849.44)" fill="#fbb615" fill-rule="evenodd"/>
  <path id="Path_360" data-name="Path 360" d="M724.779,849.347V835.083c0,5.522-15.369,10.031-34.327,10.031s-34.327-4.51-34.327-10.031v14.264c0,5.613,15.369,10.123,34.327,10.123s34.327-4.51,34.327-10.123Z" transform="translate(-538.604 -823.119)" fill="#fbb615" fill-rule="evenodd"/>
  <path id="Path_361" data-name="Path 361" d="M719.7,849.347v-8.559a28.919,28.919,0,0,1-7.547,3.313,102.766,102.766,0,0,1-49.6,0,27.6,27.6,0,0,1-7.547-3.313v8.559c0,1.84,3.313,3.681,8.651,5.246,5.983,1.749,14.356,2.853,23.652,2.853,9.388,0,17.761-1.1,23.744-2.853,5.338-1.565,8.651-3.406,8.651-5.246Zm0-14.264h3.957v14.264c0,3.773-4.418,6.994-11.5,9.019a102.778,102.778,0,0,1-49.6,0c-7.087-2.024-11.5-5.246-11.5-9.019V835.083h3.957c0,1.841,3.313,3.681,8.651,5.246,5.983,1.749,14.356,2.853,23.652,2.853,9.388,0,17.761-1.1,23.744-2.853,5.337-1.564,8.65-3.405,8.65-5.246Z" transform="translate(-535.463 -823.119)" fill="#fbb615"/>
  <path id="Path_362" data-name="Path 362" d="M687.31,803.677c9.664,0,18.5,1.1,24.847,3.037,7.086,2.024,11.5,5.152,11.5,8.927s-4.418,6.9-11.5,9.018a102.766,102.766,0,0,1-49.6,0c-7.087-2.116-11.5-5.246-11.5-9.018s4.418-6.9,11.5-8.927c6.349-1.934,15.183-3.037,24.755-3.037Zm23.744,6.718c-5.983-1.748-14.356-2.854-23.744-2.854-9.3,0-17.669,1.1-23.652,2.854-5.338,1.565-8.651,3.5-8.651,5.246,0,1.841,3.313,3.681,8.651,5.246,5.983,1.748,14.356,2.853,23.652,2.853,9.388,0,17.761-1.1,23.744-2.853,5.338-1.565,8.651-3.405,8.651-5.246,0-1.748-3.313-3.681-8.651-5.246Z" transform="translate(-535.463 -803.677)" fill="#fcc326"/>
  <path id="Path_363" data-name="Path 363" d="M717.484,816.676c-5.983-1.748-14.356-2.854-23.744-2.854-9.3,0-17.669,1.1-23.652,2.854-5.338,1.565-8.651,3.5-8.651,5.246,0,1.841,3.313,3.681,8.651,5.246,5.983,1.748,14.356,2.853,23.652,2.853,9.388,0,17.761-1.1,23.744-2.853,5.338-1.565,8.651-3.405,8.651-5.246,0-1.748-3.313-3.681-8.651-5.246Z" transform="translate(-541.892 -809.957)" fill="#ffda63" fill-rule="evenodd"/>
  <path id="Path_364" data-name="Path 364" d="M791.171,874.911a51.355,51.355,0,0,0,6.627-1.473l.459-.092v-7.822A63.759,63.759,0,0,1,791.171,867Z" transform="translate(-622.206 -841.965)" fill="#fcc326" fill-rule="evenodd"/>
  <path id="Path_365" data-name="Path 365" d="M695.007,868.018a68.084,68.084,0,0,1-6.994-1.287v7.914a66.894,66.894,0,0,0,6.994,1.38Z" transform="translate(-558.345 -842.711)" fill="#fcc326" fill-rule="evenodd"/>
  <path id="Path_366" data-name="Path 366" d="M666.683,858.828a23.369,23.369,0,0,1-5.246-2.484v6.165c0,1.381,1.932,2.853,5.246,4.142Z" transform="translate(-541.892 -836.281)" fill="#fcc326" fill-rule="evenodd"/>
  <path id="Path_367" data-name="Path 367" d="M693.74,816.584c9.388,0,17.761,1.1,23.744,2.852,4.049,1.2,6.9,2.486,8.1,3.866a2.21,2.21,0,0,0,.553-1.381c0-1.749-3.313-3.681-8.651-5.246-5.983-1.748-14.356-2.854-23.744-2.854-9.3,0-17.669,1.1-23.652,2.854-5.338,1.565-8.651,3.5-8.651,5.246a2.209,2.209,0,0,0,.554,1.381c1.2-1.381,4.049-2.67,8.1-3.866,5.983-1.749,14.356-2.852,23.652-2.852Z" transform="translate(-541.892 -809.957)" fill="#fbb615" fill-rule="evenodd"/>
  <path id="Path_368" data-name="Path 368" d="M566.056,1068.56V1054.2c0,5.612-15.369,10.032-34.327,10.032s-34.327-4.42-34.327-10.032v14.356c0,5.52,15.369,10.032,34.327,10.032s34.327-4.512,34.327-10.032Z" transform="translate(-440.344 -958.769)" fill="#fbb615" fill-rule="evenodd"/>
  <path id="Path_369" data-name="Path 369" d="M560.743,1068.557v-8.652a26.342,26.342,0,0,1-7.547,3.313,102.771,102.771,0,0,1-49.6,0,28.855,28.855,0,0,1-7.546-3.313v8.652c0,1.747,3.313,3.589,8.651,5.152,5.981,1.842,14.448,2.853,23.744,2.853s17.669-1.011,23.742-2.853c5.339-1.564,8.56-3.4,8.56-5.152Zm0-14.358H564.7v14.356c0,3.681-4.418,6.9-11.5,8.925-6.349,1.934-15.093,3.037-24.755,3.037s-18.5-1.1-24.849-3.037c-7.086-2.023-11.5-5.244-11.5-8.925V1054.2h3.957c0,1.839,3.313,3.681,8.651,5.244,5.981,1.75,14.448,2.854,23.744,2.854a89.426,89.426,0,0,0,23.742-2.854c5.338-1.56,8.56-3.4,8.56-5.244Z" transform="translate(-437.056 -958.767)" fill="#fbb615"/>
  <path id="Path_370" data-name="Path 370" d="M528.44,1022.79c9.662,0,18.406,1.1,24.755,3.038,7.086,2.026,11.5,5.247,11.5,8.928,0,3.773-4.419,6.9-11.5,9.017a102.771,102.771,0,0,1-49.6,0c-7.086-2.115-11.5-5.244-11.5-9.017,0-3.681,4.417-6.9,11.5-8.928,6.35-1.933,15.185-3.038,24.848-3.038Zm23.742,6.811c-6.073-1.839-14.448-2.853-23.742-2.853s-17.763,1.014-23.744,2.853c-5.338,1.566-8.651,3.4-8.651,5.155,0,1.839,3.313,3.681,8.651,5.244,5.981,1.75,14.448,2.854,23.744,2.854A89.427,89.427,0,0,0,552.182,1040c5.339-1.563,8.56-3.4,8.56-5.244,0-1.75-3.222-3.59-8.56-5.155Z" transform="translate(-437.055 -939.322)" fill="#fcc326"/>
  <path id="Path_371" data-name="Path 371" d="M558.612,1036.033c-6.073-1.839-14.448-2.853-23.742-2.853s-17.763,1.014-23.744,2.853c-5.338,1.566-8.651,3.4-8.651,5.155,0,1.839,3.313,3.681,8.651,5.244,5.981,1.75,14.448,2.854,23.744,2.854a89.426,89.426,0,0,0,23.742-2.854c5.339-1.563,8.56-3.4,8.56-5.244,0-1.75-3.222-3.59-8.56-5.155Z" transform="translate(-443.485 -945.754)" fill="#ffda63" fill-rule="evenodd"/>
  <path id="Path_372" data-name="Path 372" d="M632.208,1094.125a55.862,55.862,0,0,0,6.717-1.566l.37-.092v-7.822a64.511,64.511,0,0,1-7.086,1.474Z" transform="translate(-523.798 -977.614)" fill="#fcc326" fill-rule="evenodd"/>
  <path id="Path_373" data-name="Path 373" d="M536.135,1087.233a69.171,69.171,0,0,1-7.086-1.382v7.914a63.841,63.841,0,0,0,7.086,1.382Z" transform="translate(-459.936 -978.361)" fill="#fcc326" fill-rule="evenodd"/>
  <path id="Path_374" data-name="Path 374" d="M507.72,1078.041a21.477,21.477,0,0,1-5.246-2.578v6.258c0,1.379,1.932,2.762,5.246,4.049Z" transform="translate(-443.484 -971.93)" fill="#fcc326" fill-rule="evenodd"/>
  <path id="Path_375" data-name="Path 375" d="M534.87,1035.852a89.448,89.448,0,0,1,23.742,2.853c3.959,1.2,6.81,2.486,8.007,3.865a2.2,2.2,0,0,0,.553-1.379c0-1.75-3.221-3.589-8.56-5.155-6.073-1.839-14.448-2.853-23.742-2.853s-17.763,1.014-23.744,2.853c-5.338,1.566-8.651,3.4-8.651,5.155a1.915,1.915,0,0,0,.643,1.379c1.1-1.379,3.957-2.67,8.007-3.865,5.981-1.749,14.448-2.853,23.744-2.853Z" transform="translate(-443.485 -945.756)" fill="#fbb615" fill-rule="evenodd"/>
  <path id="Path_376" data-name="Path 376" d="M580.792,1010.239V995.975c0,5.523-15.369,10.032-34.327,10.032s-34.327-4.508-34.327-10.032v14.264c0,5.523,15.369,10.031,34.327,10.031s34.327-4.508,34.327-10.031Z" transform="translate(-449.467 -922.722)" fill="#fbb615" fill-rule="evenodd"/>
  <path id="Path_377" data-name="Path 377" d="M575.719,1010.241v-8.557a26.219,26.219,0,0,1-7.547,3.221c-6.349,1.931-15.183,3.038-24.847,3.038s-18.406-1.107-24.755-3.038a24.144,24.144,0,0,1-7.547-3.221v8.557c0,1.842,3.221,3.681,8.558,5.247a89.588,89.588,0,0,0,23.744,2.853c9.3,0,17.761-1.106,23.744-2.853,5.338-1.563,8.651-3.4,8.651-5.247Zm0-14.263h3.957v14.264c0,3.776-4.418,6.9-11.5,9.02a102.778,102.778,0,0,1-49.6,0c-7.086-2.118-11.5-5.244-11.5-9.02V995.978h3.957c0,1.75,3.221,3.589,8.559,5.155,6.075,1.839,14.448,2.854,23.744,2.854s17.761-1.015,23.744-2.854c5.337-1.566,8.65-3.406,8.65-5.155Z" transform="translate(-446.326 -922.724)" fill="#fbb615"/>
  <path id="Path_378" data-name="Path 378" d="M543.324,964.334a93.337,93.337,0,0,1,24.847,3.036c7.086,2.117,11.5,5.246,11.5,9.018,0,3.681-4.418,6.9-11.5,8.928-6.349,1.931-15.183,3.038-24.847,3.038s-18.406-1.107-24.755-3.038c-7.086-2.026-11.5-5.247-11.5-8.928,0-3.773,4.418-6.9,11.5-9.018a92.592,92.592,0,0,1,24.755-3.036Zm23.744,6.809c-5.983-1.749-14.448-2.852-23.744-2.852a89.515,89.515,0,0,0-23.744,2.852c-5.337,1.565-8.558,3.406-8.558,5.245,0,1.75,3.221,3.589,8.558,5.155,6.075,1.839,14.448,2.854,23.744,2.854s17.761-1.015,23.744-2.854c5.338-1.566,8.651-3.4,8.651-5.155,0-1.839-3.313-3.681-8.651-5.245Z" transform="translate(-446.326 -903.134)" fill="#fcc326"/>
  <path id="Path_379" data-name="Path 379" d="M573.5,977.573c-5.983-1.749-14.448-2.852-23.744-2.852a89.514,89.514,0,0,0-23.744,2.852c-5.337,1.564-8.558,3.406-8.558,5.245,0,1.75,3.221,3.589,8.558,5.155,6.075,1.839,14.448,2.854,23.744,2.854s17.761-1.015,23.744-2.854c5.338-1.566,8.651-3.4,8.651-5.155,0-1.839-3.313-3.681-8.651-5.245Z" transform="translate(-452.756 -909.564)" fill="#ffda63" fill-rule="evenodd"/>
  <path id="Path_380" data-name="Path 380" d="M647.185,1035.66a54.875,54.875,0,0,0,6.627-1.471l.46-.092v-7.914a62.985,62.985,0,0,1-7.087,1.563Z" transform="translate(-533.069 -941.423)" fill="#fcc326" fill-rule="evenodd"/>
  <path id="Path_381" data-name="Path 381" d="M551.021,1028.918c-2.484-.368-4.878-.827-6.994-1.287v7.821a62.948,62.948,0,0,0,6.994,1.379Z" transform="translate(-469.208 -942.319)" fill="#fcc326" fill-rule="evenodd"/>
  <path id="Path_382" data-name="Path 382" d="M522.7,1019.726a23.3,23.3,0,0,1-5.246-2.483v6.164c0,1.382,1.932,2.761,5.246,4.052Z" transform="translate(-452.756 -935.888)" fill="#fcc326" fill-rule="evenodd"/>
  <path id="Path_383" data-name="Path 383" d="M549.755,977.389c9.3,0,17.761,1.1,23.744,2.855,4.049,1.2,6.9,2.574,8.005,3.865a1.612,1.612,0,0,0,.645-1.291c0-1.839-3.313-3.681-8.651-5.245-5.983-1.749-14.448-2.852-23.744-2.852a89.514,89.514,0,0,0-23.744,2.852c-5.337,1.565-8.558,3.406-8.558,5.245a1.823,1.823,0,0,0,.553,1.291c1.2-1.291,4.049-2.67,8.005-3.865a89.437,89.437,0,0,1,23.744-2.855Z" transform="translate(-452.756 -909.564)" fill="#fbb615" fill-rule="evenodd"/>
  <path id="Path_384" data-name="Path 384" d="M553.493,953.471V939.207c0,5.522-15.369,10.032-34.327,10.032s-34.327-4.51-34.327-10.032v14.264c0,5.615,15.369,10.031,34.327,10.031s34.327-4.416,34.327-10.031Z" transform="translate(-432.567 -887.579)" fill="#fbb615" fill-rule="evenodd"/>
  <path id="Path_385" data-name="Path 385" d="M548.419,953.471v-8.559a28.982,28.982,0,0,1-7.547,3.313c-6.44,1.84-15.183,2.945-24.847,2.945s-18.406-1.105-24.847-2.945a28.987,28.987,0,0,1-7.547-3.313v8.559c0,1.84,3.313,3.681,8.651,5.247a100.324,100.324,0,0,0,47.488,0c5.338-1.566,8.651-3.407,8.651-5.247Zm0-14.264h3.865v14.264c0,3.773-4.326,6.9-11.412,9.02a103.155,103.155,0,0,1-49.695,0c-7.086-2.118-11.412-5.247-11.412-9.02V939.207h3.865c0,1.749,3.313,3.681,8.651,5.246a100.274,100.274,0,0,0,47.488,0c5.338-1.565,8.651-3.5,8.651-5.246Z" transform="translate(-429.426 -887.579)" fill="#fbb615"/>
  <path id="Path_386" data-name="Path 386" d="M516.024,907.8c9.664,0,18.406,1.1,24.847,2.945,7.086,2.116,11.412,5.245,11.412,9.018s-4.326,6.9-11.412,9.019c-6.44,1.84-15.183,2.945-24.847,2.945s-18.406-1.105-24.847-2.945c-7.086-2.116-11.412-5.246-11.412-9.019s4.326-6.9,11.412-9.018c6.441-1.841,15.184-2.945,24.847-2.945Zm23.744,6.719a100.209,100.209,0,0,0-47.488,0c-5.338,1.565-8.651,3.4-8.651,5.245,0,1.749,3.313,3.681,8.651,5.246a100.274,100.274,0,0,0,47.488,0c5.338-1.565,8.651-3.5,8.651-5.246,0-1.841-3.313-3.681-8.651-5.245Z" transform="translate(-429.426 -868.136)" fill="#fcc326"/>
  <path id="Path_387" data-name="Path 387" d="M546.049,920.8a100.209,100.209,0,0,0-47.488,0c-5.338,1.565-8.651,3.4-8.651,5.245,0,1.749,3.313,3.681,8.651,5.246a100.274,100.274,0,0,0,47.488,0c5.338-1.565,8.651-3.5,8.651-5.246,0-1.841-3.313-3.681-8.651-5.245Z" transform="translate(-435.707 -874.417)" fill="#ffda63" fill-rule="evenodd"/>
  <path id="Path_388" data-name="Path 388" d="M619.886,979.035a59.3,59.3,0,0,0,6.626-1.471l.368-.092v-7.823c-2.117.552-4.417,1.011-6.994,1.473v7.913Z" transform="translate(-516.17 -906.424)" fill="#fcc326" fill-rule="evenodd"/>
  <path id="Path_389" data-name="Path 389" d="M523.572,972.144c-2.484-.37-4.878-.829-7.086-1.289v7.823a63.808,63.808,0,0,0,7.086,1.471Z" transform="translate(-452.158 -907.171)" fill="#fcc326" fill-rule="evenodd"/>
  <path id="Path_390" data-name="Path 390" d="M495.157,962.95a27.818,27.818,0,0,1-5.246-2.486v6.167c0,1.38,1.932,2.853,5.246,4.14Z" transform="translate(-435.707 -900.738)" fill="#fcc326" fill-rule="evenodd"/>
  <path id="Path_391" data-name="Path 391" d="M522.305,920.707a89.509,89.509,0,0,1,23.744,2.852c3.957,1.1,6.81,2.485,8.006,3.866a2.367,2.367,0,0,0,.645-1.381c0-1.84-3.313-3.681-8.651-5.246a100.209,100.209,0,0,0-47.488,0c-5.338,1.565-8.651,3.4-8.651,5.246a2.371,2.371,0,0,0,.645,1.381c1.2-1.381,4.049-2.761,8.006-3.866a89.528,89.528,0,0,1,23.744-2.852Z" transform="translate(-435.707 -874.416)" fill="#fbb615" fill-rule="evenodd"/>
  <path id="Path_392" data-name="Path 392" d="M421.346,1110.984v-14.267c0,5.523-15.369,10.031-34.327,10.031s-34.327-4.508-34.327-10.031v14.267c0,5.612,15.369,10.028,34.327,10.028s34.327-4.417,34.327-10.028Z" transform="translate(-350.76 -985.087)" fill="#fbb615" fill-rule="evenodd"/>
  <path id="Path_393" data-name="Path 393" d="M416.273,1110.986v-8.561a26.22,26.22,0,0,1-7.547,3.221c-6.349,1.934-15.185,3.038-24.847,3.038s-18.406-1.1-24.757-3.038a25.116,25.116,0,0,1-7.546-3.221v8.561c0,1.839,3.313,3.681,8.559,5.244a89.445,89.445,0,0,0,23.744,2.853c9.294,0,17.761-1.1,23.742-2.853,5.34-1.564,8.653-3.4,8.653-5.244Zm0-14.266h3.957v14.267c0,3.772-4.418,6.9-11.5,9.017a102.773,102.773,0,0,1-49.6,0c-7.086-2.118-11.5-5.244-11.5-9.017V1096.72h3.957c0,1.75,3.313,3.681,8.559,5.247a89.577,89.577,0,0,0,23.744,2.853c9.294,0,17.761-1.106,23.742-2.853,5.339-1.567,8.652-3.5,8.652-5.247Z" transform="translate(-347.619 -985.089)" fill="#fbb615"/>
  <path id="Path_394" data-name="Path 394" d="M383.878,1065.07a93.276,93.276,0,0,1,24.847,3.038c7.086,2.115,11.5,5.244,11.5,9.017s-4.418,6.9-11.5,8.928c-6.349,1.934-15.185,3.038-24.847,3.038s-18.406-1.1-24.757-3.038c-7.086-2.026-11.5-5.155-11.5-8.928s4.417-6.9,11.5-9.017a92.577,92.577,0,0,1,24.757-3.038Zm23.742,6.811c-5.981-1.75-14.448-2.853-23.742-2.853a89.45,89.45,0,0,0-23.744,2.853c-5.246,1.563-8.559,3.4-8.559,5.244,0,1.75,3.313,3.681,8.559,5.247a89.571,89.571,0,0,0,23.744,2.853c9.294,0,17.761-1.106,23.742-2.853,5.339-1.566,8.652-3.5,8.652-5.247,0-1.839-3.313-3.679-8.652-5.244Z" transform="translate(-347.619 -965.496)" fill="#fcc326"/>
  <path id="Path_395" data-name="Path 395" d="M414.051,1078.313c-5.981-1.75-14.448-2.853-23.742-2.853a89.445,89.445,0,0,0-23.744,2.853c-5.246,1.563-8.559,3.4-8.559,5.244,0,1.75,3.313,3.681,8.559,5.247a89.577,89.577,0,0,0,23.744,2.853c9.294,0,17.761-1.106,23.742-2.853,5.339-1.567,8.652-3.5,8.652-5.247,0-1.839-3.313-3.679-8.652-5.244Z" transform="translate(-354.049 -971.928)" fill="#ffda63" fill-rule="evenodd"/>
  <path id="Path_396" data-name="Path 396" d="M487.739,1136.4a54.856,54.856,0,0,0,6.625-1.471l.461-.092v-7.914a63.131,63.131,0,0,1-7.086,1.563Z" transform="translate(-434.362 -1003.788)" fill="#fcc326" fill-rule="evenodd"/>
  <path id="Path_397" data-name="Path 397" d="M391.575,1129.658c-2.486-.368-4.878-.827-6.994-1.287v7.822a62.585,62.585,0,0,0,6.994,1.474v-8.009Z" transform="translate(-370.501 -1004.683)" fill="#fcc326" fill-rule="evenodd"/>
  <path id="Path_398" data-name="Path 398" d="M363.25,1120.466a23.3,23.3,0,0,1-5.245-2.483v6.167c0,1.379,1.932,2.85,5.245,4.14Z" transform="translate(-354.049 -998.252)" fill="#fcc326" fill-rule="evenodd"/>
  <path id="Path_399" data-name="Path 399" d="M390.309,1078.222c9.294,0,17.761,1.1,23.742,2.853,4.05,1.1,6.9,2.483,8.007,3.865a1.912,1.912,0,0,0,.645-1.382c0-1.839-3.313-3.681-8.652-5.244-5.981-1.75-14.448-2.853-23.742-2.853a89.45,89.45,0,0,0-23.744,2.853c-5.246,1.563-8.559,3.4-8.559,5.244a2.207,2.207,0,0,0,.552,1.382c1.2-1.382,4.049-2.761,8.007-3.865a89.514,89.514,0,0,1,23.744-2.853Z" transform="translate(-354.049 -971.929)" fill="#fbb615" fill-rule="evenodd"/>
  <path id="Path_400" data-name="Path 400" d="M397.381,900.461s9.848-58.624,48.685-79.882l-9.755-.276a85.666,85.666,0,0,1,40.032-9.386c-1.379,5.244-3.4,13.435-2.852,20.153a42.488,42.488,0,0,0-12.332-5.889c-.184-.092-.276-.184-.46-.184,0,0-.277.092-.737.276-6.073,2.3-43.254,18.313-62.581,75.188Z" transform="translate(-378.425 -808.155)" fill="#0a6e9d" fill-rule="evenodd"/>
</svg>
