<svg xmlns="http://www.w3.org/2000/svg" viewBox="0 0 82.88 151.55"><defs><style>.cls-1{isolation:isolate;}.cls-2{fill:#941919;}.cls-3{fill:#3b3b30;}.cls-4{fill:#bdbdb9;}.cls-5{fill:#055f8c;}.cls-6{fill:#00396a;}.cls-7{fill:#368cc2;}.cls-8{fill:#2a6d9c;}.cls-9{fill:#be1513;}.cls-10{fill:#ab0000;}.cls-11{fill:#da3f3c;}.cls-12{fill:#a8020b;}.cls-13{fill:#e09c63;}.cls-14{fill:#d9af6a;}.cls-15{fill:#9c480c;}.cls-16{fill:#d6d6d6;}.cls-17{fill:#efd995;}.cls-18{fill:#b76f3f;}.cls-19{fill:#e6e1e4;}.cls-20{fill:#f1f1f1;}.cls-21{fill:#b3a4ad;}.cls-22{fill:#2b252b;}.cls-23{fill:#575257;}.cls-24{fill:#474247;}.cls-25{fill:#ebebeb;}.cls-26{fill:#939393;}.cls-27{fill:#f9c48e;}.cls-28{fill:#ffe1c9;}.cls-29{fill:#900000;}.cls-30{fill:#e2a46f;}.cls-31{fill:#c4734e;}.cls-32{fill:#ffd15b;}.cls-33{fill:#eaa671;}.cls-34{fill:#89310b;}.cls-35{fill:#cf3b39;}.cls-36{fill:#d1d1d1;}.cls-37{fill:#a4a4a4;}.cls-38{fill:#cecece;mix-blend-mode:multiply;}.cls-39{fill:#54544a;}.cls-40{fill:#ff655c;}</style></defs><g class="cls-1"><g id="Layer_2" data-name="Layer 2"><g id="Layer_1-2" data-name="Layer 1"><path class="cls-2" d="M46.55,9.74s.35.34,4.56.75,5.72,0,5.72,0L51.47,8.42S46.87,8.42,46.55,9.74Z"/><path class="cls-3" d="M47.18,131.22A3.64,3.64,0,0,0,44.9,133c-.94,1.56-1.74,2.76-2.27,3a15,15,0,0,0-3.7,3,2.46,2.46,0,0,0-.59,1.75s-.25.1-.2.66a2.49,2.49,0,0,0,1.79,2.12,6.15,6.15,0,0,0,5.36-.56c2-1.24,3.33-3.31,4.3-3.49s6.23-2.27,6.47-3.08,2-7.26-.27-7.29S47.18,131.22,47.18,131.22Z"/><path class="cls-4" d="M49.59,138.06c-1,.23-2.29,2.25-4.3,3.49a6.15,6.15,0,0,1-5.36.56,2.6,2.6,0,0,1-1.59-1.38h0s-.25.1-.2.66a2.49,2.49,0,0,0,1.79,2.12,6.15,6.15,0,0,0,5.36-.56c2-1.24,3.33-3.31,4.3-3.49s6.23-2.27,6.47-3.08c.06-.19.2-.72.36-1.39C55.64,135.87,53.38,137.15,49.59,138.06Z"/><path class="cls-5" d="M38.34,90.6s1,14.79,3.94,22.73,1.94,11.37,2.57,13.54,1.47,4.93,1.47,4.93,3,2.72,4.48,2.74,3.51-.77,3.71-1.15,5.75-19.68,5.51-20.82,7.77-22.72-4.45-24.89S38.34,90.6,38.34,90.6Z"/><path class="cls-6" d="M54.51,133.39a30.82,30.82,0,0,1-1.23-8,90.84,90.84,0,0,0-2-15.41c-.47-1.23-5.79-14.15-5.79-14.15l11.81-8.67v38.37S55.66,132.74,54.51,133.39Z"/><path class="cls-3" d="M56.93,137l-1.3-.17a24.38,24.38,0,0,1-1.18,3c-.34.47-4.24,5-4.69,5.68a3.44,3.44,0,0,0-.55,1.26s-.37.18-.49,1.08-.14,3.07,3,3.55A8,8,0,0,0,59,148.69c1.56-1.75,2.61-3.26,3.27-3.88a21.89,21.89,0,0,0,2.66-3s1.41-3.23.85-4.4S56.93,137,56.93,137Z"/><path class="cls-4" d="M64.88,140.32a21.61,21.61,0,0,1-2.66,3.05c-.66.62-1.71,2.13-3.27,3.88A8,8,0,0,1,51.72,150c-2.07-.32-2.77-1.37-3-2.31l0,.2c-.12.9-.14,3.07,3,3.55A8,8,0,0,0,59,148.69c1.56-1.75,2.61-3.26,3.27-3.88a21.89,21.89,0,0,0,2.66-3s1.32-3,.9-4.28A15,15,0,0,1,64.88,140.32Z"/><path class="cls-7" d="M68.78,85.33s0,.79-.06,2.09c-.13,3.78-.43,11.77-.94,16.32-.67,6.1-1,8.41-.76,11.45s.58,3.38-.08,10.25a94.35,94.35,0,0,0-.33,12.63,8,8,0,0,1-1.87,1,9.65,9.65,0,0,1-3,.55,10,10,0,0,1-5.48-1.91s-1.62-8.09-1.12-11.63-1.5-15-1.5-15-1.45-8.23-2.3-12.07,3.38-21.58,6.29-23S68.78,85.33,68.78,85.33Z"/><path class="cls-8" d="M67.78,103.74c-.67,6.1-1,8.41-.76,11.45s.58,3.38-.08,10.25a94.35,94.35,0,0,0-.33,12.63,8,8,0,0,1-1.87,1c0-4.88.81-13.26.93-16.24.16-3.69-1-6.21-1.21-10.51S66.4,88.81,66.4,88.81a12,12,0,0,1,2.32-1.39C68.59,91.2,68.29,99.19,67.78,103.74Z"/><path class="cls-9" d="M76.11,55.21c-.54,4.18-6.51,26.32-6.86,25.69s-24.71,3.25-24.71,3.25-3.69-33-3.89-36.33,3.66-17.88,4.78-19.95a2.7,2.7,0,0,1,1-1.06c1.33-.82,3.34-.52,5.25-.24a15.87,15.87,0,0,0,4.53,0l2.36.17c3.71.3,10.63.94,11.79,1.64,1.61,1,9.77,10.25,9.77,10.25C80.72,41.32,76.65,51,76.11,55.21Z"/><path class="cls-10" d="M58.11,35a45.55,45.55,0,0,0-1.5,6.06,51.37,51.37,0,0,1-1.31,7.24c-.22.45,2-6.65,2.81-7.28S57.79,38.32,58.11,35Z"/><path class="cls-10" d="M48.52,30.33A25.32,25.32,0,0,0,45,41.18c-.72,6.83-1,6.44-1,6.44S43.45,36.66,48.52,30.33Z"/><path class="cls-11" d="M46.92,26.57c-.54.16-.78.88-1.12,1.25a16.28,16.28,0,0,0-1.07,2.81c-.18.56-.34,1-.42,1.26a14.66,14.66,0,0,0-.37,2,6.38,6.38,0,0,1-.44,1.66,15.14,15.14,0,0,0-.75,3.21,7,7,0,0,0-.45,1.47,24.86,24.86,0,0,1-1.14,3.31S17,46.2,14.23,44.94s-.74-8.09-.74-8.09a7.92,7.92,0,0,1,3,0,2.43,2.43,0,0,0,1.28,0,5.4,5.4,0,0,1,1.34-.25,9,9,0,0,0,4.39-1.24,4,4,0,0,1,3.69,0c.59.14,1.08.64,2.1.09s2.47.25,2.78,0,1.47-1.38,2-1.87,1.54-.46,2.19-1a13.15,13.15,0,0,1,2.15-1.29,3.24,3.24,0,0,1,.86-.77c.72-.52,1.79-.81,2-1.13s2.12-1,2.89-1.9S46.92,26.57,46.92,26.57Z"/><path class="cls-12" d="M46.92,26.57c-.54.16-.78.88-1.12,1.25a16.28,16.28,0,0,0-1.07,2.81c-.49-.19-.51-2.34-.71-2.25a2.17,2.17,0,0,0-.48,1.49c0,.68.05,1.77.77,2,.49.17.08,1.38-.37,2-.21.29-.43.45-.56.3-.42-.44.43-1.53-.16-2.15a2.43,2.43,0,0,1-.72-1.71c0-.37-.77-.77-.77-.77A6.52,6.52,0,0,1,40.9,31c-.51.62,1.09,4.31,1.18,4.52A15,15,0,0,1,40.64,33L40,31a8.76,8.76,0,0,0-1.18,1.76,20.64,20.64,0,0,0-.59,3.2s-.27-.21-.27-1.3-.45-1.76-1-1.54a5.54,5.54,0,0,0-1.49,1.63,5.93,5.93,0,0,1-1.4,1.21s-.77,0-1.31,0-3-.6-1.5,0a5,5,0,0,1,2.22,2.6,6.35,6.35,0,0,0-.77-1.09c-.86-1-2.85-1-2.88-1.08a20.66,20.66,0,0,1-3-.69,2.58,2.58,0,0,0-2,.26,30.65,30.65,0,0,1-3.39.74c-1.81.3-1,1.13-.77,1.37a2.87,2.87,0,0,0-1.18-.51,14.21,14.21,0,0,1-1.77-.66,5.4,5.4,0,0,1,1.34-.25,9,9,0,0,0,4.39-1.24,4,4,0,0,1,3.69,0c.59.14,1.08.64,2.1.09s2.47.25,2.78,0,1.47-1.38,2-1.87,1.54-.46,2.19-1a13.15,13.15,0,0,1,2.15-1.29,3.24,3.24,0,0,1,.86-.77c.72-.52,1.79-.81,2-1.13s2.12-1,2.89-1.9S46.92,26.57,46.92,26.57Z"/><path class="cls-13" d="M14.36,42.6S16,44,16,42.13s-1.47-4.82-2.59-3.84S14.36,42.6,14.36,42.6Z"/><path class="cls-12" d="M19,37.81a2.34,2.34,0,0,1,1.46,2.74,16.45,16.45,0,0,1-1.61,3.68S23.09,39.87,19,37.81Z"/><polygon class="cls-14" points="72.88 52.82 50.36 63.97 42.72 104.48 63.44 92.78 72.88 52.82"/><polygon class="cls-15" points="60.14 59.17 53.28 98.55 56.71 96.61 64.18 57.22 60.14 59.17"/><polygon class="cls-16" points="60.42 58.99 53.56 98.36 56.99 96.42 64.46 57.04 60.42 58.99"/><polygon class="cls-17" points="72.88 52.82 40.9 35.03 13.03 43.68 50.36 63.97 72.88 52.82"/><polygon class="cls-18" points="5.07 83.78 13.03 43.68 50.36 63.97 42.72 104.48 5.07 83.78"/><polygon class="cls-15" points="52.16 41.29 27.07 51.57 33.12 54.77 56.86 43.9 52.16 41.29"/><polygon class="cls-15" points="30.8 37.92 64.46 57.04 60.14 59.17 26.43 39.12 30.8 37.92"/><polygon class="cls-19" points="31.08 37.73 64.73 56.85 60.42 58.99 26.7 38.93 31.08 37.73"/><polygon class="cls-15" points="33.12 54.77 26.07 95.32 19.74 91.84 27.07 51.57 33.12 54.77"/><polygon class="cls-20" points="51.79 41.09 26.7 51.37 32.76 54.58 56.49 43.7 51.79 41.09"/><polygon class="cls-21" points="32.76 54.58 25.7 95.13 19.37 91.64 26.7 51.37 32.76 54.58"/><polygon class="cls-22" points="13.52 39.16 16.16 75.79 16.77 75.97 29.26 47.63 13.52 39.16"/><polygon class="cls-23" points="12.91 38.98 0 65.65 16.16 75.79 28.64 47.45 12.91 38.98"/><polygon class="cls-24" points="13.37 41.43 2.21 64.48 16.18 73.25 24.93 52.82 26.7 47.78 13.37 41.43"/><polygon class="cls-25" points="13.1 40.45 1.94 63.51 15.91 72.28 26.7 47.78 13.1 40.45"/><polygon class="cls-26" points="19.31 40.73 18.7 40.61 21.81 45.97 22.25 46.05 24.44 43.52 19.31 40.73"/><path class="cls-27" d="M15.05,42s-.12,2.25-.24,3.1-1.38.37-1.38.37.62,1.65-.06,2.1a1.61,1.61,0,0,1-1.51,0,.59.59,0,0,0,0,.3c.06.12-.52.62-1.21.66s-1.19-1-1.19-1.2-.12.3-.12.3a1.62,1.62,0,0,1-.51.6.65.65,0,0,1-.34.1c-.53,0-1.86-1.84-2.24-2.69A7.91,7.91,0,0,1,6,42.56,2.37,2.37,0,0,1,6.66,41c.2-.3.31-1.06.54-1.44s.88-.46,1.2-1.3.82-.69,1.49-.74.46-.08,1.3-.62a1.58,1.58,0,0,1,.69-.26,2.44,2.44,0,0,1,1.55.38,9.57,9.57,0,0,1,1.23,2.24Z"/><path class="cls-13" d="M11.88,36.67a2,2,0,0,0-.45.38c-.27.28-.63.46-.78.82A4.29,4.29,0,0,0,10.52,39a1.58,1.58,0,0,0-.38-.65,2,2,0,0,0-.53-.43c-.36-.15-1,.41-1.16.68-.26.42,0,1-.07,1.45-.38-.44-.79.85-.84,1.09a6,6,0,0,0,0,1.8c-.18-.22-.56-.11-.72.12a1.39,1.39,0,0,0-.14.81,4.53,4.53,0,0,0,.65,2.6,8.26,8.26,0,0,0,.94.93,2.17,2.17,0,0,1,.54.83.65.65,0,0,1-.34.1c-.53,0-1.86-1.84-2.24-2.69A7.91,7.91,0,0,1,6,42.56,2.37,2.37,0,0,1,6.66,41c.2-.3.31-1.06.54-1.44s.88-.46,1.2-1.3.82-.69,1.49-.74.46-.08,1.3-.62A1.58,1.58,0,0,1,11.88,36.67Z"/><path class="cls-13" d="M11.1,38.83A33.43,33.43,0,0,1,12.46,42a22.53,22.53,0,0,0,.71,2.79c.29.55.26.64.26.64l.16.54a2.11,2.11,0,0,1-.55-.77,23,23,0,0,1-.76-2.58c-.1-.24-.93-2.46-.94-2.5A6.29,6.29,0,0,1,11.1,38.83Z"/><path class="cls-13" d="M8.61,41.09s1.77,3,2,3.74a13.86,13.86,0,0,0,1.41,2.62l.29.29-.49-.16,0,.3a9.55,9.55,0,0,0-.69-1.35c-.47-.8-1.94-3.92-2-4.11Z"/><path class="cls-13" d="M9.49,47.34S8.33,45.5,8.1,45.1A15.15,15.15,0,0,1,7.47,43c-.08-.27-.23-1-.3-.9a19.59,19.59,0,0,0,.67,3.15c.21.47,1.18,1.61,1.23,1.91s.19.67.07.79S9.49,47.83,9.49,47.34Z"/><path class="cls-28" d="M8.44,47.1s-.38.16-.39.31a1,1,0,0,1-.13.32s.21.45.52.43S9,48,9,47.88A.86.86,0,0,0,8.44,47.1Z"/><path class="cls-28" d="M11,47.1s-.8-.12-.88.53.35.66.35.66.56.15.81-.13l.26-.28S11.32,47.09,11,47.1Z"/><path class="cls-28" d="M13,46s-.83,0-.81.56.2.88.2.88a1.1,1.1,0,0,0,.94-.08c.38-.29.24-.48.24-.48S13.21,46,13,46Z"/><path class="cls-28" d="M14,43.68s-.64,0-.64.43c0,.79-.06.78-.06.78a1.09,1.09,0,0,0,.81.27,3.16,3.16,0,0,1,.49-.09S14.88,43.68,14,43.68Z"/><path class="cls-27" d="M59.46,92.33a2.8,2.8,0,0,0-2.1.13l-2.78,1.33s-2.59.18-2.93.82,0,1.81.77,1.78,2.25-.27,2.25-.27a9.19,9.19,0,0,0-.14,1.24,2.06,2.06,0,0,1,0,.44l-5.08,2.88s3.95.39,4.62.39h.76s.12,1.12.95.85,6.52-5.36,6.52-5.36S62.13,91.24,59.46,92.33Z"/><path class="cls-11" d="M82.68,48.83c-.88,5.23-1.49,6.15-1.43,9.4a63.1,63.1,0,0,1-.84,9.8c-.24,1.16-1.25,6.59-2.58,9.3s-3.57,6.21-4.45,8.43a15.8,15.8,0,0,1-2.46,4.48,4.74,4.74,0,0,1-.42.39,2.27,2.27,0,0,0-.89,1.53,7.93,7.93,0,0,1-2.39,1h-.29a3.7,3.7,0,0,1-.59,0H66.1l-.86.91,0,0a0,0,0,0,1,0,0L62,97.46a3.37,3.37,0,0,0-.31-1.22,4.66,4.66,0,0,0-.86-1.34c-1.16-1.28-2.39-2.8-2.39-2.8s1,0,1-.39A3.27,3.27,0,0,1,60,90.5c.17-.29,1.18-1.76,1.29-1.91h0a6.87,6.87,0,0,1-.12-1.68c.12-.24.79-.22,1.14-.61a13.11,13.11,0,0,0,1.61-3.07,8.09,8.09,0,0,1,1-2.48,42.06,42.06,0,0,0,2-4s.08-1.16.33-1.35.61-.57.61-.57a.55.55,0,0,1,0-.23,1.4,1.4,0,0,1,.42-.82l.15-.15a5.51,5.51,0,0,0,.51-.56,1.68,1.68,0,0,0,.34-.54,1.52,1.52,0,0,1,0-.27,1.16,1.16,0,0,1,.34-.89c.48-.44.18-2.36.34-2.82a.08.08,0,0,0,0-.07c.07-1-1-9.06-1.13-10.2S67.57,49.69,71.49,44s7.83-6.16,8.65-5.37a4.61,4.61,0,0,1,1.11,1.87A11.45,11.45,0,0,1,82.68,48.83Z"/><path class="cls-10" d="M78.51,39.2c.13-.05-5.19,3.19-5.64,5S71.2,49.62,71.29,53a8.41,8.41,0,0,1-1.88,5.57s-3-5.4-3.08-6.82,1,.58,1,.58a48.08,48.08,0,0,1,1.6-7.71,43.79,43.79,0,0,1,4-7.36A2.82,2.82,0,0,1,74,36.35a14.82,14.82,0,0,0-1.83,3.16l-.85,1.93A20,20,0,0,1,74.2,39.1a6.89,6.89,0,0,1,1.35-.37s-3.68,1.83-4.91,4.85a49.88,49.88,0,0,0-2.11,7.56l1.29.75A17.47,17.47,0,0,1,71,46.67C72,44.49,73,41.27,78.51,39.2Z"/><polygon class="cls-14" points="66.32 56.03 72.88 52.82 69.32 67.89 66.32 56.03"/><path class="cls-12" d="M69.76,79.05l-1.27-.62s-1.2,0-1.36.14A2.54,2.54,0,0,0,66.54,80c0,.59,1.95,3,1.95,3a19.73,19.73,0,0,1-2.1-1c-.46-.29-.64-1.4-.89-1.22a6,6,0,0,0-.65,1.73c-.12.33,1.92,1.35,2.39,1.58l-.86-.34a3.87,3.87,0,0,0-2.33.24c0,.12-.81,1.29-.31,1.85a3.87,3.87,0,0,0,1.61.87s-.69.2-.61.59a5.88,5.88,0,0,0,1.07,1.43,5.69,5.69,0,0,0-1.28-.67c-.67-.22-1.47-1.19-1.9-1.33s-.34.34-.59.36-.52.9-.52.9A8.12,8.12,0,0,1,65,89.79a6.27,6.27,0,0,1,2,3.39,3.7,3.7,0,0,1-.59,0h0a13.61,13.61,0,0,0-.59-2c-.31-.74-1.28-1.18-2.92-2.13a2.41,2.41,0,0,0-1.54-.4h0a6.87,6.87,0,0,1-.12-1.68c.12-.24.79-.22,1.14-.61a13.11,13.11,0,0,0,1.61-3.07,8.09,8.09,0,0,1,1-2.48,42.06,42.06,0,0,0,2-4s.08-1.16.33-1.35.61-.57.61-.57a.55.55,0,0,1,0-.23.93.93,0,0,1,.22.59c0,.85,1.75,1.7,2.11,1.88l-1.65-.57a1.1,1.1,0,0,0-1,.61C67.43,77.48,69.51,78.88,69.76,79.05Z"/><path class="cls-12" d="M72.52,75.26c-.2-.06-1.77-.53-2.74-.9-.41-.15-1-.38-1.49-.59l.16-.15a4.62,4.62,0,0,0,.51-.56C69.2,73.51,72.21,75.09,72.52,75.26Z"/><path class="cls-12" d="M69.28,72.26a1.19,1.19,0,0,1,.33-.9c.48-.44.19-2.36.34-2.82a.08.08,0,0,0,0-.07,6.1,6.1,0,0,0,.68.22c2.15.51,1.91.79,1.39,1.62s-2.45.44-2.24,1.07,4.07,2.12,4.55,2.3a34.29,34.29,0,0,1-3.67-1.2A2.33,2.33,0,0,0,69.28,72.26Z"/><path class="cls-12" d="M78.69,75.11s.7-2.92-1.07-4.32-3-1.34-3-1.09S76,71,76.38,71.44s1.29.32,1.67,1.92S78.56,75.53,78.69,75.11Z"/><path class="cls-12" d="M61.66,96.24a26.93,26.93,0,0,0,3.51-2.09L62,97.47A3.68,3.68,0,0,0,61.66,96.24Z"/><path class="cls-12" d="M70.91,90.24a2.91,2.91,0,0,1-.41.39,2.3,2.3,0,0,0-.9,1.53,8,8,0,0,1-2.39,1c-.56,0-1.1,0-1.1,0l-.88.9c.57-.65,1.11-2.21,1.77-1.9a2.75,2.75,0,0,0,2.31-.46c.1-.27,1.1-1.62,1.33-1.53Z"/><path class="cls-29" d="M57.79,31.68a4.66,4.66,0,0,1-1.9-1.39c-.72-1-1.45-.23-2.22-.23s-2.15.51-2.94,0a25,25,0,0,0-2.71-1c-.66-.36-.47-2-1.1-2.06a.91.91,0,0,1-.49-.19c1.33-.82,3.34-.52,5.25-.24a15.87,15.87,0,0,0,4.53,0l2.36.17a.8.8,0,0,1,.12.31C59.08,29.06,57.79,31.68,57.79,31.68Z"/><path class="cls-10" d="M69.55,32.72S65.12,37.13,63.71,39s-3.79,5.1-3.79,5.1A26.08,26.08,0,0,1,69.55,32.72Z"/><path class="cls-10" d="M67.51,35.92a30.69,30.69,0,0,0-1,4.47c-.1,1.46,0,4.89,0,4.89A9.12,9.12,0,0,1,67.51,35.92Z"/><path class="cls-30" d="M69.25,28.83a3.48,3.48,0,0,1-.37,3,5.55,5.55,0,0,1-1.82,1.59A12.79,12.79,0,0,1,62.8,34.9a6.55,6.55,0,0,0-5.39-2.51h-.12c0-.79-.16-2.26-.3-3.39-.1-.92-.2-1.62-.2-1.62L56.52,27l-.31-.44.38-.56L58,24,70.35,13.82a23.42,23.42,0,0,0-2.06,8.81C68.29,27.16,69.25,28.83,69.25,28.83Z"/><path class="cls-31" d="M69.25,28.83a3.48,3.48,0,0,1-.37,3,5.55,5.55,0,0,1-1.82,1.59,6.4,6.4,0,0,1-.27-1.67c-.08-6.69-.27-4.29-6-2.53A4.74,4.74,0,0,1,57,29c-.1-.92-.2-1.62-.2-1.62L56.52,27s0-.36.07-1L58,24,70.35,13.82a23.42,23.42,0,0,0-2.06,8.81C68.29,27.16,69.25,28.83,69.25,28.83Z"/><path class="cls-32" d="M69.3,27.43a5.24,5.24,0,0,1-2.38,3.33c-2.13,1.45-4.37,2.51-5.76,2.22l-1.39-.3s-.21,3.26.61,3.46,5-.23,7-1.87S72,30.41,71.82,29.8l-.15-.61S70.42,27,69.3,27.43Z"/><path class="cls-32" d="M58,27.18s-1.57,2.41-.59,3.58a9,9,0,0,0,2.38,1.92s-1.12,1.92-1.93,2-1.28-1.15-1.91-2.55.53-4,.82-4.52S58,27.18,58,27.18Z"/><path class="cls-27" d="M71.21,15.47c-.31,2.55-3.38,8.07-5.52,9.77a16,16,0,0,1-3,1.77,28.17,28.17,0,0,1-5.17,1.93c-1.08.16-2.67-.14-3.19-1.16s-1.19-9.39-1.11-10.21a10.31,10.31,0,0,0,.08-2.7,7.31,7.31,0,0,1-.4-2.67h0c0-.49,0-1.07.08-1.8A4.3,4.3,0,0,1,53.24,9V9a5,5,0,0,1,2.89-2.81,17.15,17.15,0,0,0,8.73.61C69.18,5.73,71.52,12.92,71.21,15.47Z"/><path class="cls-33" d="M71.21,15.47c-.31,2.55-3.38,8.07-5.52,9.77a16,16,0,0,1-3,1.77,15.93,15.93,0,0,0,2.87-8.08,13.13,13.13,0,0,0-1.33-4.77c-.27-.17-3.92,1.56-9.18-.68a8.14,8.14,0,0,1-2.15-1.28h0c0-.49,0-1.07.08-1.8A4.3,4.3,0,0,1,53.24,9V9a5,5,0,0,1,2.89-2.81,17.15,17.15,0,0,0,8.73.61C69.18,5.73,71.52,12.92,71.21,15.47Z"/><path class="cls-34" d="M70.64,15.85l-1.88,5.31s2.91-2.89,3-3.87S70.64,15.85,70.64,15.85Z"/><path class="cls-34" d="M60.53,12.77s4.52-.14,5,2.39a16,16,0,0,1,.39,3.42l1.29-.87s0-2,.7-2.43a2.22,2.22,0,0,1,2.2.18c.11.29,2.76-2,1.14-4S60.53,12.77,60.53,12.77Z"/><path class="cls-9" d="M65.52,13.2s5.37,3.22,5.72,3.86l.35.65s1.69-1.49,1.69-8.55S66.16.41,65.07.24,59.27.1,56.76,2.61a16.12,16.12,0,0,0-3.52,5.33S60.16,10.92,65.52,13.2Z"/><path class="cls-10" d="M67.67,1.07s-6.43-1-8.89,2.26A46.76,46.76,0,0,0,55,9.58c-1.33-.65-2.15-1.09-2.15-1.09s.88-2.83,4.74-6.57S67.67,1.07,67.67,1.07Z"/><path class="cls-35" d="M70,2.69a7.67,7.67,0,0,1-.48,5.23,50.83,50.83,0,0,1-3.08,5.52s4.23,2.41,5.21,3.54C71.9,17.3,75.86,6.8,70,2.69Z"/><path class="cls-11" d="M46.55,9.74S48,8,50.89,9.74s4.21,4,6.62,4.3a17.87,17.87,0,0,0,6.41-.44,9.63,9.63,0,0,1,1.6-.4s-5.47-3.77-7.64-4.62a11.77,11.77,0,0,0-4.64-.64S46.31,8.34,46.55,9.74Z"/><path class="cls-27" d="M68.4,15.82s1.74-1.49,2.62-.41-.11,2.42-.45,3.08-1.7,3.21-2.58,3,0-2.12,0-2.37S68,16.13,68.4,15.82Z"/><polygon class="cls-17" points="65.66 48.8 72.88 52.82 66.32 56.03 65.66 48.8"/><polygon class="cls-36" points="18.7 40.61 17.72 43.64 21.81 45.97 23.83 43.4 18.7 40.61"/><rect class="cls-37" x="7.96" y="65.77" width="7.79" height="0.62" transform="translate(36.35 3.58) rotate(31.57)"/><polygon class="cls-38" points="17.72 43.64 18.7 44.7 22.59 46.91 23.53 44.55 22.25 46.05 21.81 45.97 17.72 43.64"/><path class="cls-39" d="M61,141.81s-1.26,1.64-3.65,4.34c-1.17,1.32-1.23,1.79-2.79,2.32-2.63.87-5.57-.32-5.49-1.49s.75-1.36,2.46-3.61c1.4-1.86,3-3.45,3.36-4.46a7.67,7.67,0,0,0,1.3,1.5C57.85,141.43,59.53,142.15,61,141.81Z"/><path class="cls-39" d="M45.2,132.36s-1.13,2.67-2.27,3.42-4.3,2.61-4.27,3.66,2,2.32,4.12,1.82,5.09-3.59,5.36-4.18l.94-2.08Z"/><path class="cls-40" d="M57.64,8.75s-2.37.17-3.07.31c-1,.19-3.1.78-3.1.78s4.09,3.26,5.45,3.7c2.73.89,7.74-.48,7.74-.48S58.93,8.78,57.64,8.75Z"/></g></g></g></svg>