<?xml version="1.0" encoding="utf-8"?>
<!-- Generator: Adobe Illustrator 24.2.3, SVG Export Plug-In . SVG Version: 6.00 Build 0)  -->
<svg version="1.1" id="Layer_1" xmlns="http://www.w3.org/2000/svg" xmlns:xlink="http://www.w3.org/1999/xlink" x="0px" y="0px"
	 viewBox="0 0 356.1 327.8" style="enable-background:new 0 0 356.1 327.8;" xml:space="preserve">
<style type="text/css">
	.st0{fill:url(#SVGID_1_);}
	.st1{fill:url(#SVGID_2_);}
	.st2{fill:url(#SVGID_3_);}
	.st3{fill:#00A0B1;}
	.st4{fill:url(#SVGID_4_);}
	.st5{fill:url(#SVGID_5_);}
	.st6{fill:url(#SVGID_6_);}
	.st7{fill:#E3E0D4;}
	.st8{fill:url(#SVGID_7_);}
	.st9{fill:url(#SVGID_8_);}
	.st10{fill:url(#SVGID_9_);}
	.st11{fill:url(#SVGID_10_);}
	.st12{fill:#F95A66;}
	.st13{fill:#F3F2F0;}
	.st14{fill:#F8F8F8;}
	.st15{fill:#D2CFC4;}
	.st16{fill:none;stroke:#FFFAF8;stroke-width:3;stroke-linecap:round;stroke-linejoin:round;}
	.st17{fill:none;stroke:#FFFAF8;stroke-width:1.5;stroke-linecap:round;stroke-linejoin:round;}
	.st18{fill:none;stroke:#FFFAF8;stroke-width:1.59;stroke-linecap:round;stroke-linejoin:round;}
</style>
<linearGradient id="SVGID_1_" gradientUnits="userSpaceOnUse" x1="181.45" y1="11.45" x2="181.45" y2="69.74" gradientTransform="matrix(1 0 0 -1 0 226.1102)">
	<stop  offset="2.000000e-02" style="stop-color:#702828"/>
	<stop  offset="0.43" style="stop-color:#AA2E2E"/>
	<stop  offset="1" style="stop-color:#F12D35"/>
</linearGradient>
<polygon class="st0" points="166.4,214.7 77.7,173.7 183.6,156.4 285.2,194.1 "/>
<linearGradient id="SVGID_2_" gradientUnits="userSpaceOnUse" x1="232.795" y1="-40.17" x2="232.795" y2="69.67" gradientTransform="matrix(1 0 0 -1 0 226.1102)">
	<stop  offset="8.000000e-02" style="stop-color:#832826"/>
	<stop  offset="1" style="stop-color:#F12D35"/>
</linearGradient>
<polygon class="st1" points="183.8,156.4 180.4,212.3 285.2,194.1 "/>
<linearGradient id="SVGID_3_" gradientUnits="userSpaceOnUse" x1="182.2529" y1="-14.5586" x2="182.2529" y2="38.3814" gradientTransform="matrix(-1 -5.000000e-02 5.000000e-02 -1 302.94 226.5202)">
	<stop  offset="0" style="stop-color:#9A5F8B;stop-opacity:0"/>
	<stop  offset="0.13" style="stop-color:#9A5F8B;stop-opacity:4.000000e-02"/>
	<stop  offset="0.3" style="stop-color:#9A5F8B;stop-opacity:0.14"/>
	<stop  offset="0.49" style="stop-color:#9A5F8B;stop-opacity:0.31"/>
	<stop  offset="0.7" style="stop-color:#9A5F8B;stop-opacity:0.55"/>
	<stop  offset="0.91" style="stop-color:#9A5F8B;stop-opacity:0.86"/>
	<stop  offset="1" style="stop-color:#9A5F8B"/>
</linearGradient>
<polyline class="st2" points="165.7,216.1 77.9,175.6 78.1,189 164.8,233.1 165.7,216.1 "/>
<polygon class="st3" points="196.2,181.6 149.3,193.6 181.4,226.6 "/>
<linearGradient id="SVGID_4_" gradientUnits="userSpaceOnUse" x1="149.26" y1="19.035" x2="181.45" y2="19.035" gradientTransform="matrix(1 0 0 -1 0 226.1102)">
	<stop  offset="0" style="stop-color:#11C5CE"/>
	<stop  offset="1" style="stop-color:#11C5CE;stop-opacity:0"/>
</linearGradient>
<polygon class="st4" points="172.9,187.6 149.3,193.6 181.4,226.6 "/>
<linearGradient id="SVGID_5_" gradientUnits="userSpaceOnUse" x1="82.345" y1="-60.815" x2="160.775" y2="17.615" gradientTransform="matrix(1 0 0 -1 0 226.1102)">
	<stop  offset="0" style="stop-color:#AA2E2E"/>
	<stop  offset="1" style="stop-color:#F12D35"/>
</linearGradient>
<polygon class="st5" points="159.7,327.8 165.7,213.4 77.3,173.8 81.9,286.5 "/>
<linearGradient id="SVGID_6_" gradientUnits="userSpaceOnUse" x1="154.37" y1="-96.27" x2="283.96" y2="33.32" gradientTransform="matrix(1 0 0 -1 0 226.1102)">
	<stop  offset="0" style="stop-color:#AA2E2E"/>
	<stop  offset="1" style="stop-color:#F12D35"/>
</linearGradient>
<polygon class="st6" points="285.2,194.1 267.4,307.1 159.7,327.8 165.7,213.4 "/>
<polygon class="st7" points="230.5,202.5 224.7,315.9 204.9,319.9 211,206.1 "/>
<linearGradient id="SVGID_7_" gradientUnits="userSpaceOnUse" x1="78.9983" y1="-67.0886" x2="78.9983" y2="28.8014" gradientTransform="matrix(-1 -5.000000e-02 5.000000e-02 -1 302.94 226.5202)">
	<stop  offset="0" style="stop-color:#9A626D;stop-opacity:0"/>
	<stop  offset="0.15" style="stop-color:#9A626D;stop-opacity:3.000000e-02"/>
	<stop  offset="0.32" style="stop-color:#9A626D;stop-opacity:0.11"/>
	<stop  offset="0.48" style="stop-color:#9A626D;stop-opacity:0.25"/>
	<stop  offset="0.65" style="stop-color:#9A626D;stop-opacity:0.44"/>
	<stop  offset="0.82" style="stop-color:#9A626D;stop-opacity:0.69"/>
	<stop  offset="0.99" style="stop-color:#9A626D;stop-opacity:0.99"/>
	<stop  offset="1" style="stop-color:#9A626D"/>
</linearGradient>
<polygon class="st8" points="284,195.9 281.4,211.3 162.1,285.6 165.7,216.1 "/>
<polygon class="st7" points="122.6,307.7 128.5,196.9 109.2,188.1 103.3,297.4 "/>
<linearGradient id="SVGID_8_" gradientUnits="userSpaceOnUse" x1="49.62" y1="156.21" x2="262.42" y2="156.21" gradientTransform="matrix(1 0 0 -1 0 226.1102)">
	<stop  offset="0" style="stop-color:#AA2E2E"/>
	<stop  offset="1" style="stop-color:#F12D35"/>
</linearGradient>
<polygon class="st9" points="156,107.4 49.6,111.9 143.6,42.4 262.4,27.9 "/>
<linearGradient id="SVGID_9_" gradientUnits="userSpaceOnUse" x1="155.53" y1="145.295" x2="274.18" y2="145.295" gradientTransform="matrix(1 0 0 -1 0 226.1102)">
	<stop  offset="0" style="stop-color:#AA2E2E"/>
	<stop  offset="1" style="stop-color:#F12D35"/>
</linearGradient>
<polygon class="st10" points="262.3,27.6 274.2,54 168,134 155.5,106.3 "/>
<linearGradient id="SVGID_10_" gradientUnits="userSpaceOnUse" x1="49.62" y1="103.95" x2="168.01" y2="103.95" gradientTransform="matrix(1 0 0 -1 0 226.1102)">
	<stop  offset="0" style="stop-color:#AA2E2E"/>
	<stop  offset="1" style="stop-color:#F12D35"/>
</linearGradient>
<polygon class="st11" points="168,134 155.5,106.3 49.6,111.9 61.4,138 "/>
<path class="st12" d="M262.4,27.9c-8.8,6.8-17.5,13.5-26.4,20.2l-26.5,20.1l-26.5,20c-8.8,6.7-17.7,13.3-26.6,19.9l-0.2,0.1h-0.2
	l-26.6,1c-8.9,0.4-17.7,0.7-26.6,1l-26.6,1L49.6,112l26.6-1.5l26.6-1.3c8.9-0.4,17.7-0.9,26.6-1.3l26.6-1.2l-0.4,0.2
	c8.8-6.7,17.7-13.3,26.6-19.9l26.6-19.8l26.7-19.7C244.5,40.9,253.4,34.3,262.4,27.9z"/>
<polygon class="st13" points="195.1,77.7 88.1,83.2 106.5,69.6 216.7,61.6 "/>
<polygon class="st14" points="195.1,77.7 207.6,105.3 228.8,88.5 216.7,61.6 "/>
<polygon class="st13" points="203.7,35 112.2,108.6 87.6,111.2 177.4,38.3 "/>
<polygon class="st15" points="112.2,108.6 124.1,135.1 99.1,136.6 87.6,111.2 "/>
<circle class="st16" cx="68.8" cy="135" r="11.4"/>
<path class="st17" d="M251.9,152c0,3.1-2.6,5.7-5.7,5.7c-3.1,0-5.7-2.6-5.7-5.7c0-3.1,2.6-5.7,5.7-5.7S251.9,148.9,251.9,152
	C251.9,152,251.9,152,251.9,152z"/>
<path class="st17" d="M251,52.3c0,3.1-2.6,5.7-5.7,5.7s-5.7-2.6-5.7-5.7c0-3.1,2.6-5.7,5.7-5.7c0,0,0,0,0,0
	C248.5,46.6,251,49.2,251,52.3C251,52.3,251,52.3,251,52.3z"/>
<path class="st17" d="M124.9,135.1c0,3.1-2.6,5.7-5.7,5.7c-3.1,0-5.7-2.6-5.7-5.7c0-3.1,2.6-5.7,5.7-5.7c0,0,0,0,0,0
	C122.4,129.4,124.9,131.9,124.9,135.1C124.9,135,124.9,135,124.9,135.1z"/>
<path class="st17" d="M194.9,104.7c0,3.1-2.5,5.7-5.7,5.7c-3.1,0-5.7-2.5-5.7-5.7c0-3.1,2.5-5.7,5.7-5.7c0,0,0,0,0,0
	C192.4,99,194.9,101.5,194.9,104.7z"/>
<ellipse transform="matrix(0.2309 -0.973 0.973 0.2309 124.8288 324.8094)" class="st16" cx="267.9" cy="83.4" rx="11.4" ry="11.4"/>
<path class="st16" d="M280.5,175.3c0,3.5-2.8,6.3-6.3,6.3s-6.3-2.8-6.3-6.3s2.8-6.3,6.3-6.3l0,0C277.7,169,280.5,171.8,280.5,175.3
	C280.5,175.3,280.5,175.3,280.5,175.3z"/>
<circle class="st16" cx="84.9" cy="156.4" r="6.3"/>
<path class="st16" d="M86.5,232c0,3.5-2.8,6.3-6.3,6.3s-6.3-2.8-6.3-6.3c0-3.5,2.8-6.3,6.3-6.3c0,0,0,0,0,0
	C83.7,225.7,86.5,228.5,86.5,232z"/>
<line class="st16" x1="210.1" y1="179.1" x2="210.1" y2="197.1"/>
<line class="st16" x1="201.1" y1="188.1" x2="219.1" y2="188.1"/>
<line class="st16" x1="316.3" y1="76.5" x2="316.3" y2="94.5"/>
<line class="st16" x1="307.3" y1="85.5" x2="325.3" y2="85.5"/>
<line class="st17" x1="285.3" y1="128.3" x2="285.3" y2="137.3"/>
<line class="st17" x1="280.8" y1="132.8" x2="289.8" y2="132.8"/>
<line class="st17" x1="200.3" y1="23.2" x2="200.3" y2="32.2"/>
<line class="st16" x1="115.8" y1="36.4" x2="115.8" y2="54.4"/>
<line class="st16" x1="106.8" y1="45.4" x2="124.8" y2="45.4"/>
<line class="st18" x1="113.5" y1="87.2" x2="113.5" y2="96.7"/>
<line class="st18" x1="108.8" y1="91.9" x2="118.3" y2="91.9"/>
<line class="st16" x1="117.8" y1="131.3" x2="117.8" y2="149.3"/>
<line class="st16" x1="108.8" y1="140.3" x2="126.8" y2="140.3"/>
</svg>
